{
    "asset" : {
        "generator" : "Khronos glTF Blender I/O v1.3.48",
        "version" : "2.0"
    },
    "scene" : 0,
    "scenes" : [
        {
            "name" : "Scene",
            "nodes" : [
                0,
                1
            ]
        }
    ],
    "nodes" : [
        {
            "mesh" : 0,
            "name" : "Untitled 795189-Mesh 967772",
            "rotation" : [
                0.7071068286895752,
                0,
                0,
                0.7071068286895752
            ],
            "scale" : [
                0.05000000074505806,
                0.05000000074505806,
                0.05000000074505806
            ],
            "translation" : [
                0.009604692459106445,
                0.2056879997253418,
                0.03257716819643974
            ]
        },
        {
            "name" : "Point",
            "translation" : [
                6.553725242614746,
                23.373252868652344,
                0
            ]
        }
    ],
    "materials" : [
        {
            "doubleSided" : true,
            "emissiveFactor" : [
                0,
                0,
                0
            ],
            "name" : "Material.001",
            "pbrMetallicRoughness" : {
                "baseColorFactor" : [
                    0.006370699033141136,
                    0.006370699033141136,
                    0.006370699033141136,
                    1
                ],
                "metallicFactor" : 0,
                "roughnessFactor" : 0.49723756313323975
            }
        }
    ],
    "meshes" : [
        {
            "name" : "Untitled 795189-Mesh 967772",
            "primitives" : [
                {
                    "attributes" : {
                        "POSITION" : 0,
                        "NORMAL" : 1
                    },
                    "indices" : 2,
                    "material" : 0
                }
            ]
        }
    ],
    "accessors" : [
        {
            "bufferView" : 0,
            "componentType" : 5126,
            "count" : 32241,
            "max" : [
                140.36439514160156,
                73.4175033569336,
                193.96914672851562
            ],
            "min" : [
                -162.79949951171875,
                -69.61515808105469,
                -239.71319580078125
            ],
            "type" : "VEC3"
        },
        {
            "bufferView" : 1,
            "componentType" : 5126,
            "count" : 32241,
            "type" : "VEC3"
        },
        {
            "bufferView" : 2,
            "componentType" : 5123,
            "count" : 193434,
            "type" : "SCALAR"
        }
    ],
    "bufferViews" : [
        {
            "buffer" : 0,
            "byteLength" : 386892,
            "byteOffset" : 0
        },
        {
            "buffer" : 0,
            "byteLength" : 386892,
            "byteOffset" : 386892
        },
        {
            "buffer" : 0,
            "byteLength" : 386868,
            "byteOffset" : 773784
        }
    ],
    "buffers" : [
        {
            "byteLength" : 1160652,
            "uri" : "data:application/octet-stream;base64,"
        }
    ]
}
