{
    "asset" : {
        "generator" : "Khronos glTF Blender I/O v1.3.48",
        "version" : "2.0"
    },
    "scene" : 0,
    "scenes" : [
        {
            "name" : "Scene",
            "nodes" : [
                0,
                1,
                2,
                3,
                4,
                5,
                6,
                7,
                8,
                9,
                10
            ]
        }
    ],
    "nodes" : [
        {
            "name" : "Light",
            "rotation" : [
                0.16907575726509094,
                0.7558803558349609,
                -0.27217137813568115,
                0.570947527885437
            ],
            "translation" : [
                4.076245307922363,
                5.903861999511719,
                -1.0054539442062378
            ]
        },
        {
            "name" : "Camera",
            "rotation" : [
                0.483536034822464,
                0.33687159419059753,
                -0.20870360732078552,
                0.7804827094078064
            ],
            "translation" : [
                7.358891487121582,
                4.958309173583984,
                6.925790786743164
            ]
        },
        {
            "mesh" : 0,
            "name" : "Torus.001"
        },
        {
            "mesh" : 1,
            "name" : "Torus.002",
            "rotation" : [
                0.7071068286895752,
                0,
                0,
                0.7071068286895752
            ],
            "translation" : [
                9.980680465698242,
                0,
                0
            ]
        },
        {
            "mesh" : 2,
            "name" : "Torus.003",
            "rotation" : [
                0.7071068286895752,
                0,
                0,
                0.7071068286895752
            ],
            "translation" : [
                -9.988991737365723,
                0,
                0
            ]
        },
        {
            "mesh" : 3,
            "name" : "Torus.004",
            "rotation" : [
                0.5,
                0.5,
                -0.5,
                0.4999999701976776
            ],
            "translation" : [
                -0.0041561126708984375,
                0,
                -9.98483657836914
            ]
        },
        {
            "mesh" : 4,
            "name" : "Torus.005",
            "rotation" : [
                0.5,
                0.5,
                -0.5,
                0.4999999701976776
            ],
            "translation" : [
                -0.004155158996582031,
                0,
                9.98483657836914
            ]
        },
        {
            "mesh" : 5,
            "name" : "Torus.006",
            "rotation" : [
                0.27059805393218994,
                0.6532814502716064,
                -0.6532815098762512,
                0.27059805393218994
            ],
            "translation" : [
                -7.064501762390137,
                0,
                -7.06034517288208
            ]
        },
        {
            "mesh" : 6,
            "name" : "Torus.007",
            "rotation" : [
                0.27059805393218994,
                0.6532814502716064,
                -0.6532815098762512,
                0.27059805393218994
            ],
            "translation" : [
                7.056190490722656,
                0,
                7.06034517288208
            ]
        },
        {
            "mesh" : 7,
            "name" : "Torus.008",
            "rotation" : [
                0.6532815098762512,
                0.27059808373451233,
                -0.27059808373451233,
                0.6532814502716064
            ],
            "translation" : [
                7.05618953704834,
                0,
                -7.0603461265563965
            ]
        },
        {
            "mesh" : 8,
            "name" : "Torus.009",
            "rotation" : [
                0.6532815098762512,
                0.27059808373451233,
                -0.27059808373451233,
                0.6532814502716064
            ],
            "translation" : [
                -7.06450080871582,
                0,
                7.0603461265563965
            ]
        }
    ],
    "materials" : [
        {
            "doubleSided" : true,
            "emissiveFactor" : [
                0,
                0,
                0
            ],
            "name" : "Material.002",
            "pbrMetallicRoughness" : {
                "baseColorFactor" : [
                    0,
                    0.46720170974731445,
                    0.0018453157972544432,
                    1
                ],
                "metallicFactor" : 0,
                "roughnessFactor" : 0.1418439745903015
            }
        },
        {
            "doubleSided" : true,
            "emissiveFactor" : [
                0,
                0,
                0
            ],
            "name" : "Material.003",
            "pbrMetallicRoughness" : {
                "baseColorFactor" : [
                    0.8000000715255737,
                    0.41905477643013,
                    0.5617478489875793,
                    1
                ],
                "metallicFactor" : 0,
                "roughnessFactor" : 0.5
            }
        }
    ],
    "meshes" : [
        {
            "name" : "Torus.001",
            "primitives" : [
                {
                    "attributes" : {
                        "POSITION" : 0,
                        "NORMAL" : 1,
                        "TEXCOORD_0" : 2
                    },
                    "indices" : 3,
                    "material" : 0
                }
            ]
        },
        {
            "name" : "Torus.002",
            "primitives" : [
                {
                    "attributes" : {
                        "POSITION" : 4,
                        "NORMAL" : 5,
                        "TEXCOORD_0" : 6
                    },
                    "indices" : 7,
                    "material" : 1
                }
            ]
        },
        {
            "name" : "Torus.003",
            "primitives" : [
                {
                    "attributes" : {
                        "POSITION" : 8,
                        "NORMAL" : 9,
                        "TEXCOORD_0" : 10
                    },
                    "indices" : 7,
                    "material" : 1
                }
            ]
        },
        {
            "name" : "Torus.004",
            "primitives" : [
                {
                    "attributes" : {
                        "POSITION" : 11,
                        "NORMAL" : 12,
                        "TEXCOORD_0" : 13
                    },
                    "indices" : 7,
                    "material" : 1
                }
            ]
        },
        {
            "name" : "Torus.005",
            "primitives" : [
                {
                    "attributes" : {
                        "POSITION" : 14,
                        "NORMAL" : 15,
                        "TEXCOORD_0" : 16
                    },
                    "indices" : 7,
                    "material" : 1
                }
            ]
        },
        {
            "name" : "Torus.006",
            "primitives" : [
                {
                    "attributes" : {
                        "POSITION" : 17,
                        "NORMAL" : 18,
                        "TEXCOORD_0" : 19
                    },
                    "indices" : 7,
                    "material" : 1
                }
            ]
        },
        {
            "name" : "Torus.007",
            "primitives" : [
                {
                    "attributes" : {
                        "POSITION" : 20,
                        "NORMAL" : 21,
                        "TEXCOORD_0" : 22
                    },
                    "indices" : 7,
                    "material" : 1
                }
            ]
        },
        {
            "name" : "Torus.008",
            "primitives" : [
                {
                    "attributes" : {
                        "POSITION" : 23,
                        "NORMAL" : 24,
                        "TEXCOORD_0" : 25
                    },
                    "indices" : 7,
                    "material" : 1
                }
            ]
        },
        {
            "name" : "Torus.009",
            "primitives" : [
                {
                    "attributes" : {
                        "POSITION" : 26,
                        "NORMAL" : 27,
                        "TEXCOORD_0" : 28
                    },
                    "indices" : 7,
                    "material" : 1
                }
            ]
        }
    ],
    "accessors" : [
        {
            "bufferView" : 0,
            "componentType" : 5126,
            "count" : 637,
            "max" : [
                10.100000381469727,
                0.10000000149011612,
                10.100000381469727
            ],
            "min" : [
                -10.100000381469727,
                -0.10000000149011612,
                -10.100000381469727
            ],
            "type" : "VEC3"
        },
        {
            "bufferView" : 1,
            "componentType" : 5126,
            "count" : 637,
            "type" : "VEC3"
        },
        {
            "bufferView" : 2,
            "componentType" : 5126,
            "count" : 637,
            "type" : "VEC2"
        },
        {
            "bufferView" : 3,
            "componentType" : 5123,
            "count" : 3456,
            "type" : "SCALAR"
        },
        {
            "bufferView" : 4,
            "componentType" : 5126,
            "count" : 2304,
            "max" : [
                0.4500003755092621,
                0.10000000149011612,
                0.4500003755092621
            ],
            "min" : [
                -0.4500003755092621,
                -0.10000000149011612,
                -0.4500003755092621
            ],
            "type" : "VEC3"
        },
        {
            "bufferView" : 5,
            "componentType" : 5126,
            "count" : 2304,
            "type" : "VEC3"
        },
        {
            "bufferView" : 6,
            "componentType" : 5126,
            "count" : 2304,
            "type" : "VEC2"
        },
        {
            "bufferView" : 7,
            "componentType" : 5123,
            "count" : 3456,
            "type" : "SCALAR"
        },
        {
            "bufferView" : 8,
            "componentType" : 5126,
            "count" : 2304,
            "max" : [
                0.4500003755092621,
                0.10000000149011612,
                0.4500003755092621
            ],
            "min" : [
                -0.4500003755092621,
                -0.10000000149011612,
                -0.4500003755092621
            ],
            "type" : "VEC3"
        },
        {
            "bufferView" : 9,
            "componentType" : 5126,
            "count" : 2304,
            "type" : "VEC3"
        },
        {
            "bufferView" : 10,
            "componentType" : 5126,
            "count" : 2304,
            "type" : "VEC2"
        },
        {
            "bufferView" : 11,
            "componentType" : 5126,
            "count" : 2304,
            "max" : [
                0.4500003755092621,
                0.10000000149011612,
                0.4500003755092621
            ],
            "min" : [
                -0.4500003755092621,
                -0.10000000149011612,
                -0.4500003755092621
            ],
            "type" : "VEC3"
        },
        {
            "bufferView" : 12,
            "componentType" : 5126,
            "count" : 2304,
            "type" : "VEC3"
        },
        {
            "bufferView" : 13,
            "componentType" : 5126,
            "count" : 2304,
            "type" : "VEC2"
        },
        {
            "bufferView" : 14,
            "componentType" : 5126,
            "count" : 2304,
            "max" : [
                0.4500003755092621,
                0.10000000149011612,
                0.4500003755092621
            ],
            "min" : [
                -0.4500003755092621,
                -0.10000000149011612,
                -0.4500003755092621
            ],
            "type" : "VEC3"
        },
        {
            "bufferView" : 15,
            "componentType" : 5126,
            "count" : 2304,
            "type" : "VEC3"
        },
        {
            "bufferView" : 16,
            "componentType" : 5126,
            "count" : 2304,
            "type" : "VEC2"
        },
        {
            "bufferView" : 17,
            "componentType" : 5126,
            "count" : 2304,
            "max" : [
                0.4500003755092621,
                0.10000000149011612,
                0.4500003755092621
            ],
            "min" : [
                -0.4500003755092621,
                -0.10000000149011612,
                -0.4500003755092621
            ],
            "type" : "VEC3"
        },
        {
            "bufferView" : 18,
            "componentType" : 5126,
            "count" : 2304,
            "type" : "VEC3"
        },
        {
            "bufferView" : 19,
            "componentType" : 5126,
            "count" : 2304,
            "type" : "VEC2"
        },
        {
            "bufferView" : 20,
            "componentType" : 5126,
            "count" : 2304,
            "max" : [
                0.4500003755092621,
                0.10000000149011612,
                0.4500003755092621
            ],
            "min" : [
                -0.4500003755092621,
                -0.10000000149011612,
                -0.4500003755092621
            ],
            "type" : "VEC3"
        },
        {
            "bufferView" : 21,
            "componentType" : 5126,
            "count" : 2304,
            "type" : "VEC3"
        },
        {
            "bufferView" : 22,
            "componentType" : 5126,
            "count" : 2304,
            "type" : "VEC2"
        },
        {
            "bufferView" : 23,
            "componentType" : 5126,
            "count" : 2304,
            "max" : [
                0.4500003755092621,
                0.10000000149011612,
                0.4500003755092621
            ],
            "min" : [
                -0.4500003755092621,
                -0.10000000149011612,
                -0.4500003755092621
            ],
            "type" : "VEC3"
        },
        {
            "bufferView" : 24,
            "componentType" : 5126,
            "count" : 2304,
            "type" : "VEC3"
        },
        {
            "bufferView" : 25,
            "componentType" : 5126,
            "count" : 2304,
            "type" : "VEC2"
        },
        {
            "bufferView" : 26,
            "componentType" : 5126,
            "count" : 2304,
            "max" : [
                0.4500003755092621,
                0.10000000149011612,
                0.4500003755092621
            ],
            "min" : [
                -0.4500003755092621,
                -0.10000000149011612,
                -0.4500003755092621
            ],
            "type" : "VEC3"
        },
        {
            "bufferView" : 27,
            "componentType" : 5126,
            "count" : 2304,
            "type" : "VEC3"
        },
        {
            "bufferView" : 28,
            "componentType" : 5126,
            "count" : 2304,
            "type" : "VEC2"
        }
    ],
    "bufferViews" : [
        {
            "buffer" : 0,
            "byteLength" : 7644,
            "byteOffset" : 0
        },
        {
            "buffer" : 0,
            "byteLength" : 7644,
            "byteOffset" : 7644
        },
        {
            "buffer" : 0,
            "byteLength" : 5096,
            "byteOffset" : 15288
        },
        {
            "buffer" : 0,
            "byteLength" : 6912,
            "byteOffset" : 20384
        },
        {
            "buffer" : 0,
            "byteLength" : 27648,
            "byteOffset" : 27296
        },
        {
            "buffer" : 0,
            "byteLength" : 27648,
            "byteOffset" : 54944
        },
        {
            "buffer" : 0,
            "byteLength" : 18432,
            "byteOffset" : 82592
        },
        {
            "buffer" : 0,
            "byteLength" : 6912,
            "byteOffset" : 101024
        },
        {
            "buffer" : 0,
            "byteLength" : 27648,
            "byteOffset" : 107936
        },
        {
            "buffer" : 0,
            "byteLength" : 27648,
            "byteOffset" : 135584
        },
        {
            "buffer" : 0,
            "byteLength" : 18432,
            "byteOffset" : 163232
        },
        {
            "buffer" : 0,
            "byteLength" : 27648,
            "byteOffset" : 181664
        },
        {
            "buffer" : 0,
            "byteLength" : 27648,
            "byteOffset" : 209312
        },
        {
            "buffer" : 0,
            "byteLength" : 18432,
            "byteOffset" : 236960
        },
        {
            "buffer" : 0,
            "byteLength" : 27648,
            "byteOffset" : 255392
        },
        {
            "buffer" : 0,
            "byteLength" : 27648,
            "byteOffset" : 283040
        },
        {
            "buffer" : 0,
            "byteLength" : 18432,
            "byteOffset" : 310688
        },
        {
            "buffer" : 0,
            "byteLength" : 27648,
            "byteOffset" : 329120
        },
        {
            "buffer" : 0,
            "byteLength" : 27648,
            "byteOffset" : 356768
        },
        {
            "buffer" : 0,
            "byteLength" : 18432,
            "byteOffset" : 384416
        },
        {
            "buffer" : 0,
            "byteLength" : 27648,
            "byteOffset" : 402848
        },
        {
            "buffer" : 0,
            "byteLength" : 27648,
            "byteOffset" : 430496
        },
        {
            "buffer" : 0,
            "byteLength" : 18432,
            "byteOffset" : 458144
        },
        {
            "buffer" : 0,
            "byteLength" : 27648,
            "byteOffset" : 476576
        },
        {
            "buffer" : 0,
            "byteLength" : 27648,
            "byteOffset" : 504224
        },
        {
            "buffer" : 0,
            "byteLength" : 18432,
            "byteOffset" : 531872
        },
        {
            "buffer" : 0,
            "byteLength" : 27648,
            "byteOffset" : 550304
        },
        {
            "buffer" : 0,
            "byteLength" : 27648,
            "byteOffset" : 577952
        },
        {
            "buffer" : 0,
            "byteLength" : 18432,
            "byteOffset" : 605600
        }
    ],
    "buffers" : [
        {
            "byteLength" : 624032,
            "uri" : "data:application/octet-stream;base64,"
        }
    ]
}
