<svg id="Layer_3" data-name="Layer 3" xmlns="http://www.w3.org/2000/svg" viewBox="0 0 143.38 115.45"><defs><style>.cls-1{fill:#010201;}.cls-2{fill:#020202;}.cls-3{fill:#1b1a1a;}.cls-4{fill:#252525;}.cls-5{fill:#0e0e0e;}.cls-6{fill:#262525;}.cls-7{fill:#6f6e6e;}.cls-8{fill:#131313;}.cls-9{fill:#4c4b4b;}.cls-10{fill:#171616;}.cls-11{fill:#919090;}.cls-12{fill:#b1b1b1;}.cls-13{fill:#2c2b2b;}.cls-14{fill:#c6c6c6;}.cls-15{fill:#454544;}.cls-16{fill:#676564;}.cls-17{fill:#696969;}.cls-18{fill:#434242;}.cls-19{fill:#908e8e;}.cls-20{fill:#9b9b9b;}.cls-21{fill:#b4b1b1;}.cls-22{fill:#737070;}.cls-23{fill:#716f6e;}.cls-24{fill:#626262;}.cls-25{fill:#323232;}.cls-26{fill:#5b5b5b;}.cls-27{fill:#7a7a7a;}.cls-28{fill:#9f9f9f;}.cls-29{fill:#cfcece;}.cls-30{fill:#2b2b2b;}.cls-31{fill:#4d4d4d;}.cls-32{fill:#737474;}.cls-33{fill:#343434;}.cls-34{fill:#686868;}.cls-35{fill:#525252;}.cls-36{fill:#d8d8d8;}.cls-37{fill:#565656;}.cls-38{fill:#444;}.cls-39{fill:#373737;}.cls-40{fill:#949494;}.cls-41{fill:#747474;}.cls-42{fill:#3c3c3c;}.cls-43{fill:#1e1e1e;}.cls-44{fill:#232323;}.cls-45{fill:#767575;}.cls-46{fill:#5d5d5d;}.cls-47{fill:#686969;}.cls-48{fill:#676767;}.cls-49{fill:#606060;}.cls-50{fill:#4b4b4b;}.cls-51{fill:#4c4c4c;}.cls-52{fill:#7a7979;}.cls-53{fill:#3f3f3f;}.cls-54{fill:#262626;}.cls-55{fill:#2f2f2f;}.cls-56{fill:#bababa;}.cls-57{fill:#cbcaca;}.cls-58{fill:#868686;}.cls-59{fill:#424242;}.cls-60{fill:#474747;}.cls-61{fill:#454545;}.cls-62{fill:#3d3d3d;}.cls-63{fill:#494949;}.cls-64{fill:#6a6b6b;}</style></defs><path class="cls-1" d="M353.49,626c-6.61-3.84-6.31-9.7-6-16.48.42-10.51,2.64-20.74,3.36-31.16.71-10.25-1.46-20.22-3.45-30.17-.46-2.3-.2-3,2.15-3.27,8.86-.91,17.69-2,26.54-3,2.22.36,1.41,1.7.94,2.93-2.53,9.73-3,19.79-4.62,29.68-.9,5.56-1.65,11.16-2.42,16.74-.92,6.74-.69,13,4.92,18.18,3.65,3.36,6.7,7.43,9.79,11.37,5.41,6.89,3.34,14-4.64,16.56-2.2,1.16-3.53-.3-4.91-1.62a11.27,11.27,0,0,1-1-.65,20.13,20.13,0,0,0-3-2,8.43,8.43,0,0,1-2.92-2.24,5.83,5.83,0,0,1-.51-1.14c-.39-1.43-.93-2.68-2.78-2.38a5,5,0,0,1-1.16,0c-1.72-.25-2.25.92-2.66,2.25-.61,1.17-1.07,2.55-2.87,2a2.61,2.61,0,0,1-2-2.8C356.17,627.05,354.84,626.5,353.49,626Z" transform="translate(-244.29 -541.1)"/><path class="cls-2" d="M282.45,545.69a105.34,105.34,0,0,0,11.23.15c3.86-.33,3.62,1.61,2.93,4.14-2.47,9-4.9,18.09-7.44,27.11-3.11,11-5.53,22.09-4.55,33.77.57,6.86-2.43,13.49-3,20.36-.3,3.59-1,7.13-1.54,10.7-.6,4.16-2.81,6.74-7,7.75a77,77,0,0,0-17.23,5.85c-4.24,2.16-7.38.79-8.94-3.08a16.66,16.66,0,0,1,1.42-2c.9-2.07.31-4.77,2.63-6.23,2.24-.79,3.07-4,6.06-3.54a11.81,11.81,0,0,0,2.26-.52c.83-.95-.36-.65-.61-.92a9.39,9.39,0,0,1-1.64-.58c-2.12-1.2-3.74-2.52-1.1-4.81,2.14-2.06,3.38-4.74,5-7.19,1.8-1.17,2-3.1,2.33-4.95,1.29-2.19,1.38-4.9,2.95-7,1.76-.34.05-1.38.39-2a26.12,26.12,0,0,1,1.36-3.5,9.43,9.43,0,0,0,.64-3.76,23,23,0,0,1,.75-5.55c.18-2.16.12-4.33.14-6.49a19.23,19.23,0,0,1,.11-2.15c.13-1.4.7-2.7.8-4.11,0-.68.05-1.37.07-2a19.41,19.41,0,0,1,.38-4.09,11.92,11.92,0,0,0,.57-3.25c0-.87,0-1.74,0-2.61a16.62,16.62,0,0,0-.54-4.44,6.89,6.89,0,0,1,0-1.87c.27-1.39-.23-2.8.13-4.19a7,7,0,0,0,0-4,3.6,3.6,0,0,1,.27-1.83c1.49-1.67,0-3.17-.28-4.73-.11-1.2-1-1.49-2-1.58a3.41,3.41,0,0,1-2.3-1.07,3,3,0,0,1,3.15-3.68,5.11,5.11,0,0,0,3.85-2.16A26.67,26.67,0,0,1,282.45,545.69Z" transform="translate(-244.29 -541.1)"/><path class="cls-3" d="M262,598.36c.5-2.42-.47-5,1-7.34,1.47-.77,2.24.59,3.31,1.06,2.11.72,2.59,2.49,2.87,4.41a21.65,21.65,0,0,1-.06,3.6c-2.92,2.49-5.06,5.43-5.47,9.4-.56,1-.77,2.75-2.31,2.18s-.89-2.39-1.22-3.66c.11-.91.23-1.82.34-2.72C261.83,603.16,261.52,600.67,262,598.36Z" transform="translate(-244.29 -541.1)"/><path class="cls-4" d="M358.15,631.65a3,3,0,0,0,2-2.89c1.2-.72,2-2.27,3.74-1.85.27,0,.54,0,.8,0,.48.55.22,1.49,1,1.86,1.08.6,1.81,1.72,3.12,1.93.87.69,2.19.81,2.63,2.05.75.7,1.47,1.43,2.26,2.07.63.53,1.15.51,1.49-.33,2.19,0,2.21,3.65,4.85,2.91a7.06,7.06,0,0,1-7.42-.21C368.1,634.49,362.61,634.44,358.15,631.65Z" transform="translate(-244.29 -541.1)"/><path class="cls-5" d="M260.43,561.8c-.06-3.87-.15-7.75-.17-11.62,0-6.63,0-6.63,6.63-6.12a.81.81,0,0,1,0,1.06,6.81,6.81,0,0,1-.79.35c-.34.18-.87-.33-1.07.3a.68.68,0,0,1,.61.51,10.86,10.86,0,0,1-.6,5.59,21.19,21.19,0,0,0-1.31,5.44,10.26,10.26,0,0,1-1.06,3.63C262.06,561.63,261.42,562.17,260.43,561.8Z" transform="translate(-244.29 -541.1)"/><path class="cls-6" d="M260.43,561.8l1.77-.92a1.52,1.52,0,0,1,1.75-.36c1.11.75,1.07,2.19,1.87,3.12a10,10,0,0,1,1.49,1.87,2.2,2.2,0,0,1-.06,1.76c-.63.72-1.59.37-2.33.72a4.52,4.52,0,0,0-1.69,1.78c-1.5,1.54-.17,4.18-2.13,5.55Q260.77,568.55,260.43,561.8Z" transform="translate(-244.29 -541.1)"/><path class="cls-7" d="M256.53,634.45c-3.29,2.33.33,2.62,1.1,3.76.07,1.86-1.86.71-2.44,1.62a4.9,4.9,0,0,1-2.46.16,5.44,5.44,0,0,1-2.81-1.45c-1,.14,1.43-2-.8-1.18-.77.3-1.57.12-1.16-1.09a8.91,8.91,0,0,1,2.82-3.89c.74.14,1.5-.28,2.25,0,1,.63,2.45.33,3.27,1.43Z" transform="translate(-244.29 -541.1)"/><path class="cls-8" d="M265.85,593,263,591l0-4.27c.06-2.73-1.39-5.35-.6-8.14a1.7,1.7,0,0,1,2,.42,11.18,11.18,0,0,1,1.26,3.2,50.93,50.93,0,0,0,1.66,4.83,3.86,3.86,0,0,1,0,1.27C266.62,589.79,267.32,591.72,265.85,593Z" transform="translate(-244.29 -541.1)"/><path class="cls-9" d="M260.15,608c1.38.53.92,2,1.48,3.09l1.25-2.33a1.7,1.7,0,0,1,1,.66c.65,1.12,1.1,2.26.27,3.5a8.26,8.26,0,0,1-3.76,2.07c-1,.1-1.45-.62-1.93-1.3A10.91,10.91,0,0,1,260.15,608Z" transform="translate(-244.29 -541.1)"/><path class="cls-10" d="M266.89,544.65v-.59l15.56,1.63c-2.95.72-6.19-.9-9,1.09-1.47,2.26-2.9.07-4.36,0C268.07,546.37,267.06,546,266.89,544.65Z" transform="translate(-244.29 -541.1)"/><path class="cls-11" d="M252.8,628.81l2.68-4.78a1.22,1.22,0,0,1,1.34-.2,3.15,3.15,0,0,1,1.39,1.68c.47,2.61-.17,4.52-3.12,5A2.48,2.48,0,0,1,252.8,628.81Z" transform="translate(-244.29 -541.1)"/><path class="cls-12" d="M244.37,647.73c0-1.89,0-3.79,0-5.68a6.92,6.92,0,0,1,3.29-.26c2,.93,2.35,2.32,1.14,4.14a7.53,7.53,0,0,1-1.39,1.43C246.46,648,245.5,648.61,244.37,647.73Z" transform="translate(-244.29 -541.1)"/><path class="cls-13" d="M263.12,578.79c-1.16,2.63.82,5.32-.14,8A34.59,34.59,0,0,1,261.2,576a1,1,0,0,1,1.28-.2C263.46,576.62,264.15,577.52,263.12,578.79Z" transform="translate(-244.29 -541.1)"/><path class="cls-14" d="M247.1,642a2.48,2.48,0,0,1-2.74,0c0-1.78.75-2.93,2.72-2.87a1.41,1.41,0,0,1,1.32-.4C250.5,640.88,249,641.52,247.1,642Z" transform="translate(-244.29 -541.1)"/><path class="cls-15" d="M249,651.94l-2.14.5c-1.12-1.07-3-1.62-2.47-3.8,2.28-1.07,3.59.36,4.86,1.89A2.54,2.54,0,0,1,249,651.94Z" transform="translate(-244.29 -541.1)"/><path class="cls-16" d="M252.8,628.81l1.85,1A1.17,1.17,0,0,1,255,631c-.5.84-.65,2.15-2.17,1.59-.69.18-1.44.95-2-.19C250.51,630.65,252.22,630.05,252.8,628.81Z" transform="translate(-244.29 -541.1)"/><path class="cls-8" d="M262.19,576h-1a.39.39,0,0,1-.1-.66c.08-1.67.2-3.34.22-5s.93-1.21,1.83-1a.77.77,0,0,1,1.06-.06,2.88,2.88,0,0,1-.39,2.32,9.9,9.9,0,0,0-.73,2.84A2.4,2.4,0,0,1,262.19,576Z" transform="translate(-244.29 -541.1)"/><path class="cls-9" d="M262,598.36c0,2.27.07,4.54-.12,6.8-.08.91-.92.27-1.43.13A16.92,16.92,0,0,1,262,598.36Z" transform="translate(-244.29 -541.1)"/><path class="cls-17" d="M249,650.57l-4.56-1.93a1.15,1.15,0,0,1,0-.91l2.73-1a3.72,3.72,0,0,1,2.29,2.05C249.46,649.46,249.55,650.1,249,650.57Z" transform="translate(-244.29 -541.1)"/><path class="cls-18" d="M353.49,626c2.61-.64,3.79,0,2.67,2.88A3.55,3.55,0,0,1,353.49,626Z" transform="translate(-244.29 -541.1)"/><path class="cls-19" d="M256.73,624.14l-1.25-.11c.6-1.31,1.2-2.62,1.81-3.93a1.88,1.88,0,0,1,1.46,1.22C258.71,622.71,258.58,624.05,256.73,624.14Z" transform="translate(-244.29 -541.1)"/><path class="cls-20" d="M248.13,639.13l-1,0c0-1.07-.34-2.22.88-2.91.16,1.14,3.67-1.08,1.95,2C249.55,639,248.62,638.62,248.13,639.13Z" transform="translate(-244.29 -541.1)"/><path class="cls-21" d="M377,544.83c0-1.07.54-2.33-.94-2.93a2.4,2.4,0,0,1,3.13-.41C378.44,542.62,377.72,543.73,377,544.83Z" transform="translate(-244.29 -541.1)"/><path class="cls-22" d="M258.2,621.12l-.91-1c.25-1.61.11-3.3,1-4.76a3.09,3.09,0,0,1,1.19,2.57,5.55,5.55,0,0,1-.31,2.18A1.92,1.92,0,0,1,258.2,621.12Z" transform="translate(-244.29 -541.1)"/><path class="cls-23" d="M258.43,618.42l-.12-3.08.15-1.64,1.91,1a2,2,0,0,1,.29,1.23C260.19,617,260.4,618.7,258.43,618.42Z" transform="translate(-244.29 -541.1)"/><path class="cls-24" d="M364.6,628.82c-1.13-.67.38-1.29,0-2,.31-.62.54-1.88,1.34-1.31,1.34,1,3.12,2,2.41,4.2C367,630.07,365.8,629.41,364.6,628.82Z" transform="translate(-244.29 -541.1)"/><path class="cls-25" d="M359.11,624c-1,.09-1.64-.31-1.73-1.22s.25-1.69,1.08-1.81a1.76,1.76,0,0,1,1.94,1.58C360.59,623.5,359.72,623.74,359.11,624Z" transform="translate(-244.29 -541.1)"/><path class="cls-26" d="M363.84,626.91c-1.34.43-2,2.12-3.74,1.85C360.64,626.71,361.19,624.67,363.84,626.91Z" transform="translate(-244.29 -541.1)"/><path class="cls-27" d="M364.6,628.82a5.31,5.31,0,0,1,3.79.94c.13.3.26.6.4.9C366.63,631.78,365.68,630.16,364.6,628.82Z" transform="translate(-244.29 -541.1)"/><path class="cls-28" d="M373.35,635.18a2.92,2.92,0,0,1-1.93-2.47c1.5-.37,2.18.66,2.87,1.68A1.3,1.3,0,0,1,373.35,635.18Z" transform="translate(-244.29 -541.1)"/><path class="cls-29" d="M373.35,635.18l.94-.79a4.29,4.29,0,0,0,.88.06c.23.74,1.66,1.49.55,2.18S374.15,635.71,373.35,635.18Z" transform="translate(-244.29 -541.1)"/><path class="cls-30" d="M265,567.44c.68-1,1.35,0,2,0a13,13,0,0,1,2.86-1.2c1.36.18,1.34,1.4,1.73,2.31v1.59c-.72,1.68.23,3.23.38,4.84-2.51.93.17,1.87,0,2.8a1.52,1.52,0,0,1-1,1.47c-1.57,0-3.38.87-4.49-1.09a9.6,9.6,0,0,0-.91-4.75c.58-1.66-.17-3-1.05-4.31A1.43,1.43,0,0,1,265,567.44Z" transform="translate(-244.29 -541.1)"/><path class="cls-31" d="M263,557.16a8.15,8.15,0,0,1,1.09-5.66,2.09,2.09,0,0,1,2.89-.16l2.74.16c.64.6,1.72.76,1.88,1.86-.3,1.87,4.54,3.77,0,5.61a3.51,3.51,0,0,1-1.07-.63c-1-.75-1.45-2.07-2.68-2.53-.93.13-1.16.84-1.32,1.61a4.32,4.32,0,0,1-.32,1.17c-.56.85-1,2-2.35,1.44C262.92,559.27,263.85,558,263,557.16Z" transform="translate(-244.29 -541.1)"/><path class="cls-20" d="M260.33,615.6a6.78,6.78,0,0,0,0-.9,4.47,4.47,0,0,1,3.75-1.9l.55.16a6.42,6.42,0,0,1,2.24,1.69l-2.85,7.52c-1.1.65-2,1.94-3.53,1.34-2.08-2.2,1-3.73.72-5.69C261.28,617,259.63,616.75,260.33,615.6Z" transform="translate(-244.29 -541.1)"/><path class="cls-32" d="M248.13,639.13c.32-.85,1.07-.84,1.78-.91l2.92,1c3.53,2.62-.12,3.85-1.08,5.6-2.85,1.64-.77,5.17-2.73,7.15,0-.46,0-.91-.05-1.37,0-.64,0-1.28.05-1.91a3.17,3.17,0,0,1-.84-3c1.3-1.72.06-2.7-1.08-3.7C247.53,641.07,250.26,641,248.13,639.13Z" transform="translate(-244.29 -541.1)"/><path class="cls-9" d="M262.88,608.77a10.53,10.53,0,0,1,5.91-9.23c1-.53,1.32.3,1.78.87l-.86,5.77c-1.58,1.33-3.9,1.29-5.32,2.93a1.16,1.16,0,0,1-1.18-.05Z" transform="translate(-244.29 -541.1)"/><path class="cls-33" d="M267,551.34l-2.89.16c.29-1.91.59-3.81.88-5.72,1.58-.88,3.16,1.71,4.73,0,1.42-.33,2.07,2.19,3.72,1,0,1.24.21,2.58-1.9,2C269.27,548.08,267.68,549,267,551.34Z" transform="translate(-244.29 -541.1)"/><path class="cls-34" d="M254.66,630.69c0-.28,0-.56,0-.85,3.06-.25,2.84-2.56,2.93-4.67a.74.74,0,0,1,.9-.35,4.38,4.38,0,0,1,.77.72,3.53,3.53,0,0,0,1.69,1l.39.33a14.42,14.42,0,0,1-4.8,7.55h0C255.91,633.2,254.81,632.18,254.66,630.69Z" transform="translate(-244.29 -541.1)"/><path class="cls-35" d="M265.85,593c.83-1.47-1.51-3.64,1-4.71a1.53,1.53,0,0,1,1.7-.39c1.27.7.61,2.64,2.06,3.22l0,1.93c-.91,1.15-.35,3.07-2,3.84C267.31,595.83,268.37,593.1,265.85,593Z" transform="translate(-244.29 -541.1)"/><path class="cls-36" d="M264,608.9c.7-3.5,3.12-3.33,5.75-2.72a4.4,4.4,0,0,1-1,3.72C266.86,610.9,265,611.82,264,608.9Z" transform="translate(-244.29 -541.1)"/><path class="cls-37" d="M258.52,626l-.11-1c-.28-1.54.38-2.14,1.88-1.89l3.77-.93c.39,2.33.27,4.36-2.73,4.73l-.1.06C260.53,626.05,259.23,626.89,258.52,626Z" transform="translate(-244.29 -541.1)"/><path class="cls-38" d="M268.75,588.25H266.9l0-1c-1.26-2.88,0-4.08,2.81-4.23,1.46.07,1.24,1.5,1.83,2.27l0,1.95A2.88,2.88,0,0,1,268.75,588.25Z" transform="translate(-244.29 -541.1)"/><path class="cls-39" d="M251.75,644.79c-.65-2.06,3.64-3.17,1.08-5.6l2.72-.09c1.09.67,2.49,1.14,1.94,2.91C254.46,640.62,254.14,644.86,251.75,644.79Z" transform="translate(-244.29 -541.1)"/><path class="cls-40" d="M264,608.9c1.36,1.41,3.16.73,4.76,1a5.15,5.15,0,0,1-1.6,3,2.38,2.38,0,0,1-3.07-.19l.07,0c-.3-1.25-.6-2.5-.91-3.74A1,1,0,0,1,264,608.9Z" transform="translate(-244.29 -541.1)"/><path class="cls-39" d="M271.61,558V559l.21,1.95a8.23,8.23,0,0,1-2.19,3.15,2.5,2.5,0,0,1-3-1,2.13,2.13,0,0,1-.05-2c2.07.34,1.28-1.62,1.93-2.42C269.4,557.72,270.37,557.22,271.61,558Z" transform="translate(-244.29 -541.1)"/><path class="cls-41" d="M268.63,596.84a5.6,5.6,0,0,1,2-3.84q0,3.71-.05,7.41l-1.78-.87A2.17,2.17,0,0,1,268.63,596.84Z" transform="translate(-244.29 -541.1)"/><path class="cls-42" d="M268.75,588.25c.67-1.11,1.78-.92,2.81-1l-.9,3.79C265.7,593.06,270.18,588.66,268.75,588.25Z" transform="translate(-244.29 -541.1)"/><path class="cls-43" d="M269.7,563.73c0-1.48.06-2.89,2.11-2.81,1.08,1.36,1.13,2.63-.33,3.76a1.57,1.57,0,0,1-1.16.44l-.61-.24A.87.87,0,0,1,269.7,563.73Z" transform="translate(-244.29 -541.1)"/><path class="cls-44" d="M257.49,642l-1.94-2.91c.37-1.05,1.81.39,2.08-.89h1.69c.54.83,1.33,1.57,1.11,2.73Z" transform="translate(-244.29 -541.1)"/><path class="cls-45" d="M271.71,574.94c-.59-1.59-2.16-3.17-.06-4.79a8,8,0,0,1,.75,4.76C272.18,575.46,272,575.44,271.71,574.94Z" transform="translate(-244.29 -541.1)"/><path class="cls-46" d="M271.52,585.33l-1.75-1.84a1.47,1.47,0,0,1-.53-1.64,2.51,2.51,0,0,1,1.19-1.37,1.28,1.28,0,0,1,1.15.2Z" transform="translate(-244.29 -541.1)"/><path class="cls-47" d="M269.67,564.74l1.82-.06c-.43,1.32,1.12,2.55.15,3.88L270,566.81A1.38,1.38,0,0,1,269.67,564.74Z" transform="translate(-244.29 -541.1)"/><path class="cls-48" d="M264.05,612.75l3.07.19c.14.6.82,1.26-.21,1.71C265.72,614.38,263.94,615,264.05,612.75Z" transform="translate(-244.29 -541.1)"/><path class="cls-49" d="M271.64,553.36a3,3,0,0,1-1.88-1.86C270.75,551.75,272.94,550.78,271.64,553.36Z" transform="translate(-244.29 -541.1)"/><path class="cls-35" d="M260.43,640.94c-.52-.85-1.26-1.61-1.11-2.73C260.07,639,263.48,638.63,260.43,640.94Z" transform="translate(-244.29 -541.1)"/><path class="cls-50" d="M271.71,574.94a2.66,2.66,0,0,0,.69,0c0,1,0,2,.07,3-.25.39-.52.42-.79,0C270.31,576.91,270.37,575.92,271.71,574.94Z" transform="translate(-244.29 -541.1)"/><path class="cls-48" d="M271.68,577.92a2.1,2.1,0,0,1,.79,0c.07,1,.34,2.15-.89,2.78-.27,0-.53,0-.8,0-.57-.57-.66-1.14,0-1.71Z" transform="translate(-244.29 -541.1)"/><path class="cls-37" d="M269.74,545.77c-1.57,3.93-3.15-.11-4.73,0,0-.77,0-.77,1.88-1.13Z" transform="translate(-244.29 -541.1)"/><path class="cls-33" d="M263,557.16c1.28.57.91,1.77,1,2.77a.59.59,0,0,1,.2.65c-.07.21-.15.31-.22.31H262.2Z" transform="translate(-244.29 -541.1)"/><path class="cls-51" d="M264.05,560.89l0-1,1.86-1.89a2.5,2.5,0,0,1,.88.8c.34.72.82,1.44.1,2.21l0,1.77c.49,1.73-1.18,1.22-1.82,1.77C263.62,563.65,264.19,562.18,264.05,560.89Z" transform="translate(-244.29 -541.1)"/><path class="cls-52" d="M269.67,564.74c.1.69.19,1.38.29,2.06-.45,2.57-1.68,1.62-2.91.65-.05-.62-.11-1.24-.17-1.86.63-1.28,1.5-1.82,2.85-.94Z" transform="translate(-244.29 -541.1)"/><path class="cls-37" d="M269.73,564.65l-2.85.94-1.82-1,1.82-1.77,2.82.91A7.07,7.07,0,0,1,269.73,564.65Z" transform="translate(-244.29 -541.1)"/><path class="cls-53" d="M265,567.44v1.93a.68.68,0,0,1-1,0l-.87,0C263.17,568.12,262.75,566.46,265,567.44Z" transform="translate(-244.29 -541.1)"/><path class="cls-37" d="M254.66,630.69c1.75.69,2,2.16,1.86,3.76-.79-1.52-3.48.73-3.73-1.88Z" transform="translate(-244.29 -541.1)"/><path class="cls-54" d="M269.71,581.63l.06,1.86c-1.86.58-3.34,1.46-2.89,3.8a5.6,5.6,0,0,1-1.88-4.71,4.59,4.59,0,0,1,2.88-1.52A2,2,0,0,1,269.71,581.63Z" transform="translate(-244.29 -541.1)"/><path class="cls-55" d="M267.84,581.65c-.69,1.11-1.81.89-2.84.93-1.09-.68-.89-1.79-.91-2.82.33-.46.46-1.08,1.07-1.3a1.66,1.66,0,0,1,1.11.22C267.13,579.49,268,580.32,267.84,581.65Z" transform="translate(-244.29 -541.1)"/><path class="cls-3" d="M265.06,578.76c-.32.33-.64.67-1,1l-1-1-.93-2.81v-1.91c1.46-.42,1.78.82,2.41,1.63C265,576.67,265.63,577.63,265.06,578.76Z" transform="translate(-244.29 -541.1)"/><path class="cls-56" d="M260.29,623.1,258.41,625c-.28,0-.55.11-.83.18l-.85-1,1.47-3a6.61,6.61,0,0,0,.25-.79c1.1-1.13,1.42-3.24,3.65-3C263.54,619.91,260,620.91,260.29,623.1Z" transform="translate(-244.29 -541.1)"/><path class="cls-57" d="M248.18,645.7c1.37.67.81,1.9.84,3-1.65.41-1.7-.83-1.92-1.88Z" transform="translate(-244.29 -541.1)"/><path class="cls-25" d="M264,569.4l1,0c2.43.73,3.56,1.79.92,3.77-1.35.56-2-.33-2.66-1.25-.06-.21-.11-.43-.16-.64Z" transform="translate(-244.29 -541.1)"/><path class="cls-13" d="M264,576l-1.83-1.92c0-1-.17-2.14.92-2.82l.08.06C263.91,572.8,265.78,574.07,264,576Z" transform="translate(-244.29 -541.1)"/><path class="cls-58" d="M262.1,617.34l-3.65,3c0-.63,0-1.27,0-1.91l1.9-2.82C260.62,616.49,262.63,615.62,262.1,617.34Z" transform="translate(-244.29 -541.1)"/><path class="cls-59" d="M264,576c-.27-1.56-.55-3.12-.83-4.68l2.74,1.83c2.66,1.09,2.11,2.84,1,4.72-.24.39-.38.89-1,1l-.88-.06C264.72,577.83,264.38,576.91,264,576Z" transform="translate(-244.29 -541.1)"/><path class="cls-60" d="M265.94,578.82l1-1c.93,1.65,2.88-.36,3.87,1.08v1.71l-1.06,1-1.87,0C267.21,580.71,266.58,579.76,265.94,578.82Z" transform="translate(-244.29 -541.1)"/><path class="cls-61" d="M266,559.05c0-.33,0-.67-.05-1s0-.61,0-.92c.77-.85,1-2,1.89-2.84,2.38.12,2,3.05,3.78,3.75l-2.79,1A4.14,4.14,0,0,1,266,559.05Z" transform="translate(-244.29 -541.1)"/><path class="cls-62" d="M267.83,554.28c0,1.39,0,2.75-1.89,2.84C265.08,555.18,266.26,554.59,267.83,554.28Z" transform="translate(-244.29 -541.1)"/><path class="cls-63" d="M258.52,626c.93.23,2.59-1.63,2.71.94C260.11,627.27,258.59,628.74,258.52,626Z" transform="translate(-244.29 -541.1)"/><path class="cls-64" d="M266,559.05c.94-.29,1.87-1.54,2.84,0-.08,1.2.37,2.91-1.91,2Z" transform="translate(-244.29 -541.1)"/></svg>