<svg id="Layer_1" data-name="Layer 1" xmlns="http://www.w3.org/2000/svg" viewBox="0 0 167.67 209.55"><defs><style>.cls-1{fill:#010101;}.cls-2{fill:#353535;}.cls-3{fill:#4b4b4b;}.cls-4{fill:#272828;}.cls-5{fill:#bdbdbc;}.cls-6{fill:#2e2c2c;}.cls-7{fill:#838282;}.cls-8{fill:#737373;}.cls-9{fill:#1a1a1a;}.cls-10{fill:#383737;}.cls-11{fill:#535353;}.cls-12{fill:#515050;}.cls-13{fill:#4d4d4d;}.cls-14{fill:#4e4e4e;}.cls-15{fill:#919091;}.cls-16{fill:#d4d2d2;}.cls-17{fill:#535151;}.cls-18{fill:#767575;}.cls-19{fill:#434343;}.cls-20{fill:#5f5d5d;}.cls-21{fill:#3b3a3a;}.cls-22{fill:#929191;}.cls-23{fill:#131212;}.cls-24{fill:#6c6c6c;}.cls-25{fill:#696969;}.cls-26{fill:#949494;}.cls-27{fill:#6f6f6f;}.cls-28{fill:#b0b1b1;}.cls-29{fill:#393636;}.cls-30{fill:#acacad;}.cls-31{fill:#c3c2c2;}.cls-32{fill:#404040;}.cls-33{fill:#b7b7b7;}.cls-34{fill:#383837;}.cls-35{fill:#807f7f;}.cls-36{fill:#e6e5e5;}.cls-37{fill:#616060;}.cls-38{fill:#5a5a5a;}.cls-39{fill:#9c9b9b;}.cls-40{fill:#767676;}.cls-41{fill:#313130;}.cls-42{fill:#303030;}.cls-43{fill:#5b5b5b;}.cls-44{fill:#5b5b5c;}.cls-45{fill:#616161;}.cls-46{fill:#d0cfce;}.cls-47{fill:#252525;}.cls-48{fill:#878686;}.cls-49{fill:#40403f;}.cls-50{fill:#8b8b8b;}.cls-51{fill:#bcbbbb;}.cls-52{fill:#757575;}.cls-53{fill:#5f5f5f;}.cls-54{fill:#848484;}.cls-55{fill:#8e8e8e;}.cls-56{fill:#424242;}.cls-57{fill:#4f4e4e;}.cls-58{fill:#9d9c9c;}.cls-59{fill:#484848;}.cls-60{fill:#fafbfc;}.cls-61{fill:#646465;}.cls-62{fill:#464646;}.cls-63{fill:#a1a1a1;}.cls-64{fill:#4c4c4c;}.cls-65{fill:#b6b6b6;}.cls-66{fill:#6a6b6b;}.cls-67{fill:#828282;}.cls-68{fill:#b6b5b5;}.cls-69{fill:#3c3c3c;}.cls-70{fill:#555656;}.cls-71{fill:#9f9f9f;}.cls-72{fill:#282828;}.cls-73{fill:#666;}.cls-74{fill:#a3a3a3;}.cls-75{fill:#d9dada;}.cls-76{fill:#c7c6c5;}.cls-77{fill:#c1c1c0;}.cls-78{fill:#969696;}.cls-79{fill:#a4a3a3;}.cls-80{fill:#a0a0a0;}.cls-81{fill:#464444;}.cls-82{fill:#e5e4e4;}.cls-83{fill:#a2a2a2;}.cls-84{fill:#c6c6c5;}.cls-85{fill:#b4b4b4;}.cls-86{fill:#202020;}.cls-87{fill:#7b7b7b;}.cls-88{fill:#7c7c7c;}.cls-89{fill:#8d8c8c;}.cls-90{fill:#686969;}.cls-91{fill:#686868;}.cls-92{fill:#b9b9b9;}.cls-93{fill:#414141;}.cls-94{fill:#bcbcbc;}.cls-95{fill:#525252;}.cls-96{fill:#878787;}.cls-97{fill:#797878;}.cls-98{fill:#6a6a6a;}.cls-99{fill:#212121;}.cls-100{fill:#747475;}</style></defs><path class="cls-1" d="M387.46,307c-2.29-3.89-5.26-6.42-10.21-5.47-1.42.28-2.73-.6-3.88-1.43-2.93-2.09-6.1-4-8.67-6.44-3.9-3.76-8.17-6.17-13.7-6.1-2.44,0-3.94-1.49-5.28-3.39-1.85-2.63-3.23-2.73-5.29.37C332.37,296.59,326.61,310,318.52,322c-13.58,20.21-27,40.49-40.65,60.68-5.12,7.61-5.41,7.54-12,.84.86-1.45,2.45-2.18,3.42-3.52,1.71-2.21,2.57-4.95,4.43-7.06a10.28,10.28,0,0,0,1.93-3.1,9.11,9.11,0,0,1,1.93-2.47c3-3.8,4.51-8.45,7.35-12.31.9-1.38,2.1-2.52,3-3.9a18.33,18.33,0,0,0,1.76-3.85,20.62,20.62,0,0,1,2.75-4.15c1.52-2.68,3.62-5,4.87-7.86.72-1.26,1.28-2.61,2.05-3.85A31.61,31.61,0,0,0,303,325.7a6.63,6.63,0,0,1,1.05-1.57c3.1-2.57,2.94-7,5.64-9.81,2.39-2.45,3.73-5.59,5.51-8.43.8-1.5,1.55-3,2.23-4.57,1.15-1.3,1.43-3.06,2.35-4.49l-.08,0c.74-1.11,1.9-1.89,2.34-3.21.5-1.55,2-2.36,2.71-3.74,1-.94.28-1.3-.56-1.62l4.13-7.05c-2.48-.69-3.79.79-5,2.05-10.57,11.42-25,17.84-36.35,28.24-.45.41-1.15,1-1.61.88-9.37-1.88-18.44,3.35-27.81,1.15a3.1,3.1,0,0,1,.95-3.37l-.13-.3c.51-.38,1-.81,1.52-1.15,2.83-2.47,5.33-5.09,5.35-9.25a5.46,5.46,0,0,1,1.51-3.79,1.54,1.54,0,0,1,1.26,0c.46,1.26,1.45,2.3,1.29,3.19.38,1.13.93.25.4.59-.75-1.46-1.12-3.06-1.8-4.55a6.61,6.61,0,0,1-.22-2.08c.12-2.13,1-3.67,3.28-4a4.3,4.3,0,0,1,2.84,1.63,7.65,7.65,0,0,1,1.29,2c.44,1,.93.38,1.41,0,1-.58,2.14-.91,3.19-1.43,2.76-1,4.36-3.21,5.73-5.64,1.24-1.32,3.42,1.73,4.36-1,.59-.83,1.3-1.57,1.85-2.43.84-2.11,2.46-3.67,3.8-5.43a12.31,12.31,0,0,0,1.66-5.14,23.51,23.51,0,0,1,1.57-3.42,4.08,4.08,0,0,1,1-1.55c2.8.78.36-1.39,1-1.81a15.87,15.87,0,0,1,.56-3.62c.2-.95-.15-2,.47-2.87,3.49-2.16,6.8-4.42,7.63-8.93a2.06,2.06,0,0,1,2.51-1.6c1.87-.51,1.66.9,1.84,2a10.55,10.55,0,0,1-.87,2.31c-.18,1.33-.16,2.75-1.39,3.68-.71.53-1.65.7-2.22,1.45-.22.91.57,1.32.93,1.94.45,1.34-.62,1.78-1.41,2.39a8,8,0,0,1-1,.53c-.94.46-1.33,1-.19,1.68,1.64-1.78,3.6-.78,5.46-.7,2.57.87,4.3-.11,5.39-2.47A6.19,6.19,0,0,0,319.6,256a5.14,5.14,0,0,1,3.52-5.32c.82-1.69.74-4.42,3.89-3.45a5.71,5.71,0,0,0,1.78-.37,14.61,14.61,0,0,1,2.12-.3c-.05,0,.09-.31.09-.31a1.44,1.44,0,0,0-.33-.09,4.51,4.51,0,0,0-.93.2c-1.11.37-2.13,1-3.36.71-1.38-.73-3.95.57-4-2.38,4.69-.88,8.83-4.31,14.24-1.95,3.22,1.41,4.91-2.68,7.26-4.16,5.78-3.65,5.58-4.18-.54-7.6-2.46-1.37-5-2.64-7.5-3.89-3.35-1.67-4.85-4.45-3-7.68s4.67-1.94,7.29-.35a64.72,64.72,0,0,0,11.29,5.65c5.53,2,10.6,2.32,14.2-3.49,3.87-2.26,5-6.77,8.08-9.72,2.14-1.57.72-3.51.53-5.32.64-1.06,1-2.57,2-3.12,6.48-3.79,9-10.68,12.78-16.49,1.9-2.95,4.33-4.8,6.81-6.85a2.35,2.35,0,0,1,3-.38,2.56,2.56,0,0,1,.73,3.38c-1.15,2.36-1.95,4.87-3.55,7-2,2.69-4.76,5.14-3.95,9.11.08.39-.17,1.16-.45,1.26-6.84,2.47-4.87,10.65-9.66,14.71a58.79,58.79,0,0,0-11.67,14.1c-1.57,2.54-1.55,3.82,1.2,5.49a103.83,103.83,0,0,1,15.1,11.19c2,1.77,3.33,3.74,1.45,6-1.75,2.13-4.1,1.83-6.25.1a42.48,42.48,0,0,0-11-6.46c-.1,3.85-.4,7.46-2.92,10.34-1.37,1.57-.09,2.3.91,2.89,8.84,5.22,17,11.39,28.21,11.82,8.56.33,15.16,5.91,19.92,12.82,6.76,9.83,7.08,21.35,7.31,32.76,0,1.75-.8,3.33-2.59,3.33-4.62,0-9.45,1.17-13.74-1.45-3.35-2-7.24-2.43-10.83-3.71-2.14-.77-5.74-.22-5.41,4.33-2.45-1.05-3.58-3.15-5.19-4.68C386,311.35,388.66,309.49,387.46,307Z" transform="translate(-256.43 -178.91)"/><path class="cls-2" d="M301.76,258.09l.85,2.9a17,17,0,0,1-1.66.81,7,7,0,0,0-3.49,2.27,3.51,3.51,0,0,1-2.2,1.11c-.72.22-1.47-1.5-2.17,0-2.08,1-4.21,1.8-6.21,2.93-4.19,1.58-7.13,5.43-11.62,6.46a1.47,1.47,0,0,1-1-.74c-.07-2.16,1.86-2.7,3.11-3.68C284.66,264.46,293.17,261.18,301.76,258.09Z" transform="translate(-256.43 -178.91)"/><path class="cls-3" d="M285.91,355.3l-7.7,13c-1.16-.57-2.51-1-1.88-2.77l7.49-12.28C285.56,352.87,285.56,354.26,285.91,355.3Z" transform="translate(-256.43 -178.91)"/><path class="cls-4" d="M324.45,251.45c-2.7.8-3.89,2.58-3.84,5.42,0,1.54.65,3.57-1.82,4.09a3.22,3.22,0,0,1-.41-2.51c.38-2.75-.34-4.87-3.18-5.92a2.83,2.83,0,0,1-2.17-2.18c0-1.09.08-2.19-1.13-2.79,2.26-2.64,4.5.51,6.76,0a2.21,2.21,0,0,1,1.36.84c.23.27.46.55.7.8.8.56,1.8.42,2.65.8A2.13,2.13,0,0,1,324.45,251.45Z" transform="translate(-256.43 -178.91)"/><path class="cls-5" d="M259.4,300.9v-.14c-1-2.33-.27-4.77-.46-7.15.59-2.8.76-5.72,2.16-8.31a2,2,0,0,1,2.18-.09c1.67,4,0,7.77-.77,11.6-.42,1.18-1.93,2.46.33,3.41.4,2.11-.43,4.09-.65,6.13-.29,1-.59,2-1.94,1.86a4.23,4.23,0,0,1-1.68-2.64A6.54,6.54,0,0,1,259.4,300.9Z" transform="translate(-256.43 -178.91)"/><path class="cls-6" d="M374.25,211.71c-2.55,3.47-3.47,8.42-8.65,9.48q3.82-6.57,7.66-13.15C375.82,208.66,375.1,210.17,374.25,211.71Z" transform="translate(-256.43 -178.91)"/><path class="cls-7" d="M310.35,314.82c-2.25,3.18-2.37,7.6-5.83,10.07-1-.89-.09-1.81,0-2.72.76-3.28,2-6.31,4.69-8.52C310.19,313.41,310.57,313.81,310.35,314.82Z" transform="translate(-256.43 -178.91)"/><path class="cls-8" d="M310.35,314.82l-1.18-1.17a19.43,19.43,0,0,1,3.74-6.57c.86-.65,1.15-2,2.44-2.12a1.07,1.07,0,0,1,.73,1.55C314.19,309.3,313.12,312.65,310.35,314.82Z" transform="translate(-256.43 -178.91)"/><path class="cls-9" d="M319.6,248.61l-.94-1c1.07-1.19,1.82-2.79,3.72-2.92,1.12,1.73,3.38.81,4.71,2.05.35.14.49.33.43.55s-.15.37-.25.37c-3.77-.83-1.63,2.73-2.83,3.82l-1-.91c-.39-.38-.74-.79-1.15-1.16C321.45,248.86,320.37,249.28,319.6,248.61Z" transform="translate(-256.43 -178.91)"/><path class="cls-10" d="M288.42,345.49a46.92,46.92,0,0,1,7.4-12.1,1,1,0,0,1,1.18-.14c.66.89.13,1.67-.22,2.47-1.07,2.09-2.47,4-3.62,6-1.2,1.82-2.05,3.91-4,5.18C288.51,346.67,287.93,346.36,288.42,345.49Z" transform="translate(-256.43 -178.91)"/><path class="cls-11" d="M285.91,355.3l-2.09-2a7,7,0,0,1,1.9-3.76c1.53-.25,3-.37,2.85,1.89C288.34,353.16,286.82,354,285.91,355.3Z" transform="translate(-256.43 -178.91)"/><path class="cls-12" d="M269.76,380.66c-.88,1.55-2,2.8-3.93,2.85-1.86-3,1.92-3.55,2.38-5.55.4-.65,1-.59,1.55-.31A4.84,4.84,0,0,1,269.76,380.66Z" transform="translate(-256.43 -178.91)"/><path class="cls-13" d="M276.28,370.29a2.73,2.73,0,0,1-1.8,2.87c-1.09.5-1.92,1.72-3.36,1.28l-.49-.4c0-2.16,2.12-3,2.95-4.69C274.76,368.85,275.58,369.41,276.28,370.29Z" transform="translate(-256.43 -178.91)"/><path class="cls-14" d="M288.57,351.41l-2.85-1.89c.91-1.34,1.18-3.11,2.7-4l.91,1.17c.72,0,.87.68,1.21,1.12A5.67,5.67,0,0,1,288.57,351.41Z" transform="translate(-256.43 -178.91)"/><path class="cls-15" d="M303.62,326A10.61,10.61,0,0,1,300,331.8a1.09,1.09,0,0,1-1.19,0,.84.84,0,0,1,.1-1.13c-.19-2.85,2.72-3.59,3.79-5.59A1.61,1.61,0,0,1,303.62,326Z" transform="translate(-256.43 -178.91)"/><path class="cls-16" d="M387.46,307c1.28,2.52,1.7,4.89-1.12,6.72C384.07,311,386,309.05,387.46,307Z" transform="translate(-256.43 -178.91)"/><path class="cls-17" d="M264.62,282.54c.46-2.34,2.46-3.36,4.05-4.73.95-.59,1.52,0,2.08.66a2.33,2.33,0,0,1,.26,1.19,4.6,4.6,0,0,1-1.42,2,6.26,6.26,0,0,1-1,.71,6.64,6.64,0,0,1-2.32.86A1.87,1.87,0,0,1,264.62,282.54Z" transform="translate(-256.43 -178.91)"/><path class="cls-18" d="M259.4,300.9l.13,5.3c.41,1.12.47,2-1.15,2C257.23,305.55,256.79,303,259.4,300.9Z" transform="translate(-256.43 -178.91)"/><path class="cls-19" d="M276.28,370.29l-2.7-.94,2.75-3.79,1.88,2.77Z" transform="translate(-256.43 -178.91)"/><path class="cls-20" d="M374.25,211.71c0-1.3,0-2.63-1-3.67a1.73,1.73,0,0,1,.95-1.89C376.63,208,377.2,209.84,374.25,211.71Z" transform="translate(-256.43 -178.91)"/><path class="cls-21" d="M261.26,285.35c-.6,2.58-.34,5.35-1.79,7.73-1-.78-.27-2-.7-2.88,1.36-1.75-1-5.05,2.45-5.93a.7.7,0,0,1,.26.71C261.41,285.23,261.34,285.35,261.26,285.35Z" transform="translate(-256.43 -178.91)"/><path class="cls-2" d="M270.79,278.89l-2.12-1.08c1.31-2.11,2.95-3.75,5.6-3.95l.18.22c.57.88,0,1.53-.43,2.22a11.51,11.51,0,0,1-2.65,2.42Z" transform="translate(-256.43 -178.91)"/><path class="cls-22" d="M325.76,290.12a6.69,6.69,0,0,1-3.69,3.85.76.76,0,0,1-1-.19,8.5,8.5,0,0,1,2.31-4.6A1.83,1.83,0,0,1,325.76,290.12Z" transform="translate(-256.43 -178.91)"/><path class="cls-23" d="M258.77,290.2l.7,2.88-.06,7.68C257.45,297.35,258.64,293.74,258.77,290.2Z" transform="translate(-256.43 -178.91)"/><path class="cls-24" d="M316.08,306.51l-.93-1.28c-1-1.29.45-2,.7-3l.76-1a.47.47,0,0,1,.81,0C318.07,303.29,317.31,305,316.08,306.51Z" transform="translate(-256.43 -178.91)"/><path class="cls-25" d="M325.76,290.12l-2.37-.94a.76.76,0,0,1,.79-1c1.12,0,1.54-2.48,2.74-1.11C327.72,288,326.71,289.31,325.76,290.12Z" transform="translate(-256.43 -178.91)"/><path class="cls-26" d="M317.42,301.26h-.81c.31-2,1.84-3.14,3.16-4.42C320,298.84,319.86,300.66,317.42,301.26Z" transform="translate(-256.43 -178.91)"/><path class="cls-22" d="M264.62,282.54l2.22-.14a2.13,2.13,0,0,1,.66,2.1c-1.12,2.09-2.37,1.56-3.66.18a1.29,1.29,0,0,1,.26-1.43C263.78,282.65,263.9,282.38,264.62,282.54Z" transform="translate(-256.43 -178.91)"/><path class="cls-27" d="M269.63,377.72l-1.42.24c-.72-2.25,1-3,2.42-3.92l.43.08A2.76,2.76,0,0,1,269.63,377.72Z" transform="translate(-256.43 -178.91)"/><path class="cls-28" d="M321.08,293.78l1,.19c.44,2-.3,3-2.38,2.82C319.7,295.57,319.48,294.26,321.08,293.78Z" transform="translate(-256.43 -178.91)"/><path class="cls-1" d="M315.85,302.23c-.23,1-.47,2-.7,3l-2.24,1.85A8.43,8.43,0,0,1,315.85,302.23Z" transform="translate(-256.43 -178.91)"/><path class="cls-29" d="M258.53,310.12c.32,1.31-.36,2.33-.95,3.37-1.5-.63-1.18-2-.94-3.05C256.84,309.62,257.82,309.85,258.53,310.12Z" transform="translate(-256.43 -178.91)"/><path class="cls-30" d="M303.62,326l-.91-.88a2.72,2.72,0,0,1,1.77-2.9c1.33.89-.41,1.82,0,2.72Z" transform="translate(-256.43 -178.91)"/><path class="cls-31" d="M258.38,308.19c.38-.67.77-1.33,1.15-2,.3.68.6,1.37.91,2.05s.51,1.14-.31,1.48l-1.73.09Z" transform="translate(-256.43 -178.91)"/><path class="cls-32" d="M264.1,283.25l-.13,1.07a1.16,1.16,0,0,1-.89.87l-1.82.16,0-1.08C261.82,282.92,262.9,282.9,264.1,283.25Z" transform="translate(-256.43 -178.91)"/><path class="cls-2" d="M298.92,330.66a1.14,1.14,0,0,0,.11.87c.32,1.8-1,1.83-2.15,2l-1.06-.1C296.1,331.62,297,330.53,298.92,330.66Z" transform="translate(-256.43 -178.91)"/><path class="cls-33" d="M273.36,291.16l-1.82-1.67c-.7-.82-1.91-1.09-2.33-2.21a8.42,8.42,0,0,1-.6-2.53c-.07-1.05-.46-2.12.18-3.13h0c1.3-.55,2.41-2.44,4.05-.6.13,1.13.6,1.61,1.84,1.14a3.74,3.74,0,0,1,3.61.16,2.48,2.48,0,0,1-.18,3,3.58,3.58,0,0,1-1.64,1.54c-2.34.72.52.93.12,1.42a1.81,1.81,0,0,1-.18,1.21C275.57,290.37,275,291.72,273.36,291.16Z" transform="translate(-256.43 -178.91)"/><path class="cls-34" d="M319.57,258.84l-.78,2.12c-.59,3.77-2.61,4.49-5.79,2.72a.9.9,0,0,1-.07-1.09c.47-.86,2.32-.52,1.87-2.16-.73-.82-1.77-.79-2.68-1.05a31.91,31.91,0,0,1-3.38-2.41,2.25,2.25,0,0,1-.62-1c.88-1.1,2.1-.73,3.22-.76a4,4,0,0,1,5,1.11C317.36,257.24,318.61,257.85,319.57,258.84Z" transform="translate(-256.43 -178.91)"/><path class="cls-3" d="M343.15,245.77a18.73,18.73,0,0,0-5,.53c2.51-3,6.31-4.25,8.67-7.23,1.05.34,2.09-.5,3.14,0a2.33,2.33,0,0,1,.52,1.84,3.14,3.14,0,0,1-.64,1.14l-1.07.81C347.19,244.44,344.81,244.42,343.15,245.77Z" transform="translate(-256.43 -178.91)"/><path class="cls-35" d="M285.84,285.43c-.11,3.79-2.68,5.36-5.78,6.45a2.49,2.49,0,0,1-.81-1.66,15.78,15.78,0,0,1,.63-3.62c.08-.59.17-1.19.28-1.78a4.51,4.51,0,0,1,.39-1.12l.38-.46a3.07,3.07,0,0,1,1.09-.45,3.7,3.7,0,0,1,1.71.2,4.75,4.75,0,0,1,1.36,1A2.61,2.61,0,0,1,285.84,285.43Z" transform="translate(-256.43 -178.91)"/><path class="cls-36" d="M319.57,258.84c-1.61.26-2.33-1.18-3.48-1.81-.91-2.5-3.44-3.6-4.89-5.63.12-1.22,1.18-.77,1.83-1.05C316.76,252,321.39,252.92,319.57,258.84Z" transform="translate(-256.43 -178.91)"/><path class="cls-37" d="M260.13,309.73c.1-.49.2-1,.31-1.48l.78-2.11c.57-2.42,2.22-4.55,1.95-7.21a5.23,5.23,0,0,1,.38-1.28,4.57,4.57,0,0,1,2.46-2.2,1.15,1.15,0,0,1,1.1.58C266.33,301.39,265.58,306.76,260.13,309.73Z" transform="translate(-256.43 -178.91)"/><path class="cls-38" d="M296.06,276.92l-3.7,5.69c-.9-.4-1.44-1.25-2.22-1.81a5.43,5.43,0,0,1-.82-.84,2.07,2.07,0,0,1-.16-1.15,6.72,6.72,0,0,1,.86-1.58,5.11,5.11,0,0,1,1.65-1.81,4.1,4.1,0,0,1,2.54-.23A2.4,2.4,0,0,1,296.06,276.92Z" transform="translate(-256.43 -178.91)"/><path class="cls-39" d="M280.13,290.13l-.07,1.75-3.71,1.1a1.11,1.11,0,0,1-1.8-.2l-1.19-1.62c1.05-.57,1.43-2.15,3-2C277.78,288.75,279.2,288.5,280.13,290.13Z" transform="translate(-256.43 -178.91)"/><path class="cls-40" d="M292.59,341.19l3.46-5.85a1.45,1.45,0,0,1,2,.05c-.75,3.27-3.08,5.62-4.83,8.31C292.28,343.05,292.8,342,292.59,341.19Z" transform="translate(-256.43 -178.91)"/><path class="cls-41" d="M296.06,276.92l-1.81-1c-1.63-2.49-.31-4.21,1.52-5.79,1.23-.4,1.83.33,2.29,1.3C298.14,273.56,297.83,275.51,296.06,276.92Z" transform="translate(-256.43 -178.91)"/><path class="cls-42" d="M269.63,377.72l1.43-3.6,3.42-1c-1.72,2.41-2.33,5.52-4.72,7.5A2.9,2.9,0,0,1,269.63,377.72Z" transform="translate(-256.43 -178.91)"/><path class="cls-43" d="M349.79,241.23l-.06-2c0-.65-.81-.56-1-1.05.94-1.24,1.8-2.59,3.56-2.76l.58.11a7.68,7.68,0,0,1,1.48,1.88c.36.77.7,1.54-.1,2.25C352.65,239.86,351.78,242.16,349.79,241.23Z" transform="translate(-256.43 -178.91)"/><path class="cls-44" d="M354.46,239.11c-.31-.57-.62-1.14-.94-1.71a3.67,3.67,0,0,1,1.75-3.31,2,2,0,0,1,1.85.24c-.45,1.52,2.64,2,1.09,3.87C357,238.75,356.1,240.39,354.46,239.11Z" transform="translate(-256.43 -178.91)"/><path class="cls-18" d="M285.84,285.43l-1-.87a3.22,3.22,0,0,1,2-1.66,3.78,3.78,0,0,1,2.63.1,2.25,2.25,0,0,1,1.2,1.55C289.59,287.79,288.09,288.65,285.84,285.43Z" transform="translate(-256.43 -178.91)"/><path class="cls-45" d="M311.2,251.4c1.9,1.64,5.54,1.77,4.89,5.63l-4.75-1.8C312.22,253.92,311.66,252.66,311.2,251.4Z" transform="translate(-256.43 -178.91)"/><path class="cls-46" d="M313,262.77l0,.91a7.74,7.74,0,0,1-5.23-1.06c0,.4-.16.69-.26.61-.93-.77-.81-1.51.13-2.19a1.14,1.14,0,0,0,.67-.34,6.5,6.5,0,0,1,2.62-.35A3,3,0,0,1,313,262.77Z" transform="translate(-256.43 -178.91)"/><path class="cls-47" d="M354.46,239.11l3.75-.91c-2,3-5.29,3.26-8.41,3.84,0-.27,0-.54,0-.81C351.55,241,352.36,238.6,354.46,239.11Z" transform="translate(-256.43 -178.91)"/><path class="cls-47" d="M343.15,245.77c1.27-2.1,3.33-2.69,5.58-2.92l1,3.59c-.58.94-1.23.89-1.92.13C346.79,243.31,344.58,246.87,343.15,245.77Z" transform="translate(-256.43 -178.91)"/><path class="cls-48" d="M292.59,341.19c.88.66.58,1.63.65,2.51l-2.7,4.08-1.21-1.12Z" transform="translate(-256.43 -178.91)"/><path class="cls-49" d="M311,261.08l-2.71-.38,1.6-1.47a1,1,0,0,1,.66-.76,1.66,1.66,0,0,1,1.46.5,2.74,2.74,0,0,1,3.89,1.12C314.84,263.16,312.66,260.74,311,261.08Z" transform="translate(-256.43 -178.91)"/><path class="cls-50" d="M267.11,296l-1-.18c-1.92-2.72-1.11-4.93,1.26-6.86,2,.75.22,2.89,1.42,3.93l.06,1.91c-.39.33-.48.93-1,1.12C267.58,296,267.34,296,267.11,296Z" transform="translate(-256.43 -178.91)"/><path class="cls-51" d="M268.77,292.92c-1.37-1.05-.59-2.58-.88-3.88-.68-2,.06-2.49,1.91-1.76a2.73,2.73,0,0,1,1.74,2.21C270,290.1,268.16,290.53,268.77,292.92Z" transform="translate(-256.43 -178.91)"/><path class="cls-52" d="M290.66,284.55l-1.24-1.28a3.92,3.92,0,0,1,.32-2.67,4.39,4.39,0,0,1,.71-.84,2.83,2.83,0,0,1,1.91,2.85C291.8,283.26,291.23,283.9,290.66,284.55Z" transform="translate(-256.43 -178.91)"/><path class="cls-53" d="M298.07,335.39l-2-.05c.28-.62.56-1.23.83-1.85l2.15-2,1,.27A6.22,6.22,0,0,1,298.07,335.39Z" transform="translate(-256.43 -178.91)"/><path class="cls-54" d="M300.91,261.19l1.7-.2c-.32,1.19-.63,2.38-.95,3.56a1.91,1.91,0,0,1-2.41.57,1.51,1.51,0,0,1-.71-1.07A3.09,3.09,0,0,1,300.91,261.19Z" transform="translate(-256.43 -178.91)"/><path class="cls-55" d="M343.71,270.82c.28,1.68.89,3.41-.41,5.4C341.16,273.82,343.45,272.44,343.71,270.82Z" transform="translate(-256.43 -178.91)"/><path class="cls-56" d="M348.6,269.33c2,1.56,1,3.61.6,5.6q-.57-2.88-1.12-5.76Z" transform="translate(-256.43 -178.91)"/><path class="cls-57" d="M307.64,261c0,.53.09,1,.13,1.58-.22,1.05-.73,1.7-1.87,1.13-.7-.34-1.53-1.19-1-1.71S306.69,261.35,307.64,261Z" transform="translate(-256.43 -178.91)"/><path class="cls-58" d="M357.12,234.33l-1.69.17c-.79.1-1.34.9-2.22.72l-.92.21C353.32,232.49,354.74,231.31,357.12,234.33Z" transform="translate(-256.43 -178.91)"/><path class="cls-59" d="M299,264.73l2.67-.18c-.1,1.06.9,3-1.68,2a.92.92,0,0,1-1.22.05A1.48,1.48,0,0,1,299,264.73Z" transform="translate(-256.43 -178.91)"/><path class="cls-60" d="M330,244.94l.88-.06c.75.74,2.29.94,1.79,2.56-1.19.21-2.37.64-3.58.1C328.61,246.38,329.48,245.72,330,244.94Z" transform="translate(-256.43 -178.91)"/><path class="cls-18" d="M267.81,296l1-1.12c0,1.64,1.7,3.08.42,5.14Z" transform="translate(-256.43 -178.91)"/><path class="cls-61" d="M298.06,271.47l-2-1.25a1.73,1.73,0,0,1-.44-1.12,1.57,1.57,0,0,1,.67-1c1.21-.31,2.43-.72,3.5.36Z" transform="translate(-256.43 -178.91)"/><path class="cls-62" d="M347,249.62c-1.44,1.39-3.17.76-4.88.75.1-1.27,1.17-1.36,1.91-1.81C344.83,249.35,346.28,248.39,347,249.62Z" transform="translate(-256.43 -178.91)"/><path class="cls-63" d="M347,249.62c-1-.42-2.45.62-3-1.06l2.14-.86c1.05-.61,1.87-.77,1.74.9Z" transform="translate(-256.43 -178.91)"/><path class="cls-64" d="M299.81,268.45c-1.15-.18-2.36,1.12-3.47-.13a.78.78,0,0,1-.35-1,2.49,2.49,0,0,1,2.79-.81l1.2.07C299.92,267.2,299.87,267.83,299.81,268.45Z" transform="translate(-256.43 -178.91)"/><path class="cls-65" d="M347.87,248.6a1.37,1.37,0,0,0-1.74-.9c.13-1,1.2-.67,1.73-1.13l1.92-.13C350.87,248.69,348.54,247.91,347.87,248.6Z" transform="translate(-256.43 -178.91)"/><path class="cls-66" d="M348.73,238.19c.36.33,1.88-.45,1,1.05-1,.23-2.06,1.51-3-.17C347.2,238.27,348,238.23,348.73,238.19Z" transform="translate(-256.43 -178.91)"/><path class="cls-67" d="M348.6,269.33a1.43,1.43,0,0,0-.52-.16c-.18-1-.36-2-.56-3.17C349.56,266.72,348.49,268.2,348.6,269.33Z" transform="translate(-256.43 -178.91)"/><path class="cls-68" d="M330,244.94c-.3.87-.61,1.73-.91,2.6l-1.85.09a2.43,2.43,0,0,1-.18-.92Z" transform="translate(-256.43 -178.91)"/><path class="cls-69" d="M274.55,292.78l1.8.2c-.3.69.58,2.11-.82,2C274.55,295,274.47,293.73,274.55,292.78Z" transform="translate(-256.43 -178.91)"/><path class="cls-34" d="M309.91,259.23c-2-.3-3.49-.88-1.78-3.24l.3.26c.53.95,2.26,1.06,1.86,2.67A3.68,3.68,0,0,0,309.91,259.23Z" transform="translate(-256.43 -178.91)"/><path class="cls-68" d="M332.7,247.44l-1.79-2.56C332.19,245.25,334.7,244.77,332.7,247.44Z" transform="translate(-256.43 -178.91)"/><path class="cls-45" d="M273.46,276l1-1.87c4.64-1.23,7.55-5.61,12.24-6.73a2.52,2.52,0,0,1,.7,1.16,2.85,2.85,0,0,1-.44,1.95c-2.07,1.56-4.74,2.31-6.25,4.65a7.09,7.09,0,0,1-7.11,2.08A.81.81,0,0,1,273.46,276Z" transform="translate(-256.43 -178.91)"/><path class="cls-70" d="M286.69,268.42v-1.07c1.9-1.38,3.77-2.82,6.33-2.53.81,1.67-.58,2.29-1.48,3.14a6.3,6.3,0,0,1-1.18.54C289.13,268.78,287.89,269.53,286.69,268.42Z" transform="translate(-256.43 -178.91)"/><path class="cls-71" d="M298.78,266.5l-2.59,1.23a2.14,2.14,0,0,1-1.47-1.26,1.57,1.57,0,0,1,.49-1.8l1.73-1.13a1.47,1.47,0,0,1,1.95.24c0,.31.06.63.1,1Z" transform="translate(-256.43 -178.91)"/><path class="cls-72" d="M295.21,264.67l-.15,1.84a4.49,4.49,0,0,1-1.4,2,1.87,1.87,0,0,1-1.15.29,1.68,1.68,0,0,1-1.15-1.3l1.67-2.64C293.68,263.71,294.47,264.46,295.21,264.67Z" transform="translate(-256.43 -178.91)"/><path class="cls-73" d="M298.89,263.78l-1.95-.24c.48-2.22,2.15-2.4,4-2.35C300.23,262.05,299.56,262.92,298.89,263.78Z" transform="translate(-256.43 -178.91)"/><path class="cls-74" d="M319.6,248.61c1.26-.4,2.53-2.31,3.75,0a2.4,2.4,0,0,1-3.58,1Z" transform="translate(-256.43 -178.91)"/><path class="cls-75" d="M319.77,249.62a6.46,6.46,0,0,0,3.58-1l.06,1.89C322.43,249.32,320.19,253.07,319.77,249.62Z" transform="translate(-256.43 -178.91)"/><path class="cls-76" d="M269.8,287.28c-1.13.06-1.89.51-1.91,1.76-1.84,1.94-1.81,4.38-1.8,6.81l-2,1.82c-1,.67-1.91,2.12-2.86,0q.92-6.24,1.82-12.47l.89-.87c1,.42,1.89,1.72,3,.2.95-1.68,1.87-1.5,2.78,0Z" transform="translate(-256.43 -178.91)"/><path class="cls-18" d="M263.91,298.37c.73,3.16-1.15,5.4-2.69,7.77-.55-2.34,1.44-4.26,1.09-6.58A1.47,1.47,0,0,1,263.91,298.37Z" transform="translate(-256.43 -178.91)"/><path class="cls-77" d="M263.91,298.37l-1.6,1.19c-.62.05-1.39.85-1.82-.11a1.43,1.43,0,0,1,.77-1.79c.95,1.12,1.91-.34,2.86,0C264,297.9,264,298.13,263.91,298.37Z" transform="translate(-256.43 -178.91)"/><path class="cls-78" d="M273.56,277c2.09-1.21,5.16-.12,6.58-2.85,1.43-1.13,2.68-.83,3.8.48.42,2.79-1.06,4.4-3.4,5.48a6,6,0,0,1-2-.32c-2.6-.83-5.2,2.1-7.8,0a8.55,8.55,0,0,0,0-.88l-.08,0A12.16,12.16,0,0,1,273.56,277Z" transform="translate(-256.43 -178.91)"/><path class="cls-79" d="M270.77,279.77c3,1.27,5.33-3.23,8.43-.94-1.28,3.09-3.81,3.32-6.63,2.89-1.21-1.9-2.52.33-3.76-.09Z" transform="translate(-256.43 -178.91)"/><path class="cls-80" d="M269.75,284.55a2.21,2.21,0,0,0-2.78,0c0-.71-.09-1.41-.13-2.12l2-.78Z" transform="translate(-256.43 -178.91)"/><path class="cls-81" d="M273.56,277a3.38,3.38,0,0,1-2.85,1.86,5.88,5.88,0,0,1,2.75-2.9C273.49,276.3,273.53,276.64,273.56,277Z" transform="translate(-256.43 -178.91)"/><path class="cls-82" d="M272.57,281.72l6.63-2.89c.3.3.6.6.89.91.59.81.16,1.55-.17,2.3a2.56,2.56,0,0,1-.87.86.77.77,0,0,1-1-.47c-1.59.43-3.18.9-4.78,1.3-.75.19-1.81,1.14-2.1-.35C271.12,282.93,272.09,282.28,272.57,281.72Z" transform="translate(-256.43 -178.91)"/><path class="cls-83" d="M278.09,282.43a.63.63,0,0,1,.58-.07c2.37.28.59,3.18,2.4,3.81-.31,1.32-.63,2.64-.94,4-1.05-1.16-2.86.63-3.8-1,0-.32,0-.64,0-1-.53-1.17.55-1.82.88-2.71Z" transform="translate(-256.43 -178.91)"/><path class="cls-84" d="M277.17,285.49c-.3.9-.59,1.8-.88,2.71C274,286.45,276.54,286.28,277.17,285.49Z" transform="translate(-256.43 -178.91)"/><path class="cls-1" d="M311,261.08c1.27-2.14,3.61,1,4.9-1,1.87,4-1.73,2-2.89,2.68Z" transform="translate(-256.43 -178.91)"/><path class="cls-85" d="M310.29,258.92c-.66-.87-2.72-.75-1.86-2.67,2-.18,2.9,1.14,3.6,2.72Z" transform="translate(-256.43 -178.91)"/><path class="cls-86" d="M279.06,281.7c-.32-1,.83-1.24,1-2,2-1,2.32-3.42,4.05-4.63a.9.9,0,0,1,1.1,0c.77.68,1.49,1.42,2.25,2.12a2,2,0,0,1,.5,1.13c-.06.2-.13.41-.18.61l-.43.47c-2,1.05-3.54,2.84-5.48,4l-.41,0-.42,0C279.94,283.41,279.83,282.18,279.06,281.7Z" transform="translate(-256.43 -178.91)"/><path class="cls-87" d="M281.9,283.48c.84-2.88,2.88-4.29,5.74-4.67a2.13,2.13,0,0,1,1.88.93l.93,0c0,.36,0,.71-.05,1.07a5.49,5.49,0,0,1-3.19,1.69c-1.21.05-2.18,1-3.39,1Z" transform="translate(-256.43 -178.91)"/><path class="cls-88" d="M279.06,281.7a2.48,2.48,0,0,1,2,1.77l0,0c-.25.17-.34.34-.27.53s.13.29.21.29l.09,1.83c-3.84.65-.81-3-2.4-3.81A.58.58,0,0,1,279.06,281.7Z" transform="translate(-256.43 -178.91)"/><path class="cls-89" d="M283.82,283.5a2.9,2.9,0,0,1,2.85-1.88,1.2,1.2,0,0,1,.17,1.74,2.38,2.38,0,0,1-2,1.2Z" transform="translate(-256.43 -178.91)"/><path class="cls-90" d="M281,284.34a4.73,4.73,0,0,1-.29-.6s.23-.14.35-.22A5.55,5.55,0,0,1,281,284.34Z" transform="translate(-256.43 -178.91)"/><path class="cls-25" d="M292.39,268.51a2.08,2.08,0,0,1,.74-.11c1.38-1,2.2-.23,2.94.88,0,.32,0,.63,0,.94-.92,1.82-1.89,3.62-1.83,5.74l-2.88-.07a2.63,2.63,0,0,1-2.2-2.09A8.69,8.69,0,0,1,292.39,268.51Z" transform="translate(-256.43 -178.91)"/><path class="cls-91" d="M289.78,274.08l1.59,1.82c0,.85-.15,1.66-1.05,2.07a1.83,1.83,0,0,1-.87.37,2.22,2.22,0,0,1-1,.1,1.33,1.33,0,0,1-.7-.62l-.34.09C286.64,275.66,288.07,274.78,289.78,274.08Z" transform="translate(-256.43 -178.91)"/><path class="cls-92" d="M288.74,278a1.67,1.67,0,0,0,.7-.09.59.59,0,0,1,.35.54c0,.23-.06.34-.13.34l-.14,1c-.81.05-1.56,0-1.88-.93v0A2.8,2.8,0,0,1,288.74,278Z" transform="translate(-256.43 -178.91)"/><path class="cls-93" d="M289.66,278.74a1.77,1.77,0,0,1-.22-.88,8.65,8.65,0,0,0,.89.11Z" transform="translate(-256.43 -178.91)"/><path class="cls-94" d="M353.21,235.22c.8-.07.93-2.19,2.22-.72-.59,1-.7,2.31-1.91,2.9C352.52,236.8,352.44,236.07,353.21,235.22Z" transform="translate(-256.43 -178.91)"/><path class="cls-95" d="M286.84,283.36c0-.58-.11-1.16-.17-1.74l3.73-.79-1,2.45Z" transform="translate(-256.43 -178.91)"/><path class="cls-96" d="M296.07,269.28l-2.94-.88c.13-1.16.6-2,1.93-1.89l1.13,1.22c.05.2.09.4.15.59Z" transform="translate(-256.43 -178.91)"/><path class="cls-97" d="M284.83,275.12l-.35,0-.34,0a7.18,7.18,0,0,0-4-1,8.12,8.12,0,0,1,6.55-3.85,1.67,1.67,0,0,1,1.3,1.3C287.82,273.56,286.92,274.88,284.83,275.12Z" transform="translate(-256.43 -178.91)"/><path class="cls-98" d="M287.81,271.27c-.38-.32-.75-.65-1.12-1v-1.87l3.93-.91C291.38,270,290.22,271.12,287.81,271.27Z" transform="translate(-256.43 -178.91)"/><path class="cls-99" d="M287.81,271.27a6.08,6.08,0,0,0,2.81-3.76,3.64,3.64,0,0,0,.74-.05l1,1.05c0,2.26-2,3.58-2.61,5.57-.42,1.5-2.48,2-2.33,3.83a2.66,2.66,0,0,1-2.62-2.79Z" transform="translate(-256.43 -178.91)"/><path class="cls-100" d="M288.74,278l-1.11.84.15-1Z" transform="translate(-256.43 -178.91)"/></svg>