<svg id="Layer_2" data-name="Layer 2" xmlns="http://www.w3.org/2000/svg" viewBox="0 0 66.5 80.99"><defs><style>.cls-1{fill:#010101;}.cls-2{fill:#0e0e0e;}.cls-3{fill:#999898;}.cls-4{fill:#131414;}.cls-5{fill:#adadad;}.cls-6{fill:#8e8e8e;}.cls-7{fill:#6a6a6a;}.cls-8{fill:#949494;}.cls-9{fill:#a2a2a2;}.cls-10{fill:#a4a3a3;}.cls-11{fill:#7d7d7d;}.cls-12{fill:#707070;}.cls-13{fill:#8f8e8e;}.cls-14{fill:#5f5e5d;}.cls-15{fill:#605d5d;}.cls-16{fill:#525252;}.cls-17{fill:#6b6867;}.cls-18{fill:#615e5d;}.cls-19{fill:#868484;}.cls-20{fill:#ebeaea;}.cls-21{fill:#4e4d4d;}.cls-22{fill:#646464;}.cls-23{fill:#42403f;}.cls-24{fill:#5a5a5a;}.cls-25{fill:#c9c8c8;}.cls-26{fill:#1c1c1c;}.cls-27{fill:#181818;}.cls-28{fill:#908f8f;}.cls-29{fill:#d2d2d2;}.cls-30{fill:#262626;}.cls-31{fill:#3a3a3a;}.cls-32{fill:#5a5959;}.cls-33{fill:#c2c1c1;}.cls-34{fill:#0a0b0a;}.cls-35{fill:#a1a0a1;}.cls-36{fill:#666;}.cls-37{fill:#323232;}.cls-38{fill:#454545;}.cls-39{fill:#191919;}.cls-40{fill:#111;}.cls-41{fill:#6f6f6f;}.cls-42{fill:#404040;}.cls-43{fill:#a4a4a5;}.cls-44{fill:#b4b3b3;}.cls-45{fill:#909090;}.cls-46{fill:#7e7e7e;}.cls-47{fill:#6d6c6c;}.cls-48{fill:#717171;}.cls-49{fill:#f2f2f1;}.cls-50{fill:#d1d1d1;}.cls-51{fill:#575857;}.cls-52{fill:#686969;}.cls-53{fill:#3c3c3b;}.cls-54{fill:#b7b6b6;}.cls-55{fill:#f6f6f6;}.cls-56{fill:#4f4f4f;}.cls-57{fill:#d6d6d5;}.cls-58{fill:#787878;}.cls-59{fill:#b3b3b3;}.cls-60{fill:#c5c5c5;}</style></defs><path class="cls-1" d="M333.65,119.16c5.24-1.85,13.86,1.16,17.89,6.1a38.82,38.82,0,0,1,7.55,16.46c1.79,7.93,3.41,15.9,6.15,23.57,2.59,7.22-.6,13.11-4.13,18.92a4.62,4.62,0,0,1-3.46,2.18c-3.32.39-4.77,2.3-4.3,5.64a2.55,2.55,0,0,1-2,2.76,34.81,34.81,0,0,1-16.72,3.27c-4-.19-7.65-.75-9.8-4.68-1.34-.92-3.08-1.3-3.94-2.89a17.1,17.1,0,0,0-3.22-7.12c-1.5-1.8-2.09-3.86-.19-5.88a8.18,8.18,0,0,1,1.43-1.51,3.14,3.14,0,0,1,1.27-.55,2.14,2.14,0,0,1,1.83.69c.26.36.36.91.68,1.14,1.14.84.48-.49.48-.54-.08-1.78.35-3.62-.53-5.31-1.93-1.13-2.6,1.48-4.16,1.4a2.44,2.44,0,0,1-2.71-1.45c-1-.44,2.35-2.06-.88-2.39-2.27-.23-5-2-4.32-5.51a2.91,2.91,0,0,1,2-1.58c1.36-.59,4.17,0,3.47-2.37-.54-1.83.57-5.35-3.28-5.31-1.46.74-2,2.62-3.64,3.09a1.4,1.4,0,0,1-1.38-1.06,6.91,6.91,0,0,1,.28-3.13c.13-.81.25-1.63.45-2.42a3.57,3.57,0,0,1,.55-1.06c.93-.94,2.36-1.25,3.12-2.43.44-.62.88-1.24,1.34-1.85.62-.78,1.17-1.65,2.3-1.77a15.07,15.07,0,0,1,2.41.36,9.15,9.15,0,0,1,3.73,2c2.91.45,2.81-1.89,3.32-3.63-.17-.77-.45-1.52-.55-2.31.47-2.57-4.22-3.29-2.28-6.38,1.29-1.05,1.33-2.24.36-3.62-.36,1.13.17,2.24-.1,3.3-1.2,1.13-1,2.76-1.5,4.14a5.36,5.36,0,0,1-1.51,2.16,3.51,3.51,0,0,1-1.9.47c-1.77-2.11-5.3-3.56-2.7-7.32.64-.94.17-2.14.49-3.18a16.3,16.3,0,0,1,2.55-4.46c2.78-4.23,4.8-4.6,9-1.86C327.12,118.43,331.77,121,333.65,119.16Z" transform="translate(-299.68 -118.61)"/><path class="cls-2" d="M318.67,177.87c-2.22,1.64-1.63,3.42-.08,5,1.92,2,3.19,4.2,3,7.07-.93,1.26-.14,3.79-2.77,3.82a16.43,16.43,0,0,1-.07-1.85c.42-6.26.35-6.45-5.59-4s-8.34-1.88-11.28-5.37c-1.09-3-.78-6-.41-9.07.23-2-.09-4.05,1-5.87,1.51-1,2.35-.29,2.91,1.14.1,1.73,1.29,3.24,1.07,5-.09,1.21.41,2.35.46,3.54V182c.07-1.64,0-3.29,0-4.93a20.81,20.81,0,0,1-.46-3.52,6.77,6.77,0,0,0-.77-3.45,25.07,25.07,0,0,0-1.91-8.36c-.72-3,.16-5.88,1-8.73a1.67,1.67,0,0,1,1.08-.88c2.26.4,1.53,2.64,2.4,3.9l.81,1.16.46.37a3.35,3.35,0,0,1,0,1.18,4.58,4.58,0,0,0,.33,2.78c.4.63.71,1.31,1.13,1.93.39,4.15,3.51,4.75,7,5.26l-2.22,2.35-.26.5a1.94,1.94,0,0,1-1.06.15,3.8,3.8,0,0,1-1.27-.73c-.76-.29-.36.27-.34.55a18,18,0,0,1,1,2.45c.11.36.19.72.27,1.08.18.66.4,1.28,1.19,1.44a5.82,5.82,0,0,1,1,.16A4.08,4.08,0,0,1,318.67,177.87Z" transform="translate(-299.68 -118.61)"/><path class="cls-3" d="M306.43,129.62c.33-1.25.85-2.27,2.43-2,1.88.63.11,3.65,2.55,3.92a3.51,3.51,0,0,1,.56,1.15c-.18,2.38.4,4.79-.32,7.13a1,1,0,0,1-1.86-.08c-2.15-3.65-3.17-1-4.39.74a2.39,2.39,0,0,1-1.35.07,2.75,2.75,0,0,1-1.3-3c.09-.69.35-1.35.42-2C303.57,133.17,305.38,131.61,306.43,129.62Z" transform="translate(-299.68 -118.61)"/><path class="cls-4" d="M333.65,119.16c-1.8,2.34-7.22.4-6,6.14-4.78-4-6.29-3.77-8.91,1a22,22,0,0,1-2.89,3.51l-.59-.27c-1.61-3.21.93-5.2,2.21-7.57a12.57,12.57,0,0,1,3.44-1.45c1.11-.44,2.3-.59,3.42-1Z" transform="translate(-299.68 -118.61)"/><path class="cls-5" d="M351.81,194.06c1.1-.23.22-2,1.54-2,2.25,2.14.19,2.82-1.27,3.61-8.36,4.52-17.09,5-26.09,2.34a1.59,1.59,0,0,1,1.13-.9C335.55,197.74,344,198.24,351.81,194.06Z" transform="translate(-299.68 -118.61)"/><path class="cls-6" d="M305.61,152.44c0,3.09-1.63,6.05-.8,9.22a1.66,1.66,0,0,1-.06,1.24,1.52,1.52,0,0,1-1.75-.46,7.18,7.18,0,0,1-1.67-2.79c0-.45-.05-.89-.05-1.34.18-1.3-.41-2.69.46-3.91v-2a.75.75,0,0,1-.29-.74c.06-.27.14-.4.21-.4,1.79.86,2.89-1.59,4.64-1C307.13,151.35,306.3,151.87,305.61,152.44Z" transform="translate(-299.68 -118.61)"/><path class="cls-5" d="M318.77,193.8c1.32-1,.17-3.77,2.77-3.82l3.65,2.1c.52,1.77.68,3.61,1.22,5.37L326,198C323.32,197,320.34,196.64,318.77,193.8Z" transform="translate(-299.68 -118.61)"/><path class="cls-7" d="M311.48,131.59c-4.77,1.26-2.12-2.39-2.62-4l2.29-2.55c1.11-.82,2-.42,2.86.47C314.53,128.14,314.59,130.53,311.48,131.59Z" transform="translate(-299.68 -118.61)"/><path class="cls-8" d="M306.3,150.54c-1.48.38-2.7,1.94-4.46.94-1.36-2.34.12-5-.91-7.42V143a1.47,1.47,0,0,1,1.87-.15c.06.35.75.69,1.49,1.18,1.88,1.25,1.77,3.5,2.49,5.34A1.48,1.48,0,0,1,306.3,150.54Z" transform="translate(-299.68 -118.61)"/><path class="cls-9" d="M302.51,174q-.35,4.28-.68,8.53c-1,0-1.09-.58-1.06-1.33a28.31,28.31,0,0,1,0-10.93,2.1,2.1,0,0,1,.19-2.85,1.25,1.25,0,0,1,1.11.59C302.47,170,301.8,172.09,302.51,174Z" transform="translate(-299.68 -118.61)"/><path class="cls-10" d="M321.58,121.37a6.27,6.27,0,0,1-3.74,1.13,1.42,1.42,0,0,1-1.27,0,1.78,1.78,0,0,1-.69-1.77c.85-1.62,2.45-1,3.75-1.28C320.15,120.22,322.08,119.57,321.58,121.37Z" transform="translate(-299.68 -118.61)"/><path class="cls-11" d="M314,126.07l-2.87-1c-.22-.5-.22-.91.47-1,1.55-.56,2.57-3.63,4.78-1C316.36,124.71,316.13,126.16,314,126.07Z" transform="translate(-299.68 -118.61)"/><path class="cls-12" d="M300.79,170.31c0,3.64,0,7.29,0,10.93A14.14,14.14,0,0,1,300.79,170.31Z" transform="translate(-299.68 -118.61)"/><path class="cls-13" d="M302.64,143h-1.7c0-.65,0-1.3,0-1.94,1.39-.9.22-3.6,2.64-3.78.11,1.06-.14,2.26,1.07,2.93a1,1,0,0,1,.23,1.06A3,3,0,0,1,302.64,143Z" transform="translate(-299.68 -118.61)"/><path class="cls-14" d="M303.57,137.27c-1.59.76.09,3.82-2.64,3.78-.64-2.35,1.08-3.83,2-5.59h.18Z" transform="translate(-299.68 -118.61)"/><path class="cls-15" d="M316,123.21c-1.71-1-2.83.91-4.35.9.45-2.35,2.42-2.8,4.26-3.39l1,1.3C317.47,123.1,316.81,123.23,316,123.21Z" transform="translate(-299.68 -118.61)"/><path class="cls-16" d="M300.93,144.06c1.74,2.3.24,5,.9,7.42a4.88,4.88,0,0,0-.09.93C299.86,149.79,301.07,146.86,300.93,144.06Z" transform="translate(-299.68 -118.61)"/><path class="cls-17" d="M321.58,121.37l-1.95-1.93c1.59-.48,3.18-1,4.74.08A2.92,2.92,0,0,1,321.58,121.37Z" transform="translate(-299.68 -118.61)"/><path class="cls-18" d="M303.14,135.46H303c-.13-2.71,1.31-4.49,3.47-5.84C306.13,132,304.62,133.74,303.14,135.46Z" transform="translate(-299.68 -118.61)"/><path class="cls-19" d="M301.66,167.47H301c-1-1.19-1.89-2.39-.17-3.71a.93.93,0,0,1,1.21,0,3,3,0,0,1,.16,3.26Z" transform="translate(-299.68 -118.61)"/><path class="cls-20" d="M312.77,191.6c1.08-.67,2.28-.86,2.56.31s-.85.74-1.47.49A5.78,5.78,0,0,1,312.77,191.6Z" transform="translate(-299.68 -118.61)"/><path class="cls-21" d="M301.74,154.4l-.18,4.57-.61,0C301.12,157.46,300,155.67,301.74,154.4Z" transform="translate(-299.68 -118.61)"/><path class="cls-22" d="M301,159a3.13,3.13,0,0,0,.61,0l.31,1.12c.59,1.25,1.05,2.48-.28,3.57l-.78.09C300.86,162.17,300.9,160.59,301,159Z" transform="translate(-299.68 -118.61)"/><path class="cls-23" d="M326.41,197.45c-2.86-1.23-1.91-3.33-1.22-5.37,6.44,8.16,14.47,4.6,22.2,2.95,1.47-.32,2.76-1.45,4.42-1-6.19,4.26-13.1,4.66-20.25,3.86C329.85,197.72,328.13,197.61,326.41,197.45Z" transform="translate(-299.68 -118.61)"/><path class="cls-24" d="M312.05,153.32c2.28-1.54,3.73-1.06,4.19,1.75.12.76-.06,1.69.33,2.25,3.47,5-.26,5.07-3.62,5.41a1.28,1.28,0,0,1-.26-1.08c.35-1.05,1-2.06.51-3.24a26.74,26.74,0,0,0-.75-4A9.07,9.07,0,0,1,312.05,153.32Z" transform="translate(-299.68 -118.61)"/><path class="cls-4" d="M315.89,129.82c.38,1,1.12,1.91.69,3.09-.32.89.47,5.2,1.16,6.32a1,1,0,0,1,.31.77c0,.28-.06.42-.12.43-1.18,1.2-1.87,3.17-4.15,2.65a4,4,0,0,1-.87-2.45c-.05-.42-.06-.85-.07-1.28.1-1.69-.75-3.27-.56-5a4.93,4.93,0,0,1,.38-1.18c1-1.13,1-3.27,3-3.48Z" transform="translate(-299.68 -118.61)"/><path class="cls-25" d="M321.34,176.16l-1.73-.25c-1.87-.81-2-2.15-1.1-3.76.21-1.15,1.81-.58,2.12-2,.87-3.95,1.9-.58,2.86,0C323.61,172.51,325.34,175.38,321.34,176.16Z" transform="translate(-299.68 -118.61)"/><path class="cls-26" d="M326.2,142.06c-.78,4.69-2.21,6.27-4.67,5.18-.5-1.33-1.27-2.59-.9-4.11a3.38,3.38,0,0,1,.6-1.27C323,140.25,324.59,140.76,326.2,142.06Z" transform="translate(-299.68 -118.61)"/><path class="cls-27" d="M320.55,137.19c-.08-1.58.25-2.95,1.9-3.62h0c.16.92-.22,1.78,1.12,2.55,1.08.62,3.52,1.75,1.68,4.06-.77.73-1.69.54-2.6.44A4.33,4.33,0,0,1,320.55,137.19Z" transform="translate(-299.68 -118.61)"/><path class="cls-28" d="M321.34,176.16c3-1.15,1.48-3.94,2.15-5.93,1,3.82,1.07,7.62.22,12.57A12.86,12.86,0,0,1,321.34,176.16Z" transform="translate(-299.68 -118.61)"/><path class="cls-29" d="M313.14,147.53c-.18,2.6-2.16,2.34-3.9,2.46a2.75,2.75,0,0,1-.77-1.08c-.57-2.87-1.5-5.88,2.5-7.15C313.67,142.94,311.85,145.82,313.14,147.53Z" transform="translate(-299.68 -118.61)"/><path class="cls-30" d="M322.45,133.57c-1.77-1.68-1.31-3.45.24-5.38,1.17,1.51,2.71,3.1,2.24,5.32-.2,1-1.62-.13-2.48.06Z" transform="translate(-299.68 -118.61)"/><path class="cls-31" d="M313.14,147.53c-.67-.22-2.15.45-1.53-1.21s0-2.87-.4-4.26l-.44-.38a1.17,1.17,0,0,1,.53-1c.81-.51,1.57-1.21,2.64-.6L314,143a16.38,16.38,0,0,1,.07,2.8Z" transform="translate(-299.68 -118.61)"/><path class="cls-32" d="M318.51,172.15a6.54,6.54,0,0,0,1.1,3.76l.19.16-.12.22c-1.28.23-2.44,1.15-3.84.71l0,0a2.2,2.2,0,0,1-.59-1c.09-1.53-.68-3.19.67-4.54l-.07-.39A3.71,3.71,0,0,0,318.51,172.15Z" transform="translate(-299.68 -118.61)"/><path class="cls-33" d="M313.18,162a2.3,2.3,0,0,0-.23.76l-1.9.73c-1.2.19-1.75-.4-1.81-1.55a2.07,2.07,0,0,1,2.45-2.5C313.23,159.5,313.76,160.48,313.18,162Z" transform="translate(-299.68 -118.61)"/><path class="cls-12" d="M320.55,137.19a3.55,3.55,0,0,1,2,3,4.56,4.56,0,0,1-.84,2l-.27-.12a1.55,1.55,0,0,1-2.08.08,5.24,5.24,0,0,1,1.17-4.92Z" transform="translate(-299.68 -118.61)"/><path class="cls-34" d="M314.09,145.8A2.18,2.18,0,0,1,314,143c1.62-.42,1.69-2.9,3.7-2.81,1.22.49,1.49,1.27.68,2.35a4.68,4.68,0,0,1-2.61,1.41Z" transform="translate(-299.68 -118.61)"/><path class="cls-35" d="M312.05,153.32a6.21,6.21,0,0,0,.85.21c.69,3.79.06,4.42-3.6,3.6l-.22.07C309.93,155.8,310.6,154.26,312.05,153.32Z" transform="translate(-299.68 -118.61)"/><path class="cls-36" d="M319.79,142h1.67c0,1.74,0,3.47.07,5.21-1.37-.61-1.76-2.63-3.62-2.51-.44-1,.32-1.47.89-2A2.94,2.94,0,0,1,319.79,142Z" transform="translate(-299.68 -118.61)"/><path class="cls-37" d="M321.73,142.15a1.46,1.46,0,0,1,.84-2h2.68c.32.63.64,1.25.95,1.88A6.72,6.72,0,0,0,321.73,142.15Z" transform="translate(-299.68 -118.61)"/><path class="cls-38" d="M319.55,142.94l-1.64,1.8a1.84,1.84,0,0,1-2.12-.79l1.92-1.86C318.23,142.56,319.09,142.31,319.55,142.94Z" transform="translate(-299.68 -118.61)"/><path class="cls-39" d="M319.55,142.94a1.73,1.73,0,0,1-1.84-.85c1.08-.63.11-1.27,0-1.9,0-.32,0-.64,0-1l1.67,0c.13.94.25,1.88.38,2.83Z" transform="translate(-299.68 -118.61)"/><path class="cls-40" d="M306.3,150.54a.73.73,0,0,0,.33-.76,1.58,1.58,0,0,1,.93-.77,1.94,1.94,0,0,1,1.73.54l-.05.44.08.13a18,18,0,0,1-1.7,2.47.94.94,0,0,1-1.1-.13l-.91,0Z" transform="translate(-299.68 -118.61)"/><path class="cls-41" d="M306.52,152.46a5.55,5.55,0,0,0,.71-.13,2.31,2.31,0,0,1,1.82.9l-.78,2.81C307.06,155.15,306.79,153.81,306.52,152.46Z" transform="translate(-299.68 -118.61)"/><path class="cls-42" d="M315.84,177c1.21-.64,2.4-1.35,3.84-.72-.33.54-.67,1.06-1,1.59C317.64,177.87,316.53,178.1,315.84,177Z" transform="translate(-299.68 -118.61)"/><path class="cls-43" d="M326.25,186c-.38,1.41-1,1.39-1.52,1.14-.33-.15-.54-.56-.8-.86a5.76,5.76,0,0,1,1.47-.56A1.64,1.64,0,0,1,326.25,186Z" transform="translate(-299.68 -118.61)"/><path class="cls-44" d="M309.05,153.23l-1.82-.9c-.07-1.46,1-1.88,2.09-2.21A4.1,4.1,0,0,1,309.05,153.23Z" transform="translate(-299.68 -118.61)"/><path class="cls-7" d="M304.5,162.86c.11-.4.21-.8.31-1.2,2.32,2.54,1.57,5.7,1.74,8.68-1.05.6-1.43-.21-1.87-.89-.18-1.07-.54-1.95-1.84-1.95l-.51-.28a3.77,3.77,0,0,1,.65-2.72A6.6,6.6,0,0,1,304.5,162.86Z" transform="translate(-299.68 -118.61)"/><path class="cls-45" d="M313.18,162c-1.26-3.31-2.6-2.07-3.94-.06a2.73,2.73,0,0,1-.05-3.87c1.66,0,3.52-.93,4.8,1C314.74,160.29,314,161.13,313.18,162Z" transform="translate(-299.68 -118.61)"/><path class="cls-46" d="M314,159c-1.48-.93-3.41.34-4.8-1a2.56,2.56,0,0,1,.11-.91c2.8.4,3.8-1,3.6-3.6C314.93,155,313.52,157.22,314,159Z" transform="translate(-299.68 -118.61)"/><path class="cls-47" d="M315.89,171.46c-.27,1.54,1,3.09,0,4.62-1.37.95-2.09-.08-2.87-.94l.12-1.1a4.33,4.33,0,0,1,1.73-2.67Z" transform="translate(-299.68 -118.61)"/><path class="cls-48" d="M304.68,169.45l1.87.89a3.09,3.09,0,0,1,.67,2.86c-.36.59-.61,1.41-1.6.89Z" transform="translate(-299.68 -118.61)"/><path class="cls-49" d="M314.83,171.37c.17,1.37-.26,2.36-1.73,2.67-.27-.9-1.46-1.38-1.17-2.54-.13-1.59.51-1.86,1.79-1.06Z" transform="translate(-299.68 -118.61)"/><path class="cls-50" d="M302.51,174c-1.54-2-.38-4.4-.85-6.57l.07.05c.31-.46.54-.4.72.09l.24.1.15-.21Z" transform="translate(-299.68 -118.61)"/><path class="cls-51" d="M307.3,176.93v5.5l-.91.06V177C306.67,176.53,307,176.49,307.3,176.93Z" transform="translate(-299.68 -118.61)"/><path class="cls-52" d="M307.3,176.93c-.3,0-.61,0-.91,0-.26-1-.52-1.93-.77-2.89l1.6-.89C307.25,174.44,307.28,175.68,307.3,176.93Z" transform="translate(-299.68 -118.61)"/><path class="cls-53" d="M313,175.14l2.87.94c0,.31,0,.63,0,.94C312.65,179.74,313.72,176.08,313,175.14Z" transform="translate(-299.68 -118.61)"/><path class="cls-54" d="M313.72,170.44l-1.79,1.06c-.86-.84-1.32-1.95-.1-2.56C312.59,168.56,313.57,169.31,313.72,170.44Z" transform="translate(-299.68 -118.61)"/><path class="cls-55" d="M309.29,149.55l-1.9-.1c-2.85-2.13-1.59-5.68-2.89-8.35,0-.3.09-.6.14-.9a3.29,3.29,0,0,0,.7-.11c.81-1.18,2.65-2,2.92-.7.49,2.24,2.42.73,3.07,1.83a.73.73,0,0,1-.12.84C307.5,143.77,309.57,147,309.29,149.55Z" transform="translate(-299.68 -118.61)"/><path class="cls-56" d="M315.71,129.72c-1.24,1-.62,3.41-2.73,3.81a1.67,1.67,0,0,1-1.69-1,1.7,1.7,0,0,1,.19-.91c1.57-1.51,1.87-3.59,2.54-5.52a3,3,0,0,0,2-2.86l.91-1.19,1,.48C317.61,125.05,314.65,126.79,315.71,129.72Z" transform="translate(-299.68 -118.61)"/><path class="cls-57" d="M311.33,141.22c-2.37,1.6-3.59-2.9-6-1.13-1-2.29.58-3.14,2.2-3.71,3.18-1.13,1.87,3,3.8,3.41a2.12,2.12,0,0,1,.47,1.57l-.29.1Z" transform="translate(-299.68 -118.61)"/><path class="cls-58" d="M311.81,141.36c-.16-.52-.32-1-.47-1.57-.3-2.43-.79-4.85,0-7.29l1.69,1v0c-1.08,2.13.07,3.9.92,5.73a7.87,7.87,0,0,1,0,.84Z" transform="translate(-299.68 -118.61)"/><path class="cls-59" d="M302.45,167.61l-.72-.09c0-1.29-.09-2.57-.14-3.86s.19-2.38.28-3.57a2.8,2.8,0,0,1,1.82,1.7c-.81,1.05.14,2,.12,3.05Z" transform="translate(-299.68 -118.61)"/><path class="cls-60" d="M303.81,164.84c-1.37-1-1.51-2-.12-3.05l.81,1.07A2,2,0,0,1,303.81,164.84Z" transform="translate(-299.68 -118.61)"/><path class="cls-29" d="M304.5,141.1c3.05,2.06,1,5.87,2.89,8.35a3.43,3.43,0,0,1-.76.33c-1.64-2.08-3.28-4.16-4-6.78C303.07,142.18,303.49,141.34,304.5,141.1Z" transform="translate(-299.68 -118.61)"/><path class="cls-56" d="M313.9,139.28c-2.17-1.61-2.58-3.51-.92-5.73Q313.45,136.42,313.9,139.28Z" transform="translate(-299.68 -118.61)"/></svg>