<svg id="Layer_5" data-name="Layer 5" xmlns="http://www.w3.org/2000/svg" viewBox="0 0 177.18 169.71"><defs><style>.cls-1{fill:#010101;}.cls-2{fill:#020202;}.cls-3{fill:#030303;}.cls-4{fill:#040404;}.cls-5{fill:#282827;}.cls-6{fill:#292929;}.cls-7{fill:#e6e5e5;}.cls-8{fill:#242423;}.cls-9{fill:#393939;}.cls-10{fill:#363333;}.cls-11{fill:#f5f5f5;}.cls-12{fill:#212121;}.cls-13{fill:#1e1d1d;}.cls-14{fill:#c5c5c5;}.cls-15{fill:#d6d4d4;}.cls-16{fill:#313131;}.cls-17{fill:#b9b8b8;}.cls-18{fill:#989595;}.cls-19{fill:#c0bfbf;}.cls-20{fill:#cccccb;}.cls-21{fill:#d5d3d3;}.cls-22{fill:#454444;}.cls-23{fill:#d6d6d6;}.cls-24{fill:#ddd;}.cls-25{fill:#2d2d2d;}.cls-26{fill:#0e0e0e;}.cls-27{fill:#373736;}.cls-28{fill:#1b1b1b;}.cls-29{fill:#c7c7c7;}.cls-30{fill:#c3c2c2;}.cls-31{fill:#adabab;}.cls-32{fill:#3f3f3e;}.cls-33{fill:#2a2b2b;}.cls-34{fill:#4b4948;}.cls-35{fill:#4e4c4c;}.cls-36{fill:#454545;}.cls-37{fill:#1c1c1c;}.cls-38{fill:#acabab;}.cls-39{fill:#1d1c1c;}.cls-40{fill:#dddcdc;}.cls-41{fill:#636464;}.cls-42{fill:#0f0e0e;}.cls-43{fill:#717070;}.cls-44{fill:#232323;}.cls-45{fill:#484545;}.cls-46{fill:#3b3a3a;}.cls-47{fill:#a6a5a5;}.cls-48{fill:#a3a2a2;}.cls-49{fill:#888787;}.cls-50{fill:#b5b4b4;}.cls-51{fill:#2b2a2a;}.cls-52{fill:#4d4c4c;}.cls-53{fill:#adadad;}.cls-54{fill:#373636;}.cls-55{fill:#181818;}.cls-56{fill:#555353;}.cls-57{fill:#646161;}.cls-58{fill:#545454;}.cls-59{fill:#bfbdbd;}.cls-60{fill:#2f2e2d;}.cls-61{fill:#3a3a3a;}.cls-62{fill:#737070;}.cls-63{fill:#828282;}.cls-64{fill:#3e3c3c;}.cls-65{fill:#bcbaba;}.cls-66{fill:#333;}.cls-67{fill:#585958;}.cls-68{fill:#5f5f5f;}.cls-69{fill:#bfbebe;}.cls-70{fill:#cacac9;}.cls-71{fill:#3f4040;}.cls-72{fill:#696969;}.cls-73{fill:#b9b6b6;}.cls-74{fill:#eeeded;}.cls-75{fill:#e1dfdf;}.cls-76{fill:#4b4b4b;}.cls-77{fill:#1a1a1a;}.cls-78{fill:#262626;}.cls-79{fill:#8d8c8c;}.cls-80{fill:#141414;}.cls-81{fill:#20201f;}.cls-82{fill:#5d5d5d;}.cls-83{fill:#5c5c5c;}.cls-84{fill:#e7e5e5;}.cls-85{fill:#2c2c2c;}.cls-86{fill:#e9e8e8;}.cls-87{fill:#a4a1a1;}.cls-88{fill:#353535;}.cls-89{fill:#171818;}.cls-90{fill:#1e1e1e;}.cls-91{fill:#525252;}.cls-92{fill:#1f1f1f;}.cls-93{fill:#474747;}.cls-94{fill:#898888;}.cls-95{fill:#504f50;}.cls-96{fill:#303030;}.cls-97{fill:#464646;}.cls-98{fill:#4d4d4d;}.cls-99{fill:#434343;}.cls-100{fill:#848484;}.cls-101{fill:#4f4f4f;}.cls-102{fill:#4e4f4e;}.cls-103{fill:#b4b4b4;}.cls-104{fill:#838383;}.cls-105{fill:#6f6f6f;}.cls-106{fill:#9c9b9b;}.cls-107{fill:#202020;}.cls-108{fill:#272727;}.cls-109{fill:#2d2e2d;}.cls-110{fill:#c2c2c2;}.cls-111{fill:#3d3d3d;}.cls-112{fill:#515151;}.cls-113{fill:#8d8d8d;}.cls-114{fill:#979797;}.cls-115{fill:#3f3f3f;}.cls-116{fill:#fbfbfc;}.cls-117{fill:#49494a;}.cls-118{fill:#8c8c8c;}.cls-119{fill:#2e2e2e;}.cls-120{fill:#505050;}.cls-121{fill:#2f2f2f;}.cls-122{fill:#838282;}.cls-123{fill:#222121;}.cls-124{fill:#737272;}.cls-125{fill:#676767;}.cls-126{fill:#d5d5d5;}.cls-127{fill:#9d9d9c;}.cls-128{fill:#7e7e7e;}.cls-129{fill:#5b5b5b;}.cls-130{fill:#222223;}.cls-131{fill:#414141;}.cls-132{fill:#8b8a8a;}.cls-133{fill:#999898;}.cls-134{fill:#a2a1a1;}.cls-135{fill:#9e9d9d;}.cls-136{fill:#a4a3a3;}.cls-137{fill:#4e4e4e;}.cls-138{fill:#dbdada;}.cls-139{fill:#d2d2d2;}.cls-140{fill:#c5c4c4;}.cls-141{fill:#3c3d3c;}.cls-142{fill:#e9e9e9;}.cls-143{fill:#e4e4e4;}.cls-144{fill:#e2e2e2;}.cls-145{fill:#e2e1e1;}.cls-146{fill:#c9c8c8;}.cls-147{fill:#aeadad;}.cls-148{fill:#e0e0e0;}.cls-149{fill:#7d7d7d;}.cls-150{fill:#aaa;}.cls-151{fill:#a0a0a0;}.cls-152{fill:#c8c7c7;}.cls-153{fill:#686868;}.cls-154{fill:#f3f3f3;}.cls-155{fill:#efeeee;}.cls-156{fill:#9f9f9f;}.cls-157{fill:#6d6e6e;}.cls-158{fill:#959595;}.cls-159{fill:#7b7b7b;}.cls-160{fill:#c6c5c5;}.cls-161{fill:#7c7c7c;}.cls-162{fill:#a9a8a8;}.cls-163{fill:#dededd;}.cls-164{fill:#c6c6c6;}.cls-165{fill:#e5e5e5;}.cls-166{fill:#b1b1b1;}.cls-167{fill:#666;}.cls-168{fill:#272828;}.cls-169{fill:#ccc;}.cls-170{fill:#373737;}.cls-171{fill:#bbbaba;}.cls-172{fill:#bdbcbc;}.cls-173{fill:#c2c1c1;}.cls-174{fill:#a8a7a8;}.cls-175{fill:#e5e4e4;}.cls-176{fill:#4c4d4d;}.cls-177{fill:#3e3e3e;}.cls-178{fill:#080808;}.cls-179{fill:#969696;}.cls-180{fill:#d0d0d0;}.cls-181{fill:silver;}.cls-182{fill:#d7d7d7;}.cls-183{fill:#2a2a29;}.cls-184{fill:#b3b3b3;}.cls-185{fill:#bbb;}.cls-186{fill:#8a8989;}.cls-187{fill:#404040;}.cls-188{fill:#737373;}.cls-189{fill:#dfdfdf;}.cls-190{fill:gray;}.cls-191{fill:#4c4c4c;}.cls-192{fill:#ababab;}.cls-193{fill:#7e7d7e;}.cls-194{fill:#3b3b3b;}.cls-195{fill:#989797;}.cls-196{fill:#d0d1d1;}.cls-197{fill:#e4e3e3;}.cls-198{fill:#a8a8a8;}.cls-199{fill:#cbcbca;}.cls-200{fill:#9c9c9c;}.cls-201{fill:#7d7c7c;}.cls-202{fill:#767676;}.cls-203{fill:#b5b5b5;}.cls-204{fill:#717171;}.cls-205{fill:#b8b8b8;}.cls-206{fill:#a7a6a6;}.cls-207{fill:#cfcfcf;}.cls-208{fill:#929291;}.cls-209{fill:#dfdfde;}.cls-210{fill:#959494;}.cls-211{fill:#595a5a;}.cls-212{fill:#eee;}.cls-213{fill:#9a9a9a;}.cls-214{fill:#757575;}</style></defs><path class="cls-1" d="M315.83,326.11c9.32-14.52,16.81-30.11,26.09-44.66,1.46-2.29,2.42-2.15,3.59-.61,3.25,4.28,7.8,5,12.69,5.71,4.36.64,7.09,4.5,10.15,7.31,7.11,6.53,14.71,12.57,20.43,20.55,6.55,9.16,10.4,19.15,10.92,30.47.13,2.85-1.25,3.85-3.48,4.6a118.43,118.43,0,0,1-22.4,4.85,332,332,0,0,1-40.48,2.84,214.88,214.88,0,0,1-30.62-1.94c1-2.83,4.57-1.7,5.94-4a7.53,7.53,0,0,1,1-.8,23.8,23.8,0,0,1,4.93.86c-1.5-.37-3.37-1.12-5.42-.56-.84.66-1.62.31-2.4-.14-2.94-2.64-2.84-3.27.67-4.65.93-.37,2.15,0,2.76-1.11A2,2,0,0,1,309,343.8c2.1-.74.37-3.94,2.84-4.43a12.72,12.72,0,0,1,1.95-.28c2-.43,3.92.09,5.87.28,1.52-.1,3,.44,4.45.54-1.2-.09-2.33-.55-3.55-.56a3.43,3.43,0,0,1-1.86-.55,2.18,2.18,0,0,1-.59-1.12c-.07-1.55,1.06-2.62,1.58-3.91-.05-1.17-1-.91-1.68-1-2.49-.45-4.29-1.17-2.1-4.08C316.5,327.91,315.15,327,315.83,326.11Z" transform="translate(-253.58 -187.47)"/><path class="cls-1" d="M363.11,256.49c3.93-2.15,5.51-5.19,3.58-9.55-1.16-1.52-.73-2.82.53-4,4.9-1.79,8.12,1.48,11.63,3.87a7.37,7.37,0,0,1,2.25,1.35c.36.18.81.82,1,.55.36-.45.17.25-.32-.19a21.07,21.07,0,0,0-3.39-2.19c-3.29-4.25-8.85-5.4-12.51-9.15-1.41-1.66-2.16-3.48-1.32-5.66,1-3.79,4-6.23,6.08-9.33a20.81,20.81,0,0,0,2.84-4.22c3.17-3.12,6.79-5.88,8.4-10.29.75-1.32.42-3,1.61-4.19,2.45-1.72,4.61-5.7,7.6-4.24s1,5.41.52,8.15c-.57,3.1,1.87,3.87,3.42,4.77,6.27,3.66,9.32,9.1,10.24,16.13a88.81,88.81,0,0,0,2.16,9.16,2.47,2.47,0,0,0,3.52,1.11,93.58,93.58,0,0,1,12.16,7.24c4.81,3.64,7,10.05,7.51,16.29.9,11-2.66,21.05-7.22,30.82-.46,1-.81,2-1.21,3-.5.61-.8,1.57-1.91,1.1-3.77-5.11-5.23-11.69-10.54-15.86-4.89-3.85-9.9-6.75-16.41-6.93-10.22-.29-17.82-6.88-26.14-11.67-.81-.46-1.56-1-2.34-1.53C363.29,259.91,361.41,258.89,363.11,256.49Z" transform="translate(-253.58 -187.47)"/><path class="cls-2" d="M359,231.6l-11-2.66c-3.48-.34-6.19-2.55-9.3-3.8,2.58,1.86,6.2,2.09,8,5.13,8.46,4.94,8.47,5.5.49,11-1.93,1.34-3.65,2.95-5.49,4.42-2.35,1.87-4.7,2.78-7.73,1.13-4.23-2.3-7.46,2.43-11.5,2a3.19,3.19,0,0,1-3.15-.56,5.85,5.85,0,0,1-1.62-2.1c-3.33-4-4.43-9.28-7.71-13.3a1.53,1.53,0,0,1,.27-1.24,6.61,6.61,0,0,1,3-1.18c3.74-1.63,4-5.24,4.8-8.53.24-1.09-.48-1.73-1.56-1.89a11.8,11.8,0,0,0-4.76-1c-3-1.06-6.16-1.73-9.16-2.85a9.6,9.6,0,0,0-4.57-.9c-1.23-.06-2.08-1-3.16-1.37-.38-.15-.74-.32-1.1-.5a11.08,11.08,0,0,1-3.07-2.14,2.31,2.31,0,0,1-.6-1.84c2-3.43,4.29-1.33,6.26-.8-.4-.48-1.52-.51-2.39-1-1.75-1-.41-1.57.43-2.16a4.61,4.61,0,0,1,4.5.35,8.19,8.19,0,0,0,3.91,1.75,33.43,33.43,0,0,1,7.55,2.33c-1.61-2.13-3.57-1.75-4.85-2.73-.9-.6-1.72-1.31-2.61-1.93a3.17,3.17,0,0,1-1.53-2.11c.32-1.61,1.44-2.21,2.93-2.36,1.13-.14,2.48,1.43,3.41-.44,3.51-.08,7,.79,10.5.5a8,8,0,0,1,4.89,1.9,2.49,2.49,0,0,1-1.65-2.59c.11-1.21,1.52-1.28,2.63-1.21,1.16.31,2.21,1.06,4,.73a9,9,0,0,1-5.57-2.36,1.87,1.87,0,0,1-.38-2c1.28-1.24,2.73-.77,4.17-.39,8.65,1.27,16.92.9,25-3.43,5.55-3,10.22-.17,11.59,5.92,1,4.56,3.43,5.89,11.29,6.27,1.11,1.34,3.43-.39,4.28,1.66a3.61,3.61,0,0,1,0,1.27c-.43,1.43-.79,2.9-2.22,3.72-3.32.34-1.16,3.21-2.12,4.64a18.26,18.26,0,0,1-3.06,6.58c-2.7,2.86-4.69,6.34-7.71,8.92C362.15,231.84,360.43,231.16,359,231.6Z" transform="translate(-253.58 -187.47)"/><path class="cls-3" d="M311.13,254.34c-1.51,4.63-5.4,6.56-9.44,8.21-9,3.64-17.87,7.36-25.44,13.59a4.58,4.58,0,0,1-3.5.29,2,2,0,0,1-.48-2.91,7.54,7.54,0,0,0,1.44-5.7c-.24-3.15,2.49-4.45,4.22-6.35,1-1.18.77-2.59.71-4,.41-1.69-.57-3-1.18-4.43a34.2,34.2,0,0,1-.57-4.27c-.17-1-1.09-1.82-.73-2.95,4.39-1.22-.54-2.37,0-3.57a2.57,2.57,0,0,1,1-.79c1-.46,2.56-.08,2.56-1.86-.32-1.43-1.53-.86-2.39-1a6.19,6.19,0,0,1-1.95-.38,1.62,1.62,0,0,1-1.07-1.57,2.66,2.66,0,0,1,1.05-.83,5.76,5.76,0,0,1,1.29-.3c2.26-.16,4.53-.06,7-.15-.68-.4-1.65-.18-1.8-1.15.06-1.14.95-1.75,1.59-2.51,1.12-.8.67-2.66,2.14-3.22,1.37-.36,2.72,0,4.08.06a4.65,4.65,0,0,0,3.3-.26c1.2-.69,2.39-1.39,3.65-2a9,9,0,0,1,1.72-.73,3.34,3.34,0,0,1,1.88.1c0,2,2.23,1.88,3,3.19,1,1.91-.56,3-1.35,4.34-.69,1.64.43,3.08.49,4.63a3.44,3.44,0,0,1-.32,1.22,14.52,14.52,0,0,0,2.1,12.49,11.74,11.74,0,0,1,1.91,1.6c.73.63,1.42,2.07,2.23.05.09-.41.2-.81.32-1.21a9.16,9.16,0,0,1,.43-1.28,4.07,4.07,0,0,1,1.64-2.17,1.89,1.89,0,0,1,2.16.08c.79.62.49,1.44-.09,2C311.43,251.61,312,253.23,311.13,254.34Z" transform="translate(-253.58 -187.47)"/><path class="cls-4" d="M296.07,301.6c10.87-7.16,20.72-15.68,31.14-23.44,1.46-.55,2.74-1.9,4.52-1-7,13.41-15.21,26.06-23.37,38.75-2.16,1.22-2.63,4.38-5.5,4.8-2.92.72-5.82,1.31-7.74-2-.91-2.07-3.39-4.2.89-5.75,1-.36-.33-3.11.82-4.53a4.62,4.62,0,0,0,.74-3.37C297.49,303.74,295.41,303.26,296.07,301.6Z" transform="translate(-253.58 -187.47)"/><path class="cls-5" d="M296.07,301.6c.68,1.23,2.67,1.33,2.69,3.13-.8.45-1.88.36-2.44,1.29a37.21,37.21,0,0,0-3.42,4.21,4.58,4.58,0,0,1-1.41,1.22c-2.61.72-3.95,3.67-6.83,3.94a1.73,1.73,0,0,1-1.05-.62c-.09-2.73,1.4-4.66,3.36-6.22C289.94,306.16,293,303.91,296.07,301.6Z" transform="translate(-253.58 -187.47)"/><path class="cls-6" d="M307.4,200.66c-.23,2.6-1.95.66-2.93,1-2-1.47-3.17,1-4.88.95-2.87-.22-5.67-.13-8.19,1.54a3.85,3.85,0,0,1-3.09-.74,4.13,4.13,0,0,1-2.07-2.47c0-1.56,1.35-1.45,2.28-1.85,6.35,1.25,12.48,1.2,18-2.92a2.34,2.34,0,0,1,.83,1.41c.16.72.33,1.44.48,2.16A1.09,1.09,0,0,1,307.4,200.66Z" transform="translate(-253.58 -187.47)"/><path class="cls-7" d="M292.36,340.37c.17,2.8-2.59,3.62-3.74,5.53a1.17,1.17,0,0,1-1.16.33,10,10,0,0,0-4.39-1.22c-4.41-2.19-4.52-2.8-1.09-6.25a7,7,0,0,1,3.85-.39C287.94,339.23,290.55,338.5,292.36,340.37Z" transform="translate(-253.58 -187.47)"/><path class="cls-8" d="M315.83,326.11c1.43,1.54,5.31,3.19-.33,4.32,1.09,2,2.61,1.11,4.09,1.07s3,.42,1,2.22a6,6,0,0,1-1.19,1.38c-1.69,1.29-3.46,2.95-5.7,1.51s-1.53-3.66-.66-5.7C313,328.75,315,327.78,315.83,326.11Z" transform="translate(-253.58 -187.47)"/><path class="cls-9" d="M311.91,344.23c.7.45,2.68.71.35,1.69s-4.84.73-7,2.15l2,1.78a6.11,6.11,0,0,1-2.8,1.52,6.73,6.73,0,0,1-3.15.18c-1.67-.28-1.65-1.53-1.58-2.81,1.93-.9,2.07-3.28,3.66-4.46,1.21.84,2.57.52,3.89.52C308.83,344.58,310.43,344.88,311.91,344.23Z" transform="translate(-253.58 -187.47)"/><path class="cls-10" d="M311.13,254.34a7.55,7.55,0,0,1,1.41-5.08c-2.77-.93-2,1.93-3.15,2.48-1.44-1.24-1.31-2.76-.75-4.35a2.14,2.14,0,0,1,1.82-1.08c2.89.47,5.55,1.8,8.44,2.29a2.8,2.8,0,0,1,.78,3.16,1.91,1.91,0,0,1-2.82.41C313.76,250,312.49,252.18,311.13,254.34Z" transform="translate(-253.58 -187.47)"/><path class="cls-11" d="M280.88,349.74c-1.31.88-2.16.44-2.68-.95-1.25-1.14-2.1-2.38-.93-4.08,1.94-1.41,3.94-.28,5.91-.15a3.3,3.3,0,0,1,2.59,1C286.35,349.5,283.56,349.56,280.88,349.74Z" transform="translate(-253.58 -187.47)"/><path class="cls-12" d="M313,330.91c.11,6.49.11,6.49,7.55,2.81.09,1.62-1.38,2.45-1.91,3.76-1.91,1.5-4.18,1.11-6.35,1.25-.93,0-1.85.07-2.78.14a2,2,0,0,1-1.25-.46A19.29,19.29,0,0,1,313,330.91Z" transform="translate(-253.58 -187.47)"/><path class="cls-13" d="M300.76,350.74h3.71c1.7-.63,3.13.52,4.7.73-.8,3.58-4.37,2.39-6.45,3.77l-2.89-.92C297.58,352.45,299.26,351.62,300.76,350.74Z" transform="translate(-253.58 -187.47)"/><path class="cls-14" d="M254.67,263.92c-.07-1.33.48-2,1.89-1.88h.58a4.53,4.53,0,0,1,2.12,1c1,1,2,2,1.32,3.67-.78.59-1.73,0-2.54.35-1.6.8.21,2.29-.64,3.25-.81,1.63,1.29,2.32,1.21,3.72-1.21,1.37-2.52,2.29-4.31.94a38.45,38.45,0,0,1-.08-3.87C254.45,268.69,253.7,266.25,254.67,263.92Z" transform="translate(-253.58 -187.47)"/><path class="cls-15" d="M346.75,230.27c-3.3-1.6-6.55-3.3-9.91-4.75-1.3-.56-1.81-1.58-1.31-2.46.77-1.36,1.75-.24,2.67.29,3.25,1.91,6.54,3.73,9.81,5.59Z" transform="translate(-253.58 -187.47)"/><path class="cls-16" d="M308.3,338.41a1,1,0,0,1,.57,0c1.35.19,3.05-.31,3.42,1.77-.42,1.66-.86,3.31-2.92,3.65a1.19,1.19,0,0,1-.81.82c-1.4,0-2.83.18-4.14-.54C304.85,341.61,306.64,340.06,308.3,338.41Z" transform="translate(-253.58 -187.47)"/><path class="cls-17" d="M262.11,287.56l-2.8-.11a3,3,0,0,1-.56-1.68c.3-1.62-.71-3-.7-4.63a4.73,4.73,0,0,1,.72-1.62c1.07-1.32,1-2.9,1-4.46a2,2,0,0,1,.66-1,1.87,1.87,0,0,1,1.23.13,4.64,4.64,0,0,1,1.44,5.38,4.11,4.11,0,0,0,.39,3.92,3.52,3.52,0,0,1,.26,1.28A7.81,7.81,0,0,1,262.11,287.56Z" transform="translate(-253.58 -187.47)"/><path class="cls-18" d="M359,231.6c.75-1.61,2.95-.33,3.74-1.88,1.34.18,2.08,1.19,2.9,2.09-1.54,2,.34,3.26,1.08,4.75a2.81,2.81,0,0,0-.6,1.08c-.31,1.42-.08,3.06-1.55,4a1.46,1.46,0,0,1-1.74-.59l.18-1.67c.55-1.58.89-3.15-.19-4.67C361.65,233.56,361,231.7,359,231.6Z" transform="translate(-253.58 -187.47)"/><path class="cls-19" d="M298,330.92l-1.12,2.84c-2.21.73-4.53-.31-6.73.45a5.7,5.7,0,0,1-1.3.15,2.44,2.44,0,0,1-2.43-1.92c.79-1.87,2.86-2,4.22-3.11a6,6,0,0,1,2.78-.44C295.12,329.17,296.82,329.45,298,330.92Z" transform="translate(-253.58 -187.47)"/><path class="cls-20" d="M260.3,274.21l0,1.08c-.42,1.1-.43,2.35-1.22,3.32-.61.83-.86,1.9-1.63,2.64a2.36,2.36,0,0,1-1.29.08c-1.36-.81-1.3-2.22-1.51-3.53a.46.46,0,0,1,.08-.49,1.46,1.46,0,0,1,0-2.07l3.72-1.92a1.55,1.55,0,0,1,1.09-.4C260.15,273.14,260.59,273.46,260.3,274.21Z" transform="translate(-253.58 -187.47)"/><path class="cls-21" d="M364.71,241.41c.78-1.5-.74-3.51,1-4.79,1.38,2,1.38,4.38,2,6.6-1.35,1-1.31,2.31-1.06,3.72-6,.84-6.64.19-4.8-4.74C363.38,243.92,363.94,242.3,364.71,241.41Z" transform="translate(-253.58 -187.47)"/><path class="cls-22" d="M302.69,319.73c3,.37,2.37-4.65,5.67-3.83-1.64,3.62-3.05,7.39-6.56,9.75a2.08,2.08,0,0,1-.67-1.09A7.39,7.39,0,0,1,302.69,319.73Z" transform="translate(-253.58 -187.47)"/><path class="cls-23" d="M280.88,349.74c1.56-1.3,4.22-1.18,4.81-3.73a1.34,1.34,0,0,1,1.94,0l1-.07C287.59,350.57,285.12,351.79,280.88,349.74Z" transform="translate(-253.58 -187.47)"/><path class="cls-23" d="M277.28,345l.92,3.76c-.63,0-1.24,1.11-1.88,0-.79-.81-2-.41-2.86-.95-.25,0-.5,0-.75,0-1.39-1.37.1-2.51.28-3.76a3.3,3.3,0,0,1,1.37-2.31,2.31,2.31,0,0,1,2,.07A3.36,3.36,0,0,1,277.28,345Z" transform="translate(-253.58 -187.47)"/><path class="cls-24" d="M295.22,334.82c0,1.63-.25,3.08-2.11,3.58A3.38,3.38,0,0,1,289,337a4.11,4.11,0,0,1-.28-1.34,2.71,2.71,0,0,1,.83-1.83l.07-.24C291.68,333,293.65,333,295.22,334.82Z" transform="translate(-253.58 -187.47)"/><path class="cls-25" d="M258.44,252.6c-.28-2.72,2.11-3.39,3.61-4.75a10.63,10.63,0,0,0,3.15-4.65c.69-.25,1.09.16,1.48.63a3.56,3.56,0,0,1,.66,1.69,2.93,2.93,0,0,1-.39,1.19,26.55,26.55,0,0,1-4.48,4.51C261.18,251.81,260.17,253.26,258.44,252.6Z" transform="translate(-253.58 -187.47)"/><path class="cls-26" d="M288.52,199l-1.83,1.61c-1.28,1.3-2.47.35-3.68-.12-1.11-.68-2.14-1.48-3.3-2.09-.79-.65-2-1-1.56-2.49C281.94,195.86,285.1,197.9,288.52,199Z" transform="translate(-253.58 -187.47)"/><path class="cls-27" d="M266.08,244.32l-.88-1.12c1.23-4,.25-8.17,1-12.21,1.38-.29,1.94.59,2.38,1.65.45,1.93-.65,4,.59,5.88a2.93,2.93,0,0,1-.06,1.25C268.06,241.26,268.5,243.75,266.08,244.32Z" transform="translate(-253.58 -187.47)"/><path class="cls-28" d="M272.42,210.12c3.81-2,5.85-4.9,4.84-9.39.83-.27,1.28.22,1.65.85a19.5,19.5,0,0,1,1.14,4,4.36,4.36,0,0,1-.56,2.8,7.29,7.29,0,0,1-5.12,2.63A2.58,2.58,0,0,1,272.42,210.12Z" transform="translate(-253.58 -187.47)"/><path class="cls-29" d="M289.5,336.51l3.61,1.89a1.87,1.87,0,0,1-.75,2c-2.24-.11-4.57.37-6.61-1-.39-1.72,1.3-1.78,2.05-2.6C288.34,336.43,288.88,336.14,289.5,336.51Z" transform="translate(-253.58 -187.47)"/><path class="cls-30" d="M257.49,255.42l.92-1.91c1.67-.3,2,1,2.48,2.1-.3,2.92-.46,5.94-4.36,6.41l0,0L255.45,261C255.36,258.83,257,257.34,257.49,255.42Z" transform="translate(-253.58 -187.47)"/><path class="cls-31" d="M378,206.45a5.83,5.83,0,0,1,.09-.84c.28-1.15.41-2.38,1.7-2.93,1.75-2.13,2.47.53,3.71.79-.31,1.66.87,3.51-.63,5C381.94,206.13,379.06,208.46,378,206.45Z" transform="translate(-253.58 -187.47)"/><path class="cls-32" d="M274.33,278c-.91,1.18-1.79,2.41-3.55,2.26a3.48,3.48,0,0,1-1.69-2.39c.4-2.82-.39-5.89,1.71-8.36,2.36.45,2.23,2,1.57,3.71s-.27,3.31,1.58,4.23Z" transform="translate(-253.58 -187.47)"/><path class="cls-33" d="M272.42,210.12l2.3.19c-.3,1.84-1.63,3.24-2.16,5a7.54,7.54,0,0,1-1.8,2.69,2.53,2.53,0,0,1-1.33.18c-.68-.31-1.21-.68-.69-1.53C270,214.51,270,211.62,272.42,210.12Z" transform="translate(-253.58 -187.47)"/><path class="cls-34" d="M326.39,195c-1.22.7-2.94-.45-3.94,1.06a1.8,1.8,0,0,1-1.81.51,5.19,5.19,0,0,1-1.77-1,2.89,2.89,0,0,1-.9-1.81,1.93,1.93,0,0,1,.85-1.77Z" transform="translate(-253.58 -187.47)"/><path class="cls-35" d="M269.82,278a2.64,2.64,0,0,1,1,2.2c.11,2.06-1.43,2.7-2.9,3.39a2.31,2.31,0,0,1-1.65-2.51,2.91,2.91,0,0,1,.88-1.66A5,5,0,0,1,269.82,278Z" transform="translate(-253.58 -187.47)"/><path class="cls-36" d="M267,230l.06-7.38a11.76,11.76,0,0,1,2.88-.63,1.38,1.38,0,0,1,1.07,1.29c-.28,1.19-1,2.18-1.37,3.35a11.38,11.38,0,0,1-1.5,3.38A1,1,0,0,1,267,230Z" transform="translate(-253.58 -187.47)"/><path class="cls-37" d="M274.53,342.23l-1.22,1.82a.77.77,0,0,1-1.11-.05l1.41-9.27c1.16-.3,1.34.57,1.6,1.34.2,1.15-.34,2.29-.1,3.45a5.54,5.54,0,0,1,.11,1.15A2.68,2.68,0,0,1,274.53,342.23Z" transform="translate(-253.58 -187.47)"/><path class="cls-38" d="M281,320.34l.55-.77c.74-.51,1.16-1.44,2.17-1.6a3.57,3.57,0,0,1,1.38.08,2.24,2.24,0,0,1,1.33,1.54,2.83,2.83,0,0,1-2,3.27,3,3,0,0,1-2.53-.77A2.51,2.51,0,0,1,281,320.34Z" transform="translate(-253.58 -187.47)"/><path class="cls-39" d="M364.71,241.41c0,.15,0,.31,0,.47,0,1.49.63,3.79-1.35,3.93-2.5.18-.75-2.45-1.48-3.61l.92-1.11Z" transform="translate(-253.58 -187.47)"/><path class="cls-40" d="M260.19,255.54l-1.78-2a3.46,3.46,0,0,1,0-.91c1.43-.26,2-2.3,3.72-1.92.91-.35,1.21.24,1.44.94A4.22,4.22,0,0,1,260.19,255.54Z" transform="translate(-253.58 -187.47)"/><path class="cls-41" d="M278.3,201.67l-1-.94c-1.32-1.89-1.47-3.57.89-4.78l2,1.76a4.85,4.85,0,0,0-.16,1.57C280.29,200.69,280.15,201.81,278.3,201.67Z" transform="translate(-253.58 -187.47)"/><path class="cls-42" d="M300.76,350.74c-.39,1.17-2.15,2-.93,3.57-6.21-1.75-.12-3.71-.09-5.57C300.92,349,299.72,350.43,300.76,350.74Z" transform="translate(-253.58 -187.47)"/><path class="cls-43" d="M298,330.92l-4.67-1.28a1.31,1.31,0,0,1-.13-1.84,3.31,3.31,0,0,1,1.28-.51,7.34,7.34,0,0,1,4.56,1.47,1,1,0,0,1,0,1.25Z" transform="translate(-253.58 -187.47)"/><path class="cls-44" d="M318.82,192l-.16,2.33a2,2,0,0,1-1.19.41,8.88,8.88,0,0,1-3.08-1.1c-.75-.51-1.65-.89-1.53-2,.94-1.14,2.07-.76,3.19-.41C317.07,191.13,318.13,190.93,318.82,192Z" transform="translate(-253.58 -187.47)"/><path class="cls-45" d="M283.68,318.52l-2.18,1.05c-.63-2.19-.15-3.89,2.11-4.8l1.31.16A3,3,0,0,1,283.68,318.52Z" transform="translate(-253.58 -187.47)"/><path class="cls-46" d="M281,320.34l.95,1.08a6.61,6.61,0,0,1-3.32,4.2,1.38,1.38,0,0,1-1.1-.4C277.67,322.9,278.07,320.74,281,320.34Z" transform="translate(-253.58 -187.47)"/><path class="cls-47" d="M299,330l-.29-1.17c-1-.94-2.31-.92-3.46-1.38a2.4,2.4,0,0,1-1.36-1.36,1.53,1.53,0,0,1,.46-1.21,3.2,3.2,0,0,1,2-.27c1.7.55,3.8.42,4.56,2.62A2.91,2.91,0,0,1,299,330Z" transform="translate(-253.58 -187.47)"/><path class="cls-48" d="M275.35,332.57c-1.45-1-.51-1.87.15-2.75a1.62,1.62,0,0,1,1.33,0c1.33,1.11,3.77,1.65,2.19,4.26a3.26,3.26,0,0,1-2.87.24C275.47,333.94,274.89,333.49,275.35,332.57Z" transform="translate(-253.58 -187.47)"/><path class="cls-49" d="M267,281c.31.9.62,1.79.92,2.68l-.3.21-.36-.06c-1.37.22-2.36,2.17-4.06.9l-.05-1C263.2,281.1,264.63,280.39,267,281Z" transform="translate(-253.58 -187.47)"/><path class="cls-50" d="M304.42,344.1c1.3-.25,2.6-.94,3.9,0,.52,1.17-.37,1.41-1.14,1.73-1.57.25-3.16.54-3.78-1.54Z" transform="translate(-253.58 -187.47)"/><path class="cls-51" d="M379.79,202.68c-.38,1.08-.59,2.27-1.7,2.93-1.08-1.06-3.33.29-3.86-1.89C376.17,203.83,377.78,202.2,379.79,202.68Z" transform="translate(-253.58 -187.47)"/><path class="cls-52" d="M319.68,251.76l-1-2.9a1.26,1.26,0,0,1,1.06-1.09l2.8,1.11A5.34,5.34,0,0,1,319.68,251.76Z" transform="translate(-253.58 -187.47)"/><path class="cls-53" d="M295.22,334.82c-1.88-.42-3.77-.83-5.65-1.26,2.49-1.86,4.89-.34,7.31.2C296.68,334.67,295.86,334.6,295.22,334.82Z" transform="translate(-253.58 -187.47)"/><path class="cls-54" d="M272.2,344l1.11.05c.74,1.43-1.22,2.43-.6,3.84-1.06,1.19-1.89,1.25-1.71-.6A13.77,13.77,0,0,1,272.2,344Z" transform="translate(-253.58 -187.47)"/><path class="cls-55" d="M257.49,255.42c.47,2.27-1.3,3.72-2,5.55C253.86,258.28,256.11,257,257.49,255.42Z" transform="translate(-253.58 -187.47)"/><path class="cls-56" d="M316.05,191.17c-1,.43-2.29-.22-3,1a1.85,1.85,0,0,1-1.73.72,2.06,2.06,0,0,1-1.12-.65C311.43,187.93,314,190.75,316.05,191.17Z" transform="translate(-253.58 -187.47)"/><path class="cls-57" d="M263.16,284.68c1.41,0,2.54-1.34,4.06-.9-1,2.16-3.28,2.69-5.11,3.78A2.81,2.81,0,0,1,263.16,284.68Z" transform="translate(-253.58 -187.47)"/><path class="cls-58" d="M254.61,277.8c1.52.53.87,2.28,1.77,3.16.74.43.71,1.05.44,1.73a.83.83,0,0,1-1.16.08C254.22,281.35,253.54,279.76,254.61,277.8Z" transform="translate(-253.58 -187.47)"/><path class="cls-59" d="M331.73,277.15l-4.52,1a5.47,5.47,0,0,1,4.65-2.3C333.06,275.8,332.43,276.74,331.73,277.15Z" transform="translate(-253.58 -187.47)"/><path class="cls-60" d="M255.66,282.77a.45.45,0,0,0,.62.07,3,3,0,0,1,2.94,2.85l.09,1.76C257.5,286.36,255.82,285.16,255.66,282.77Z" transform="translate(-253.58 -187.47)"/><path class="cls-61" d="M254.67,263.92c-.21,2.49.67,5-.12,7.48-.21.49-.44.47-.66,0C254.13,268.91,252.64,266.23,254.67,263.92Z" transform="translate(-253.58 -187.47)"/><path class="cls-62" d="M275.35,332.57l1,1.14a1.6,1.6,0,0,1,.52,1.12c-.28,1.17-.87,2-2.22,1.8-.33-.64-.08-1.57-1-1.9A1.73,1.73,0,0,1,275.35,332.57Z" transform="translate(-253.58 -187.47)"/><path class="cls-63" d="M300.93,327.24l-4.9-1.9c1.8-1.8,3.76-1.53,5.78-.42a.76.76,0,0,1,0,.73C302.62,326.78,301.63,326.93,300.93,327.24Z" transform="translate(-253.58 -187.47)"/><path class="cls-64" d="M276.36,330.16l-.86-.34a6.92,6.92,0,0,1,2-4.6l.55,0C279.38,327.48,278.77,329.12,276.36,330.16Z" transform="translate(-253.58 -187.47)"/><path class="cls-65" d="M363.11,256.49c-1,2.15.8,3.18,1.75,4.56C362.35,260.28,360,259.44,363.11,256.49Z" transform="translate(-253.58 -187.47)"/><path class="cls-66" d="M306.5,198l0-1.91a2.62,2.62,0,0,1,1.75-2.26,2.54,2.54,0,0,1,1,2.17C308.91,197.53,308.43,198.76,306.5,198Z" transform="translate(-253.58 -187.47)"/><path class="cls-67" d="M267,230a3.64,3.64,0,0,1,.74,0,4.25,4.25,0,0,1,2.87.6,1.44,1.44,0,0,1,.41,1.09,2.16,2.16,0,0,1-.77.92,2.35,2.35,0,0,1-2.31.32L266.19,231Z" transform="translate(-253.58 -187.47)"/><path class="cls-68" d="M411,238.55a3,3,0,0,1-3.83.21c-.6-.44-.49-1,.31-1.32Z" transform="translate(-253.58 -187.47)"/><path class="cls-69" d="M269.77,222.34c-.85.8-1.8.56-2.75.26l1.74-2.1.47-.37a1.57,1.57,0,0,1,1.63.38C271.09,221.48,270.58,222,269.77,222.34Z" transform="translate(-253.58 -187.47)"/><path class="cls-70" d="M273.46,347.87c1.23-.52,2.65-1.59,2.86.95C275,349.71,273.91,349.69,273.46,347.87Z" transform="translate(-253.58 -187.47)"/><path class="cls-71" d="M308.46,196.26l-.24-2.4c-.23-1.65.93-1.57,2-1.62l1.13.06a1.35,1.35,0,0,1,0,1.16C310.44,194.45,310.16,196.09,308.46,196.26Z" transform="translate(-253.58 -187.47)"/><path class="cls-72" d="M253.89,271.41a2.91,2.91,0,0,1,.66,0l.18,3.84c0,.69,0,1.38,0,2.07C252.92,275.55,253.87,273.42,253.89,271.41Z" transform="translate(-253.58 -187.47)"/><path class="cls-73" d="M420.29,297l1.91-1.1c.1.89.27,2-.68,2.36S420.31,297.86,420.29,297Z" transform="translate(-253.58 -187.47)"/><path class="cls-32" d="M273.48,276.16a2.21,2.21,0,0,1,2.77,0,3.12,3.12,0,0,1-1.92,1.84l-.29-.24C273.51,277.33,273.06,276.9,273.48,276.16Z" transform="translate(-253.58 -187.47)"/><path class="cls-74" d="M258.07,315.5c-.21-.2-.65-.43-.77-.77-.21-.56.28-.79.72-.68a1.44,1.44,0,0,1,.93.68C259.12,315.2,258.77,315.52,258.07,315.5Z" transform="translate(-253.58 -187.47)"/><path class="cls-65" d="M362.8,234.75c1.66,1.49,1.47,3.06.19,4.67C362.93,237.86,362.87,236.31,362.8,234.75Z" transform="translate(-253.58 -187.47)"/><path class="cls-75" d="M309.11,188.44c-.84-.08-2.39-.06-2.42-.25-.16-1.18.89-.54,1.42-.63a3.27,3.27,0,0,1,1.22.26Z" transform="translate(-253.58 -187.47)"/><path class="cls-25" d="M268.74,216.64l1.15,1.13c.42,1.27-.31,2-1.21,2.71l.08,0C267.11,219.22,267.66,217.94,268.74,216.64Z" transform="translate(-253.58 -187.47)"/><path class="cls-76" d="M319.55,340.25l-5.67,0a1.21,1.21,0,0,1,.12-1.34c1.45-1.24,3.07-1.1,4.74-.59l1.71.2C321.16,339.6,320.11,339.8,319.55,340.25Z" transform="translate(-253.58 -187.47)"/><path class="cls-8" d="M318.74,338.29c-1.66.07-3.34,0-4.79,1.09-1.35,0-2.78.09-2.88-1.87l7.61,0Q318.7,337.89,318.74,338.29Z" transform="translate(-253.58 -187.47)"/><path class="cls-44" d="M309.23,350.76c2.13-2.27,3.87-.07,6.66.25a8,8,0,0,1-6.7-.29Z" transform="translate(-253.58 -187.47)"/><path class="cls-12" d="M319.55,340.25l.9-1.76,4.79,1.14,0,.62Z" transform="translate(-253.58 -187.47)"/><ellipse class="cls-77" cx="89.11" cy="146.71" rx="4.61" ry="0.33"/><path class="cls-78" d="M326.11,323.82c-2.09.53-3.4.73-4.87,0C322.68,322.51,324,321.94,326.11,323.82Z" transform="translate(-253.58 -187.47)"/><path class="cls-79" d="M311.07,337.51l2.88,1.87a4.76,4.76,0,0,1-.07.84l-1.59-.05c-.79-1.27-2.8-.18-3.42-1.77A2,2,0,0,1,311.07,337.51Z" transform="translate(-253.58 -187.47)"/><path class="cls-80" d="M333.77,333.32a15.43,15.43,0,0,1-7.55-.17A15.7,15.7,0,0,1,333.77,333.32Z" transform="translate(-253.58 -187.47)"/><path class="cls-81" d="M327.32,321.89c-.89.08-.94-.62-1-1.21s0-1.33.71-1.49c.89-.21.93.59,1,1.17A1.32,1.32,0,0,1,327.32,321.89Z" transform="translate(-253.58 -187.47)"/><path class="cls-82" d="M309.17,351.46a6.71,6.71,0,0,1-4.7-.74c.64-1.23,1.76-.93,2.8-.87l2,.91,0,0A6,6,0,0,1,309.17,351.46Z" transform="translate(-253.58 -187.47)"/><path class="cls-77" d="M333.1,340.83a7.16,7.16,0,0,1-5.29-.09A7.07,7.07,0,0,1,333.1,340.83Z" transform="translate(-253.58 -187.47)"/><path class="cls-83" d="M307.18,345.82l1.14-1.73,1.05-.27,2.54.4A7.14,7.14,0,0,1,307.18,345.82Z" transform="translate(-253.58 -187.47)"/><path class="cls-84" d="M378,206.45c2.09-.45,4.72-2.17,4.87,2-2,4.16-5.14,7.3-8.64,10.16-1.5-.67-1.5-.67-.48-3.7a5.28,5.28,0,0,1,2.35-4.79C376.87,209,376.73,207.36,378,206.45Z" transform="translate(-253.58 -187.47)"/><path class="cls-15" d="M367.75,243.22c-3.65-1.29-1.34-4.4-2-6.6l.95-.06c3.87,3.38,9.46,4.42,12.31,9.16a1.52,1.52,0,0,1-.06,2C375.24,246.18,372.27,242.79,367.75,243.22Z" transform="translate(-253.58 -187.47)"/><path class="cls-65" d="M365.62,231.81a2.94,2.94,0,0,1-2.9-2.09l7.59-8.46a1.44,1.44,0,0,1,1.17,1.2Z" transform="translate(-253.58 -187.47)"/><path class="cls-85" d="M388.36,263c1.25,1.29,1.28,3.47,3.38,4.22a1.62,1.62,0,0,1,.86,2.65c-1.16,1.21-1.85-.38-2.61-1-1.65-1.28-4-2.06-3.57-4.91A2.17,2.17,0,0,1,388.36,263Z" transform="translate(-253.58 -187.47)"/><path class="cls-15" d="M371.48,222.46l-1.17-1.2,3-6.37c.25-.41.54-.44.88-.1.44,1.28-1.67,2.6.05,3.86Z" transform="translate(-253.58 -187.47)"/><path class="cls-86" d="M379,247.75l.06-2c1.62.11,2.33,1.63,3.59,2.3-.06,1.48-.8,1.43-1.8.81Z" transform="translate(-253.58 -187.47)"/><path class="cls-87" d="M380.8,248.83l1.8-.81c1.57,0,1.68,1.42,2.67,2.27C383,251.33,382,249.82,380.8,248.83Z" transform="translate(-253.58 -187.47)"/><path class="cls-88" d="M388.36,263a2,2,0,0,1-1.94,1c-.57-.38-.95-1-.39-1.47C386.89,261.7,387.71,262.14,388.36,263Z" transform="translate(-253.58 -187.47)"/><path class="cls-78" d="M302.55,215c3,1.6,6.85,1.11,9.54,3.62a6.3,6.3,0,0,1,1.58,3.9c.08,1.92-1.07,3.1-2.48,4.13-4.55.33-7.79-2.68-11.47-4.57a4,4,0,0,1-1.54-2.42C297.87,216.41,299.84,215.34,302.55,215Z" transform="translate(-253.58 -187.47)"/><path class="cls-89" d="M291.23,211.06l3,1.81c-.95,2.8-.84,5.77-1.36,8.65-1.39,3-3.34,3.21-5.7,1.08a18.15,18.15,0,0,0-2.6-1.83,7.12,7.12,0,0,1-1.48-2.19c-1.79-4.43-1.45-5,4.78-8.19A4,4,0,0,1,291.23,211.06Z" transform="translate(-253.58 -187.47)"/><path class="cls-25" d="M316.77,219.7c2.35-1.91,3.18-.39,2.72,1.61-.89,3.93-1.23,8.33-5.58,10.48a18,18,0,0,1-2.19-2.72,3,3,0,0,1-.21-1.19,2.68,2.68,0,0,1,.46-1.15,6.26,6.26,0,0,0,2.32-4.24C314.81,221.29,315.39,220.14,316.77,219.7Z" transform="translate(-253.58 -187.47)"/><path class="cls-90" d="M310.33,232.76c.69.33,1.71.47,2,1,2.2,4,4.25,8.13,6.35,12.21-1.36.74-2.58.07-3.82-.37-3.79-2.52-5.07-6.21-4.9-10.57C309.75,234.23,309.5,233.41,310.33,232.76Z" transform="translate(-253.58 -187.47)"/><path class="cls-66" d="M288.92,202.6l2.31.93a8.3,8.3,0,0,1,2.53.33c1,.57,1.89,1.17,1.4,2.55a1.1,1.1,0,0,0-.45.05,5.1,5.1,0,0,0-.62.51l3.93,1.85c-3.07.51-5.86-2.06-7.51,1.14a.76.76,0,0,1-1.16.36,3.51,3.51,0,0,1-.86-1.16c-.69-1.83-1.3-3.67-.63-5.66A1.45,1.45,0,0,1,288.92,202.6Z" transform="translate(-253.58 -187.47)"/><path class="cls-91" d="M307.4,200.66a4.74,4.74,0,0,0-.06-.75,2.61,2.61,0,0,1,3-.83c.86,1.2,1.64.26,2.44-.12a10,10,0,0,1,3.62-.84c1.46.11,2.64-1.11,4.12-.9a2.41,2.41,0,0,1,1.09.58c-1,1.31-.53,3.74-3,3.94A20.36,20.36,0,0,1,307.4,200.66Z" transform="translate(-253.58 -187.47)"/><path class="cls-92" d="M305.56,206.4c1.61.49,3.26.88,4.81,1.51.86.35,2.61.18,2.18,1.78a2.07,2.07,0,0,1-3.08,1.19c-2.08-1.55-4.78-1.11-6.8-2.58a3.06,3.06,0,0,1,1.82-2.26A1.19,1.19,0,0,1,305.56,206.4Z" transform="translate(-253.58 -187.47)"/><path class="cls-82" d="M314.91,245l3.78,1c.34.59.68,1.19,1,1.78l-1.06,1.09c-2.89.93-5.14-.58-7.42-1.94C311.2,243.85,313.33,245,314.91,245Z" transform="translate(-253.58 -187.47)"/><path class="cls-93" d="M318.67,201.74l2.85-3.69a1,1,0,0,1,1.07-.42c.86.47,2.23.54,1.74,2.12-.73.13-2-.28-2.07.56-.15,1.22,1.12,1.72,2.09,2.17s3.28,0,2.5,1.79c-1,2.33-2.18-.34-3.29-.61A35.67,35.67,0,0,1,318.67,201.74Z" transform="translate(-253.58 -187.47)"/><path class="cls-94" d="M298.94,219.56l1.1,1.93a1.16,1.16,0,0,1-.44,1.11l-.62.15a3.78,3.78,0,0,1-2.23-1.09,13.17,13.17,0,0,0-2.81-3.78c-.59-1.87-.49-3.58,1.21-4.89,1.36-.53,2,1.14,3.14,1.1C299.88,215.75,297.71,217.86,298.94,219.56Z" transform="translate(-253.58 -187.47)"/><path class="cls-95" d="M316.77,219.7l-1.87,2.79a1.32,1.32,0,0,1-1.87-.06c-1.36-1-.74-2.54-.94-3.85C314.05,217.27,315.59,217.73,316.77,219.7Z" transform="translate(-253.58 -187.47)"/><path class="cls-91" d="M324.33,199.75l-1.9-1.64c-.05-.69.55-.84,1-1.15,2,1.57,4.76,1.15,7,2.36C328.4,202.41,326.35,200.71,324.33,199.75Z" transform="translate(-253.58 -187.47)"/><path class="cls-96" d="M295.16,206.41a3.29,3.29,0,0,0-2-1.93c.13-2.32,1.86-1.78,3.26-1.83a6.45,6.45,0,0,1,2.76.88,3.42,3.42,0,0,1,1.82,2.1c-.37,1.12-1,1.51-2.05.76C297.72,206.37,296.43,205.52,295.16,206.41Z" transform="translate(-253.58 -187.47)"/><path class="cls-78" d="M295.15,213l-.93,4.74a1.17,1.17,0,0,1,.39,1.06c-.36,1.12-.47,2.4-1.84,2.89l-.53-.28c.31-2.93-1.22-6.3,2-8.53C294.56,212.92,294.85,213,295.15,213Z" transform="translate(-253.58 -187.47)"/><path class="cls-97" d="M298.94,219.56c-1.55-1.66-.78-3.6-.65-5.47,1.65-.86,2.78.85,4.26.87C300.67,216,299,217.15,298.94,219.56Z" transform="translate(-253.58 -187.47)"/><path class="cls-98" d="M312.07,229c1.87.11,2,1.36,1.84,2.8l-3.66.1-.46-.43a2.44,2.44,0,0,1,.08-2.41,2,2,0,0,1,1.1-.56A1.73,1.73,0,0,1,312.07,229Z" transform="translate(-253.58 -187.47)"/><path class="cls-99" d="M299,206.39a1.82,1.82,0,0,0,1.78-.85,1.53,1.53,0,0,1,1.18-.45c1,.44,2.24.3,2.68,1.59l-2,1.62C301.29,208,299.08,209.23,299,206.39Z" transform="translate(-253.58 -187.47)"/><path class="cls-100" d="M374.18,214.79l-.44.11h-.44a31.15,31.15,0,0,1,.64-5c.94-3.17,1.36.74,2.16.23C376.25,212,374.4,213.07,374.18,214.79Z" transform="translate(-253.58 -187.47)"/><path class="cls-28" d="M322.41,221.83c1-3.59,2.89-3.12,5.48-3.14Z" transform="translate(-253.58 -187.47)"/><path class="cls-101" d="M310.33,232.76a1.67,1.67,0,0,0,.79,1.94c.49,1.13-.34,1.6-1.05,2.12a1.94,1.94,0,0,1-1.32-.16c-1.45-1.11-2.19-2.38-.93-4.1.69-.63,1.38-1.25,2.4-.7l0,0A8.52,8.52,0,0,0,310.33,232.76Z" transform="translate(-253.58 -187.47)"/><path class="cls-102" d="M299.86,201.71c1.53-.25,3-3,4.61-.09a2.89,2.89,0,0,0-2.67,1.77,1,1,0,0,1-1,.48,2.33,2.33,0,0,1-1.29-1.14A.9.9,0,0,1,299.86,201.71Z" transform="translate(-253.58 -187.47)"/><path class="cls-103" d="M300.88,203.47a1.79,1.79,0,0,0,.92-.08l1.77,1.18c.09,1.76-.91,1.34-1.9,1l-.44-.05-.45.06L299,204.33C299.05,202.75,299.94,203.06,300.88,203.47Z" transform="translate(-253.58 -187.47)"/><path class="cls-99" d="M349.52,220.11c0,1-.56,1.28-1.21,1.06a1.07,1.07,0,0,1-.84-1.37,6.7,6.7,0,0,1,1-1.39Z" transform="translate(-253.58 -187.47)"/><path class="cls-104" d="M301.67,205.53c.7-.19,1.58,0,1.9-1,.93.32,1.8.7,2,1.83l-.92.28Z" transform="translate(-253.58 -187.47)"/><path class="cls-105" d="M289.6,210.16l.91-.2.72,1.1-3.61.05c-1.18.19-1.22-.36-.79-1.22A2.18,2.18,0,0,1,289.6,210.16Z" transform="translate(-253.58 -187.47)"/><path class="cls-106" d="M323.39,197l-1,1.15L322,198l-.46,0a3.23,3.23,0,0,0-.85-.32,1.18,1.18,0,0,1-.11-1.82l1.89.11Z" transform="translate(-253.58 -187.47)"/><path class="cls-107" d="M311.19,229l-1,.08c-1.13.92-1.61,2.42-2.88,3.22a2.27,2.27,0,0,1-1.84-.06c-1.2-.84-1.46-2.56-2.93-3.15-1.19-.58-2.55-1-2.29-2.79-.88-1-.64-2.4-1.15-3.54l.9-1.22c4.06.72,7,4.12,11.11,4.69.85-.22,1.17.09.94.95,0,.31,0,.62,0,.93A5.47,5.47,0,0,1,311.19,229Z" transform="translate(-253.58 -187.47)"/><path class="cls-108" d="M284.83,220.52c1.75-1.09,2.54.6,3.23,1.45,1.88,2.33,3,.87,4.18-.57l.32.28c2.18,1.55-.48,3.11,0,4.67-1.08.85-1.59,2.38-3.15,2.66-1.15,1.06-2.35.16-3.53.08-2.1-.86-2.31-2.9-2.93-4.69a14,14,0,0,1-.46-1.8,2.46,2.46,0,0,1,.18-1.2A2.54,2.54,0,0,1,284.83,220.52Z" transform="translate(-253.58 -187.47)"/><path class="cls-109" d="M273.48,276.16c.19.52.38,1,.56,1.58-2.53.08-2.52-1.78-2.34-3.41a11.06,11.06,0,0,0-.17-4.86c-1.68-.83-1.34-2.32-1.19-3.74a4.43,4.43,0,0,1,1.11-1.46,11.79,11.79,0,0,1,4.7-2.82,5.19,5.19,0,0,1,1.24-.21,2.33,2.33,0,0,1,1.7.73c-2.72,2.19-5.79,4.42-4,8.5C276.16,273.08,270.59,273.38,273.48,276.16Z" transform="translate(-253.58 -187.47)"/><path class="cls-110" d="M267.9,232.87l1.91-.87c1.45.5,3-.74,4.42.29a2.82,2.82,0,0,1,1.1,1.58,2.89,2.89,0,0,1-.09,2.5,6.28,6.28,0,0,1-.73.25,7.5,7.5,0,0,1-4.61,2.3,1.59,1.59,0,0,1-1.18-.45C264.94,237.12,268.59,234.68,267.9,232.87Z" transform="translate(-253.58 -187.47)"/><path class="cls-111" d="M283.85,223.36l2,5.73c-1.71.22.23,3-2,2.87a4.13,4.13,0,0,1-1-.68c-1.42-1.5-4.16.5-5.21-2-.47-1.71.67-2.57,1.78-3.46.23-.3.46-.61.68-.93a9,9,0,0,1,.64-1,3.22,3.22,0,0,1,1.41-1.06A2.24,2.24,0,0,1,283.85,223.36Z" transform="translate(-253.58 -187.47)"/><path class="cls-112" d="M309.26,246.94c0,1.6.09,3.2.13,4.8l-.24.94c-4.07-1.53-2.64-5.12-3-8.05-.05-1.85.57-3.62.58-5.48,0-1.49.54-2.75,2.42-2.64l.22.12C310.5,240.08,311.71,243.53,309.26,246.94Z" transform="translate(-253.58 -187.47)"/><path class="cls-113" d="M307.32,244.14c.24,2.93-.53,6.07,1.83,8.54a1.64,1.64,0,0,1,0,.73c-1.06,2.23-2.41,1.25-3.74.33l-1.84-1.3a1.35,1.35,0,0,1-.18-1.22c1.55-2.11,1.65-4.8,2.75-7.1A.84.84,0,0,1,307.32,244.14Z" transform="translate(-253.58 -187.47)"/><path class="cls-114" d="M303.65,251.52c0,.31,0,.62,0,.92-3.44-2.51-4.63-10.89-2-14.11a1.79,1.79,0,0,1,.65,1.06c.68,2.83.06,5.86,1.37,8.59a5.1,5.1,0,0,1,.58,1.14A2.65,2.65,0,0,1,303.65,251.52Z" transform="translate(-253.58 -187.47)"/><path class="cls-115" d="M276.4,242.43c1.28,1.73,4.88-.52,4.84,2,0,1.74-3.27.73-4.89,1.55-.66.39-1.19,0-1.73-.28-1.13-.89-2.92-1.31-2.4-3.37a2.28,2.28,0,0,1,1-.85C274.47,241.26,275.62,241.21,276.4,242.43Z" transform="translate(-253.58 -187.47)"/><path class="cls-116" d="M301.9,239.44c-.1-.37-.19-.74-.29-1.11a1.78,1.78,0,0,0-.1-.69,1,1,0,0,1,.23-1.33c.29-.11.65-.29.88-.16,3.66,2,4.26,10,1,12.72h0C301.87,245.93,302.39,242.6,301.9,239.44Z" transform="translate(-253.58 -187.47)"/><path class="cls-117" d="M282.22,233.8c.66,1.62,2.17.35,3.69.83-3.28,2.24-6.46,2.07-9.63,1.88,0-1.95,2-2.56,2.71-4.09C280.8,231.17,282,231.42,282.22,233.8Z" transform="translate(-253.58 -187.47)"/><path class="cls-83" d="M302.58,229c2.49-.82,2.92.74,3,2.65-.05,2-1.72,2.42-3.11,3.11-1.54.18-1.1-1.35-1.7-2C300.39,231.08,303.56,231,302.58,229Z" transform="translate(-253.58 -187.47)"/><path class="cls-99" d="M278.2,247.89l.1,5.61c-.25,2.58-1.68,1.31-2.85.88a4.12,4.12,0,0,1-1.29-1.49,2.88,2.88,0,0,1-.13-1.27,7.9,7.9,0,0,1,2.55-3.46C277.08,247.81,277.57,247.44,278.2,247.89Z" transform="translate(-253.58 -187.47)"/><path class="cls-118" d="M276.4,242.43l-3.89-.25c-.84-1.17-.28-2.1.5-3a4.85,4.85,0,0,1,2.37-1c1.46,0,2.23,1,3,2,.28,1.05-.4,1.52-1.16,1.94Z" transform="translate(-253.58 -187.47)"/><path class="cls-119" d="M275.35,253.5c1,.38,2,1.58,2.95,0,1.44,1,2.59,2.11,1,3.89a3.13,3.13,0,0,0-2,.25,6.66,6.66,0,0,1-2.27-.13,9.52,9.52,0,0,1-1.18-.25,2.29,2.29,0,0,1-1.44-1C272.6,254.5,274.14,254.18,275.35,253.5Z" transform="translate(-253.58 -187.47)"/><path class="cls-120" d="M277.26,257.12c.29-.44.56-1.21.9-1.24,1-.1.95.83,1.11,1.5.81,1.57,1,3.11-.18,4.59l-1.94-.07C276.82,260.3,276.39,258.69,277.26,257.12Z" transform="translate(-253.58 -187.47)"/><path class="cls-121" d="M278.2,247.89l-.95,1c-1.13.23-2.28.21-3.42.35a2.28,2.28,0,0,1-1.06-.59,2.42,2.42,0,0,1-.59-1.76,3.09,3.09,0,0,1,1.37-2.13,1.82,1.82,0,0,1,1.82.28l1,1Z" transform="translate(-253.58 -187.47)"/><path class="cls-122" d="M279.25,232.7c.53,2.46-1.77,2.71-3,3.81l-1-.14c-.29-.63-.59-1.26-.89-1.89,1-.43,1.12-1.63,2-2.12a2.83,2.83,0,0,1,2.41-.07Z" transform="translate(-253.58 -187.47)"/><path class="cls-123" d="M282.22,233.8c-.59-1.45-1.55-1.88-3-1.1l-.06.06c.21-2.68.95-3,4.65-1.94,0,.38,0,.76,0,1.14A1.65,1.65,0,0,1,282.22,233.8Z" transform="translate(-253.58 -187.47)"/><path class="cls-124" d="M299.14,222.71c2.11.62,1.84,2,1.15,3.55l-2.09.17c-1.4-1.63-1.9-3.13.67-4.11A2.7,2.7,0,0,1,299.14,222.71Z" transform="translate(-253.58 -187.47)"/><path class="cls-125" d="M277.23,242.14l.81-1.65a1.8,1.8,0,0,1,1.08-1.39,1.37,1.37,0,0,1,1.13.31c.39.71,1.27,1.92,1.11,2.07C280.21,242.6,278.66,242.18,277.23,242.14Z" transform="translate(-253.58 -187.47)"/><path class="cls-122" d="M275.4,238.34a1.73,1.73,0,0,1-1.77,1c-1.38.1-2.8.36-3.81-1a11.15,11.15,0,0,1,4.69-1.76l.84.95c.34.14.47.31.37.49S275.51,238.34,275.4,238.34Z" transform="translate(-253.58 -187.47)"/><path class="cls-126" d="M297,227l-3.55,2.21c-1.12.24-2.43.72-1.89-1.36,1.84-.71,2.75-4,5.56-2A.83.83,0,0,1,297,227Z" transform="translate(-253.58 -187.47)"/><path class="cls-117" d="M280.25,239.41l-1.09.05c-1.52.3-2.11-.37-1.91-1.86,1.05,0,2.09,0,3.14,0,.64,0,1.24.3,1.21,1S280.84,239.34,280.25,239.41Z" transform="translate(-253.58 -187.47)"/><path class="cls-94" d="M292.24,228c-.85,1.65.73.83,1.18,1.16-1.4,1.31-2.73,1.12-4-.19a4.62,4.62,0,0,1,2.95-2.77A1.13,1.13,0,0,1,292.24,228Z" transform="translate(-253.58 -187.47)"/><path class="cls-10" d="M305.45,253.74c1.26.08,2.55.39,3.74-.33,0,1.34-.26,2.67-1.89,2.64C306,256,305.58,254.91,305.45,253.74Z" transform="translate(-253.58 -187.47)"/><path class="cls-127" d="M297,227a4.73,4.73,0,0,0-.05-.75c-.34-.77-.87-1.43-1.19-2.22a2.49,2.49,0,0,1,1.5-2.6l1.64.9c-1.44,1.17-.78,2.69-.67,4.11Z" transform="translate(-253.58 -187.47)"/><path class="cls-128" d="M300.81,232.81l1.7,1.7.41.34c.16.87-.63,1.19-1,1.77l-.42,1C300.16,236.19,300.25,234.54,300.81,232.81Z" transform="translate(-253.58 -187.47)"/><path class="cls-129" d="M277.25,237.6l1.91,1.86-1.12,1c-1.41-.06-1.62-1.6-2.64-2.15a2.83,2.83,0,0,0,0-.77Z" transform="translate(-253.58 -187.47)"/><path class="cls-130" d="M291.35,311.15l.94-1c1.32-1.17,2.39-2.77,4.49-2.59a2.41,2.41,0,0,1,1.18.62c-1.7,1.84.76,5.68-3.27,6.63-.57.13.81,2.4,1.44,3.61l-.34.53c-1.69,1.37-3.34-1.38-5,0a8.44,8.44,0,0,1-3.16,1.8,1.18,1.18,0,0,1-1.35-1c0-.88-.57-1.56-.8-2.35C286.91,314.82,289.2,313.05,291.35,311.15Z" transform="translate(-253.58 -187.47)"/><path class="cls-131" d="M301.81,324.92l-5.78.42-1.81-.15c-2.49-1.17-4.22-2.83-3.72-5.89,1.69-1.38,3.62.42,5.35-.4a1.42,1.42,0,0,1,.28-.49c1.67,3,4.18,1.85,6.56,1.32C302.4,321.46,302.1,323.19,301.81,324.92Z" transform="translate(-253.58 -187.47)"/><path class="cls-132" d="M298,308.17l-1-.27a1.84,1.84,0,0,1-.79-2.24c0-2.77,1.47-1.32,2.59-.93C298.51,305.88,299.36,307.29,298,308.17Z" transform="translate(-253.58 -187.47)"/><path class="cls-133" d="M291.35,311.15c-.89,3-3.2,4.73-5.53,6.46-.15.63-.73.73-1.18,1l-1-.08a5.05,5.05,0,0,1,1.24-3.6C287.26,314,288,310.31,291.35,311.15Z" transform="translate(-253.58 -187.47)"/><path class="cls-134" d="M296.17,305.66l.79,2.24c-2-.11-2.53,2.72-4.67,2.24C292.48,307.7,294.15,306.53,296.17,305.66Z" transform="translate(-253.58 -187.47)"/><path class="cls-135" d="M288.92,202.6l-.27,1c-.6.55-1,1.4-1.91,1.49-1.69,0-3-1.2-4.67-1.35-1.21-1.18-1.82-2.5-1-4.16a1.59,1.59,0,0,1,1.89.25l3.71.87Z" transform="translate(-253.58 -187.47)"/><path class="cls-136" d="M311,200l-3.67-.05c-1.12-.25-1-1-.84-1.88,1.08-.12,1.9-.53,2-1.77,1.26-.81.17-3.37,2.49-3.39a1.69,1.69,0,0,1,.9,1.53C311.72,196.27,313.42,198.43,311,200Z" transform="translate(-253.58 -187.47)"/><path class="cls-137" d="M299.86,201.71v.76c-.63,1.18-2,.4-2.83,1.09-1.31.12-2.8-.43-3.82.92a2,2,0,0,1-2-.95C293.57,200.37,296.8,201.43,299.86,201.71Z" transform="translate(-253.58 -187.47)"/><path class="cls-138" d="M277.28,345c-1.12-.66-.93-1.77-1-2.8.28-.69.84-1.21,1.14-1.88.06-.17.13-.34.2-.51a2.49,2.49,0,0,1,.63-.91,4.48,4.48,0,0,1,2-.87,1.77,1.77,0,0,1,1.65,1.31c-2.53,2.88-1.5,4.31,1.92,4.76.29.19.39.39.28.58s-.2.28-.3.28Z" transform="translate(-253.58 -187.47)"/><path class="cls-139" d="M282,339.37l-1.68-.93c-1-1-.4-2.14-.23-3.24.3-.86.66-1.68,1.77-1.7,1.38,2.75,4.67,2.27,6.69,4l-2.78,1.89Z" transform="translate(-253.58 -187.47)"/><path class="cls-140" d="M283.88,345a8.42,8.42,0,0,1,0-.87c1.5.11,3.47-.75,3.73,1.85l-1.94,0Z" transform="translate(-253.58 -187.47)"/><path class="cls-141" d="M309.26,246.94l.12-10.31,1.74-1.93A12.62,12.62,0,0,0,314.91,245c-.68,1.68-3.37-.49-3.68,1.93Z" transform="translate(-253.58 -187.47)"/><path class="cls-142" d="M260.19,255.54l2.93-3.56c.29-.94,1-.84,1.71-.66,1.37,1.26.61,2.58.13,3.89a10.85,10.85,0,0,1-1.35,2.24c-1.65,1.11-1.52,3.1-2.25,4.66a3.18,3.18,0,0,1-2.9.78,1.94,1.94,0,0,1-1.93-.87C258.83,260.47,259.69,258.1,260.19,255.54Z" transform="translate(-253.58 -187.47)"/><path class="cls-143" d="M259.34,273.29l-.89,0c-1.82-.14-3-.68-1.87-2.8.89-1.13,0-3.14,1.85-3.8.69-1.06,1.32.08,2,.06.82-.27,1.06.24,1.21.89a13.15,13.15,0,0,1-.18,1.89C261.23,271.08,261.11,272.66,259.34,273.29Z" transform="translate(-253.58 -187.47)"/><path class="cls-144" d="M261.26,267.69l-.86-.9c.06-1.65-1.45-2.51-1.94-3.9.66-1,1.72-.83,2.69-.88l.51.35a9.4,9.4,0,0,1,1.22,2.86,3,3,0,0,1-.43,2.46A1.07,1.07,0,0,1,261.26,267.69Z" transform="translate(-253.58 -187.47)"/><path class="cls-126" d="M258.43,266.73l-1.85,3.8c-.24-2-.47-4-.71-6.07C257.93,264.22,257.23,266.42,258.43,266.73Z" transform="translate(-253.58 -187.47)"/><path class="cls-145" d="M261.26,267.69h.94a2.2,2.2,0,0,1,1.19-.56c2.62-.34,4.1.89,4.66,3.39.36,1.67,1.11,3.23,1.37,4.92a6,6,0,0,1-1.7,4.43L267,281c-1.28.92-3.18,1-3.85,2.75-2.55-.18-2.31-2.39-1.61-3.41,1.55-2.26.64-4-.25-6-1.35-1.72.37-3.93-.92-5.66Z" transform="translate(-253.58 -187.47)"/><path class="cls-146" d="M259.22,285.69l-2.94-2.85c0-.62.07-1.25.1-1.88l1.18-.09a.51.51,0,0,1,.85.06C258.65,282.52,261.4,283.68,259.22,285.69Z" transform="translate(-253.58 -187.47)"/><path class="cls-23" d="M258.45,278l1.81-2.73c1.3,1.81.67,3.27-.81,4.59A1.92,1.92,0,0,1,258.45,278Z" transform="translate(-253.58 -187.47)"/><path class="cls-126" d="M260.33,268.65c1.69,1.66.61,3.77.92,5.66l-.95-.1-1-.92A7.2,7.2,0,0,0,260.33,268.65Z" transform="translate(-253.58 -187.47)"/><path class="cls-147" d="M258.45,278a2,2,0,0,1,1,1.86l-1,1.05-.85-.06C257.54,279.82,257.36,278.72,258.45,278Z" transform="translate(-253.58 -187.47)"/><path class="cls-148" d="M288.53,337.46c-3,.08-6.06.21-6.63-3.9-1.11-2.09.25-3.41,1.47-4.78,1.62-.86,3.61-.89,5-2.24a3.35,3.35,0,0,1,1.3-.07,2.44,2.44,0,0,1,1.12.72,2.18,2.18,0,0,1-.21,2.54c0,2.72-3,1.47-3.92,3-1.46,3.31,2.33,1.38,2.78,2.79l0,1Z" transform="translate(-253.58 -187.47)"/><path class="cls-11" d="M289.47,335.55c-1.52,0-3.2,1.8-4.49-.52-1.18-2.13,0-2.34,1.71-2.27l2.81,1Z" transform="translate(-253.58 -187.47)"/><path class="cls-149" d="M290.61,329.73l-.29-2.53c1.41-1,2.31-.5,2.91.95,0,.5.06,1,.1,1.49Z" transform="translate(-253.58 -187.47)"/><path class="cls-150" d="M278.4,340.32c.42,1.85-1.08,1.61-2.08,1.91h-1.79l.07-1.78C275.83,339.17,277.1,339.37,278.4,340.32Z" transform="translate(-253.58 -187.47)"/><path class="cls-151" d="M265,251.74l-1.9.24-1-1.3,4.67-4.78a2,2,0,0,1,3,.2c.42,1.22-.65,1.93-1,2.89a5.66,5.66,0,0,1-.68,1A6.61,6.61,0,0,1,265,251.74Z" transform="translate(-253.58 -187.47)"/><path class="cls-152" d="M266.08,244.32c1.77-1.22.19-4.18,2.63-5,2,.16,2.83,1.44,3.28,3.17a2.39,2.39,0,0,1-.38,2c-1.51.74-3,1.33-4.74.66Z" transform="translate(-253.58 -187.47)"/><path class="cls-153" d="M266.87,245.12l4.67-1.32a1.47,1.47,0,0,1,.53,1.13,3.46,3.46,0,0,1-1.31,2.21,1.16,1.16,0,0,1-1.17-.32c-.63-1.17-1.82-.67-2.76-.92A2.28,2.28,0,0,0,266.87,245.12Z" transform="translate(-253.58 -187.47)"/><path class="cls-154" d="M283,199.78l-1.81-.16c-1-.21-2.09-.12-2.95-.81.21-1.16,1.28-.78,1.95-1.1C281.4,198,282.53,198.43,283,199.78Z" transform="translate(-253.58 -187.47)"/><path class="cls-155" d="M271.57,242.2l-2.86-2.93a2.15,2.15,0,0,0,0-.8l1.1-.09c1.26.37,2.88-.64,3.81,1-.37.93-.74,1.87-1.12,2.8l0,0C272.21,242.75,271.89,242.75,271.57,242.2Z" transform="translate(-253.58 -187.47)"/><path class="cls-156" d="M271.72,214.91c.6-1.79.59-4,3-4.6l4.29-2.4a4,4,0,0,1,1.88,3.65,3.41,3.41,0,0,1-.37,1.36,3.64,3.64,0,0,1-2.29,1.38C275.94,213.21,274,216.13,271.72,214.91Z" transform="translate(-253.58 -187.47)"/><path class="cls-157" d="M278.22,198.81c1,.16,2.16-.19,2.95.81.72,1.26.47,2.95,1.74,4,.79,1.16.26,1.9-.79,2.48a2.88,2.88,0,0,1-2.9-.59,5.1,5.1,0,0,1-.92-3.82C280.71,200.64,278.67,199.75,278.22,198.81Z" transform="translate(-253.58 -187.47)"/><path class="cls-158" d="M279.22,205.49l2.67.06a.73.73,0,0,1,.34.61c0,.24-.05.36-.11.36.1.55-2.05,0-.58,1.2.72,1.51,1.6,3-.14,4.46a1.39,1.39,0,0,1-1.21.07c-.39-1.44-.79-2.89-1.18-4.34Z" transform="translate(-253.58 -187.47)"/><path class="cls-159" d="M267.72,279.87c.32-1.53.65-3.05,1-4.58a41.37,41.37,0,0,0-3.61-12.35,5,5,0,0,1,1.51-3.78,1.66,1.66,0,0,1,1.31-.15,23.68,23.68,0,0,1,2.67,6.79l1,3.67c-1.5,2.67-.63,5.82-1.71,8.57A3,3,0,0,1,267.72,279.87Z" transform="translate(-253.58 -187.47)"/><path class="cls-160" d="M271.72,214.91c2.27.7,3.63-5.17,6.39-.88.48,1-.11,1.68-.76,2.33-1.55.86-2.79,2.21-4.45,2.92-1.16,0-2.46.2-2.26-1.66A2.86,2.86,0,0,1,271.72,214.91Z" transform="translate(-253.58 -187.47)"/><path class="cls-126" d="M270.64,217.62c.65,1.15,1.78,1,2.84,1a3,3,0,0,1,3,1c-.12,1.84-1.63,1.92-2.9,2.31a3.26,3.26,0,0,1-2.94-1.4l-2-.06c.4-.91.8-1.81,1.21-2.71A2.38,2.38,0,0,0,270.64,217.62Z" transform="translate(-253.58 -187.47)"/><path class="cls-161" d="M320.56,195.91c0,.61.07,1.22.11,1.82-1.7-.61-1.74,3.22-3.87,1.44a2.69,2.69,0,0,1-.68-2.39,2.25,2.25,0,0,1,.66-1c.85-.46,1.93.16,2.73-.56Z" transform="translate(-253.58 -187.47)"/><path class="cls-162" d="M319.51,195.22c-.13,1.39-.53,2.11-1.77.71a1,1,0,0,1-.08-1.59l1,0C318.94,194.61,319.23,194.91,319.51,195.22Z" transform="translate(-253.58 -187.47)"/><path class="cls-163" d="M268.75,226.2a2.53,2.53,0,0,1,1.75-2.88c1.31-1.75,3-1.31,4.67-.76a3.92,3.92,0,0,1-.2,5.69,3.73,3.73,0,0,1-1.23.61C271.29,229.47,270.11,227.67,268.75,226.2Z" transform="translate(-253.58 -187.47)"/><path class="cls-164" d="M268.75,226.2c2.39-1.36,2.4,3.28,4.79,1.92a1.48,1.48,0,0,1,.24,1.3c-.67,1.29-1.33,2.63-3.15,1.52-1-.22-2.33.45-2.93-1C268.21,228.74,267.71,227.26,268.75,226.2Z" transform="translate(-253.58 -187.47)"/><path class="cls-165" d="M274.42,222.42l-3.92.9c.15-.62-.28-.81-.73-1l.9-1.8,2.93.88C274.5,221.24,274.64,221.68,274.42,222.42Z" transform="translate(-253.58 -187.47)"/><path class="cls-166" d="M274.61,336.63l1.75-2c1.65-.41,2.46.59,3.12,1.85a3.69,3.69,0,0,1-1.3,2.92l.08-.05c-1.31.16-2.6.69-3.93.2C272.6,338.41,275.07,337.66,274.61,336.63Z" transform="translate(-253.58 -187.47)"/><path class="cls-167" d="M274.33,339.57c1.29-.37,2.58-.79,3.93-.2,0,.31.09.63.14.95l-3.8.13A2.72,2.72,0,0,1,274.33,339.57Z" transform="translate(-253.58 -187.47)"/><path class="cls-166" d="M276.36,330.16a7.56,7.56,0,0,0,1.67-5c1.57-1,2-3.1,3.87-3.76l2.36,1.11c.77,4.59-3.14,7.67-3.79,11.81a1,1,0,0,1-1.15.54.73.73,0,0,1-.17-1.18C279.45,331.54,276.23,332.17,276.36,330.16Z" transform="translate(-253.58 -187.47)"/><path class="cls-168" d="M280.05,334.58c-.14-4.56,3.14-7.92,4.21-12.05a4.4,4.4,0,0,0,1.5-2.89c.16-.46.44-.55.84-.26l.86,1.16.39.48a7.69,7.69,0,0,1-.68,3.57A9.83,9.83,0,0,1,284,329c-.73,1.5-2.12,2.7-2.11,4.54l-1,2C280.08,335.7,279.72,335.44,280.05,334.58Z" transform="translate(-253.58 -187.47)"/><path class="cls-169" d="M286.6,319.38l-.84.26-1.12-1,1.18-1C286.8,317.88,286.62,318.66,286.6,319.38Z" transform="translate(-253.58 -187.47)"/><path class="cls-170" d="M295.34,327c1.17.53,3.43-.89,3.37,1.87l-4.45-.86C294.1,327.09,294.27,326.55,295.34,327Z" transform="translate(-253.58 -187.47)"/><path class="cls-98" d="M295.34,327l-1.08,1-1,.17c-.91-.5-1.76-1.18-2.91-.95a4.11,4.11,0,0,1-.68-.21c-.24-.94.39-1.29,1.08-1.6a3.57,3.57,0,0,1,3.47.7Z" transform="translate(-253.58 -187.47)"/><path class="cls-165" d="M317.66,194.34c0,.53,0,1.06.08,1.59q-.47,0-.93.09a2.57,2.57,0,0,1-1.41.61c-2.16-.38-2.46-1.66-1.69-3.47a1.18,1.18,0,0,1,1.45-.13Z" transform="translate(-253.58 -187.47)"/><path class="cls-171" d="M315.16,193l-1.14.2c-.83.8-.64,3.12-2.82,1.88-.08-.75-.16-1.49-.25-2.24a1.39,1.39,0,0,1,.39-.57l1.72-.13C313.83,192.29,314.72,192.1,315.16,193Z" transform="translate(-253.58 -187.47)"/><path class="cls-172" d="M294.19,326.09l-3.7-.11a2.31,2.31,0,0,1-.69-1c-.82-1.44-2-2.72-2-4.53l-.36.06c.66-1.17,1.5-2,3-1.84l-.14.46c.82,2.32,2.49,4.09,3.9,6C294.21,325.49,294.19,325.79,294.19,326.09Z" transform="translate(-253.58 -187.47)"/><path class="cls-173" d="M279.15,333.7l.18,1.25c.3.66.38,1.25-.47,1.56l-2.5-1.86c0-.31,0-.63-.05-.94Z" transform="translate(-253.58 -187.47)"/><path class="cls-174" d="M270.63,230.94c1.41.09,1.89-1.28,2.89-1.85a2.81,2.81,0,0,1,1.2,1.45,2.21,2.21,0,0,1,0,1.25,1.49,1.49,0,0,1-1.11.51c-1-.15-2.12.41-3-.51A1,1,0,0,0,270.63,230.94Z" transform="translate(-253.58 -187.47)"/><path class="cls-175" d="M270.6,231.79l3.76.18.28.37-.27.37c-1.55-.1-3.22.7-4.56-.71A1.56,1.56,0,0,1,270.6,231.79Z" transform="translate(-253.58 -187.47)"/><path class="cls-78" d="M312.09,227.13l-.94-.95,1.88-3.75,1.87.06C314.93,224.62,315.21,226.91,312.09,227.13Z" transform="translate(-253.58 -187.47)"/><path class="cls-176" d="M280.19,212.25l.8-.27c1.49-.47,2.12-1.93,3.24-2.83a2.16,2.16,0,0,1,1.22-.31,1.65,1.65,0,0,1,1.22,1.34l.95.93c-2.05,2.06-6.17,3.12-3.57,7.43-.25,2.33-1.46.87-2.37.61a8.24,8.24,0,0,1-2.18-4.24,2.62,2.62,0,0,1,.42-1.94A2.23,2.23,0,0,0,280.19,212.25Z" transform="translate(-253.58 -187.47)"/><path class="cls-177" d="M282,218.65c.71.24,1.44,1,2.08-.11l.78,2a1.82,1.82,0,0,1-1.85.95,14,14,0,0,0-1.44,1.54,1.89,1.89,0,0,1-.79.77,1.92,1.92,0,0,1-1.12-.31,3.27,3.27,0,0,1-1.18-2.14,3.78,3.78,0,0,1,.2-1.29C279.43,218.8,280.44,218.1,282,218.65Z" transform="translate(-253.58 -187.47)"/><path class="cls-178" d="M311.19,229c.31-.29.61-.59.91-.89q0,.47,0,.93h-.44Z" transform="translate(-253.58 -187.47)"/><path class="cls-179" d="M286.62,204.53l2-1,.57,5.69a5.4,5.4,0,0,1-1.88-.12c-1.09-.64-2.39-.79-3.47-1.48a1.64,1.64,0,0,1-.34-1.19C284,204.94,285.48,205,286.62,204.53Z" transform="translate(-253.58 -187.47)"/><path class="cls-50" d="M287.55,208.33l1.67.91c.12.31.25.61.38.92l-2.93,0-1-.93C286.07,208.47,287,208.82,287.55,208.33Z" transform="translate(-253.58 -187.47)"/><path class="cls-180" d="M311.2,195.11c1.47.18,1.77-1.41,2.82-1.88-.06,1.36-.07,2.68,1.81,2.75.68,2.47-1.92,2.41-2.82,3.66-.66.11-1.1,1.65-2,.32C312.55,198.4,309.71,196.67,311.2,195.11Z" transform="translate(-253.58 -187.47)"/><path class="cls-181" d="M313,199.64c0-2,2.5-2,2.82-3.66l1,0c0,1,0,2.1,0,3.15C315.42,198.39,314.34,200,313,199.64Z" transform="translate(-253.58 -187.47)"/><path class="cls-182" d="M297.23,221.42l-1.11,2.9c-1.41.41-2-.4-2.24-1.58a2.19,2.19,0,0,0-.09-2.59,3,3,0,0,1,.32-1.69.94.94,0,0,1,.11-.73C296.66,217.78,297.13,219.45,297.23,221.42Z" transform="translate(-253.58 -187.47)"/><path class="cls-79" d="M297,203.56c.61-1.23,1.84-.85,2.83-1.09l1,1-1.85.86Z" transform="translate(-253.58 -187.47)"/><path class="cls-172" d="M294.25,222.39a2.87,2.87,0,0,0,1.87,1.93,1.75,1.75,0,0,1,.8,1.92c-2.26-1.23-2.85,1.91-4.68,1.8l.12-1.8c.07-1.52.14-3,.2-4.56,1.21-.74.16-2.57,1.55-3.22l.28,2.13A1.33,1.33,0,0,1,294.25,222.39Z" transform="translate(-253.58 -187.47)"/><path class="cls-183" d="M307.38,231.77a2.64,2.64,0,0,1,2.85-2.74c0,.95,0,1.89,0,2.83l-1.73.87A1.06,1.06,0,0,1,307.38,231.77Z" transform="translate(-253.58 -187.47)"/><path class="cls-128" d="M307.38,231.77l1.11,1c-1.65,1.59.24,2.56.67,3.79-2.6,2.06-.38,5.28-1.84,7.62l-.81,0a5.47,5.47,0,0,1-1.68-4.68,5.45,5.45,0,0,0-2-4.56l-.33-.35c.47-1.56,2.34-1.58,3.11-2.82Z" transform="translate(-253.58 -187.47)"/><path class="cls-53" d="M283.85,223.36l-1.89.15a1,1,0,0,1-.27-.79c.05-.28.11-.42.17-.43a1,1,0,0,1,1.22,0Z" transform="translate(-253.58 -187.47)"/><path class="cls-113" d="M283.08,222.31l-1.11.11c-.31.47-.57.44-.77-.08.29-.91,1-1,1.78-.87A8,8,0,0,0,283.08,222.31Z" transform="translate(-253.58 -187.47)"/><path class="cls-83" d="M270.57,265.8c-2.4-1.64-2.87-4.05-2.63-6.73a.61.61,0,0,1-.28-.64c.07-.23.14-.35.22-.35a2.17,2.17,0,0,1,2.17.81,5.74,5.74,0,0,1,.66,1,22.82,22.82,0,0,1,1.47,3.31,2,2,0,0,1-.49,1.68Z" transform="translate(-253.58 -187.47)"/><path class="cls-32" d="M271.69,264.9l-.1-1.92c-.44-.85,0-1.63.22-2.42a3.43,3.43,0,0,1,.82-1c.93-.53,1.86-1,3-.45a3.77,3.77,0,0,1,.74,2.92Z" transform="translate(-253.58 -187.47)"/><path class="cls-63" d="M276.33,262.07c-1.08-.7-.77-1.86-1-2.86a1.88,1.88,0,0,1,.09-2.77l1.8.68c1,1.62,1.3,3.22-.11,4.78A2.85,2.85,0,0,0,276.33,262.07Z" transform="translate(-253.58 -187.47)"/><path class="cls-184" d="M274.37,232.71a2,2,0,0,0,0-.74c.12-.15.23-.31.34-.47a1.36,1.36,0,0,1,1.94,1.11c-.34,1.13-.77,2.18-2.28,1.88C274.36,233.89,274.36,233.3,274.37,232.71Z" transform="translate(-253.58 -187.47)"/><path class="cls-185" d="M279,221.64l1.1,1.64a2.34,2.34,0,0,0,.78.58l.31.39-.24,1c-1.19,1.35-3.72.72-4.34,2.93a2.3,2.3,0,0,1-1.19.44,1.74,1.74,0,0,1-1.1-.59,4.45,4.45,0,0,0,.06-5.59c-.28-.33-.55-.67-.82-1l2.74-1.88c-.32-.76.14-1,.76-1.15a2.13,2.13,0,0,1,1.51,1.61A3.88,3.88,0,0,0,279,221.64Z" transform="translate(-253.58 -187.47)"/><path class="cls-129" d="M275.51,228.15a1.42,1.42,0,0,0,.7-.2,1,1,0,0,1,1-.23c.45.34.6.91,1,1.28.89,1.28,2,1,3.13.44,1.37-.6,2.3-.23,2.5,1.38-1.56.62-4.18-1.32-4.65,1.94l-2.55-.15-1.94-1.11a.75.75,0,0,0-.22-.58C273.93,229.66,275.43,229.17,275.51,228.15Z" transform="translate(-253.58 -187.47)"/><path class="cls-186" d="M277.15,228l-.47,0-.47,0c-.11-3.92,2.9-2.33,4.78-2.72l0,1C279.82,227,278,226.35,277.15,228Z" transform="translate(-253.58 -187.47)"/><path class="cls-187" d="M277.15,228c.45-2.45,2.46-1.47,3.88-1.76-.65,1.22-3,.73-2.82,2.79Z" transform="translate(-253.58 -187.47)"/><path class="cls-188" d="M281.2,222.34c.25,0,.51.06.77.08v1.09c-.24.25-.49.49-.74.74l-.16.2-.25-.07a.91.91,0,0,1,.22-1Z" transform="translate(-253.58 -187.47)"/><path class="cls-189" d="M302.84,234.86c2.23.07,2.86,1.51,2.71,3.4a16.5,16.5,0,0,0,1,5.84c-.37,2.7.39,5.83-2.86,7.42l-.06-2.65c1.85-4.42,1.13-9.8-1.66-12.25Z" transform="translate(-253.58 -187.47)"/><path class="cls-189" d="M301.9,239.44a31.56,31.56,0,0,1,1.69,9.43C300.43,246.19,302.08,242.65,301.9,239.44Z" transform="translate(-253.58 -187.47)"/><path class="cls-190" d="M271.57,242.2h1c-.43,2.32,2.35,1.43,2.83,2.84l-1.8.17a1.43,1.43,0,0,1-1.92-.22c0-.39-.07-.79-.11-1.19Z" transform="translate(-253.58 -187.47)"/><path class="cls-131" d="M274.44,251.66l0,1c1,3.56-1.87,1.79-3.13,2.24-1.44-.55-1.75-1.83-2-3.15,0-1.25.93-1.87,1.81-2.51a2.27,2.27,0,0,1,2.36-.42h0C274.35,249.59,275,250.45,274.44,251.66Z" transform="translate(-253.58 -187.47)"/><path class="cls-115" d="M274.44,251.66c-.3-.95-.6-1.91-.91-2.86a3,3,0,0,1,3.72.09Z" transform="translate(-253.58 -187.47)"/><path class="cls-98" d="M271.62,254.46c.76-.9,3,.58,2.85-1.81l.88.85c.24,2.09-2.16,1.61-2.77,2.87a1,1,0,0,1-1.22-.09A1.4,1.4,0,0,1,271.62,254.46Z" transform="translate(-253.58 -187.47)"/><path class="cls-131" d="M271.7,256.4l.88,0h1.86c.56,1.85-1,2.65-1.89,3.77h0a2.06,2.06,0,0,1-2.82,0l-.12-1.12a2,2,0,0,1,.63-2A2.09,2.09,0,0,1,271.7,256.4Z" transform="translate(-253.58 -187.47)"/><path class="cls-120" d="M272.55,260.15c-.15-1.65,1.32-2.48,1.89-3.77l1,.06-.09,2.77Z" transform="translate(-253.58 -187.47)"/><path class="cls-191" d="M273.52,248.81l-1.56,1c-1.35-.17-2.93.41-3.83-1.21-.22-1.18.45-1.61,1.46-1.77l1.1.15c.63-.09,1.27-.56,1.91,0Z" transform="translate(-253.58 -187.47)"/><path class="cls-137" d="M272.6,247c-.64,0-1.27,1.05-1.91,0a2.06,2.06,0,0,1,1-2l1.92.22C273.24,245.79,272.92,246.37,272.6,247Z" transform="translate(-253.58 -187.47)"/><path class="cls-192" d="M290.32,319.16a.76.76,0,0,1,.14-.46c0-1.64-.62-4.28,2.06-1.24.93,1.07,2.15,1.12,3.33,1.44C294.05,319.89,292.16,319,290.32,319.16Z" transform="translate(-253.58 -187.47)"/><path class="cls-193" d="M286.62,204.53l-2.82,1.92a1.28,1.28,0,0,1-1.82-.07l-.09-.83a2.08,2.08,0,0,0,1-2C284.47,202.62,285.38,204.23,286.62,204.53Z" transform="translate(-253.58 -187.47)"/><path class="cls-194" d="M278.86,336.51c.15-.52.31-1,.47-1.56a4.08,4.08,0,0,0,.72-.37l.85,1-.6,2.88a1.61,1.61,0,0,1-2.12,1C278.4,338.45,278.63,337.48,278.86,336.51Z" transform="translate(-253.58 -187.47)"/><path class="cls-195" d="M263.22,257.35c.11-.74,0-1.56.82-2,1.66-1.14,1.55-4.08,4.24-4.17a1.4,1.4,0,0,1,.93.78c.45,1.34-.17,2.52-.56,3.74a3.68,3.68,0,0,1-.74,1.06c-1.51.76-2.89,1.94-4.77,1.68a.66.66,0,0,1-.19-.73C263,257.46,263.13,257.35,263.22,257.35Z" transform="translate(-253.58 -187.47)"/><path class="cls-139" d="M263.22,257.35l.22,1c.93.24,2.05-.12,2.76.85a3.29,3.29,0,0,1-2.47,3.11c-.71-.79-1.63.09-2.4-.28l-.18,0C261.14,260.14,259.88,257.72,263.22,257.35Z" transform="translate(-253.58 -187.47)"/><path class="cls-196" d="M268.54,251.59c-2.18.43-2.37,3.26-4.5,3.74.33-1.2.66-2.4,1-3.59a2.83,2.83,0,0,1,2.79-1.93C268.59,250.19,269.34,250.57,268.54,251.59Z" transform="translate(-253.58 -187.47)"/><path class="cls-197" d="M263.21,262.05l2.78-2.69a.58.58,0,0,1,.89-.14c.41,1.44-1.08,2.33-1.08,3.66-.89,1.59-.42,3.91-2.59,4.81h-1l-.09-3.08C261.39,263.29,262.13,262.6,263.21,262.05Z" transform="translate(-253.58 -187.47)"/><path class="cls-192" d="M263.21,262.05c-.37.86-.74,1.71-1.1,2.56-1.09-.6-.82-1.62-.78-2.56C262,262,262.58,261,263.21,262.05Z" transform="translate(-253.58 -187.47)"/><path class="cls-198" d="M263.21,267.69c1-1.55.76-3.73,2.6-4.81a16.78,16.78,0,0,1,2.88,12.41c-.56-1.42-1.5-2.82-1.59-4.27C266.92,268.34,265.3,267.86,263.21,267.69Z" transform="translate(-253.58 -187.47)"/><path class="cls-199" d="M284,329a8.4,8.4,0,0,1,2.62-4.87,3,3,0,0,1,.92.61c.5.7,1.53,1.17,1,2.32C287.86,329.63,285.77,328.94,284,329Z" transform="translate(-253.58 -187.47)"/><path class="cls-200" d="M288.59,327.08l-1.91-1.84a2.59,2.59,0,0,1,3.73,0,6,6,0,0,1,.08.73l-.85,1Z" transform="translate(-253.58 -187.47)"/><path class="cls-201" d="M268.54,251.59c-.25-.59-.49-1.18-.73-1.78.1-.4.21-.81.32-1.22,1.31.31,2.83-.05,3.83,1.21l-2.29,1.86a.47.47,0,0,1-.83,0Z" transform="translate(-253.58 -187.47)"/><path class="cls-158" d="M279.92,213l.15,1.93c.4,1.14-.18,1.79-1.1,2.29-1.06.1-2,0-1.88-1.41l1-1.75A2,2,0,0,1,279.92,213Z" transform="translate(-253.58 -187.47)"/><path class="cls-202" d="M284.8,209.18c-.7,1.71-1.52,3.26-3.81,2.8,1.89-1.46-1.18-3,.12-4.52,1.11-1.27,1.93,0,2.85.33C284.64,208,285.13,208.35,284.8,209.18Z" transform="translate(-253.58 -187.47)"/><path class="cls-203" d="M283.89,208.21l-2.78-.75c-1.18-1.55.52-.78.87-1.08l1.82.07a5,5,0,0,1,.05.86c.33.19.45.38.35.59S284,208.21,283.89,208.21Z" transform="translate(-253.58 -187.47)"/><path class="cls-204" d="M266.88,259.22h-.46l-.43.14c-.83-.38-2.11.38-2.55-1,1.29-1.09,2.54-2.27,4.43-2.06a1.6,1.6,0,0,1,0,2.21,1.54,1.54,0,0,1,.1.56Z" transform="translate(-253.58 -187.47)"/><path class="cls-205" d="M277.09,215.78a2.14,2.14,0,0,0,2,1c.32,1.59-.82,1.67-1.89,1.83l-.87.89c-1,0-2.16.25-2.86-.87C273.7,216.47,275.49,216.25,277.09,215.78Z" transform="translate(-253.58 -187.47)"/><path class="cls-206" d="M275.51,228.15c.95,1.41-.33,2-1,2.77a1.81,1.81,0,0,1-1-1.83c0-.32,0-.65,0-1a5.58,5.58,0,0,0,.82-.11Z" transform="translate(-253.58 -187.47)"/><path class="cls-207" d="M290.41,325.25h-3.73c0-.36,0-.72-.05-1.09l1.19-3.67C288.25,322.31,291.11,322.81,290.41,325.25Z" transform="translate(-253.58 -187.47)"/><path class="cls-208" d="M277.21,218.65l1.89-1.83c.33-.64.65-1.28,1-1.92,1.45.83,1.19,2.54,1.9,3.75l-2.86,1.83a.53.53,0,0,1-.81.15Z" transform="translate(-253.58 -187.47)"/><path class="cls-209" d="M283.89,208.21c0-.3,0-.6,0-.9a4.25,4.25,0,0,1,3.7,1c-.35.87-1.15.79-1.86.92a5.34,5.34,0,0,0-.89-.07Z" transform="translate(-253.58 -187.47)"/><path class="cls-210" d="M281,223.33c-.08.35-.15.7-.22,1-.23-.36-.45-.73-.67-1.1A4.39,4.39,0,0,0,281,223.33Z" transform="translate(-253.58 -187.47)"/><path class="cls-211" d="M278.3,220.63a5.27,5.27,0,0,1,.81-.15c0,.39,0,.77-.07,1.16Z" transform="translate(-253.58 -187.47)"/><path class="cls-212" d="M294.25,222.39c.05-.6.09-1.2.13-1.8.61-.23,1.44-1,1.6.31S295.21,222.33,294.25,222.39Z" transform="translate(-253.58 -187.47)"/><path class="cls-213" d="M267.84,258.52l0-2.21c0-.33,0-.65,0-1,2-.78,2.93-.05,2.88,2.06-.38.54-.76,1.09-1.15,1.63Z" transform="translate(-253.58 -187.47)"/><path class="cls-120" d="M269.74,260.14h2.82c-.32.95-.64,1.9-1,2.84C271,262,270.36,261.08,269.74,260.14Z" transform="translate(-253.58 -187.47)"/><path class="cls-214" d="M270.77,257.39a3.17,3.17,0,0,0-2.88-2.06l.95-3.68a4.6,4.6,0,0,1,.83,0c1.49.35.57,2.38,1.95,2.8,0,.65.05,1.29.08,1.94Z" transform="translate(-253.58 -187.47)"/></svg>