<svg id="Layer_4" data-name="Layer 4" xmlns="http://www.w3.org/2000/svg" viewBox="0 0 181.09 200.44"><defs><style>.cls-1{fill:#010101;}.cls-2{fill:#f0efef;}.cls-3{fill:#262626;}.cls-4{fill:#d8d8d7;}.cls-5{fill:#252525;}.cls-6{fill:#e5e4e4;}.cls-7{fill:#f1f1f1;}.cls-8{fill:#3a3939;}.cls-9{fill:#b2b2b2;}.cls-10{fill:#818180;}.cls-11{fill:#f8f8f8;}.cls-12{fill:#7b7a7a;}.cls-13{fill:#999;}.cls-14{fill:#b9b9b9;}.cls-15{fill:#2b2a2a;}.cls-16{fill:#2b2a29;}.cls-17{fill:#838383;}.cls-18{fill:#919191;}.cls-19{fill:#656464;}.cls-20{fill:#d1d1d0;}.cls-21{fill:#676665;}.cls-22{fill:#636160;}.cls-23{fill:#c6c5c5;}.cls-24{fill:#464545;}.cls-25{fill:#363434;}.cls-26{fill:#5d5a5a;}.cls-27{fill:#d8d8d8;}.cls-28{fill:#514f4f;}.cls-29{fill:#b6b5b5;}.cls-30{fill:#898888;}.cls-31{fill:#373636;}.cls-32{fill:#3b3a3a;}.cls-33{fill:#d7d7d7;}.cls-34{fill:#434343;}.cls-35{fill:#494949;}.cls-36{fill:#403f3f;}.cls-37{fill:#373535;}.cls-38{fill:#565453;}.cls-39{fill:#b8b7b7;}.cls-40{fill:#1c1c1c;}.cls-41{fill:#e0e0e0;}.cls-42{fill:#bfbebd;}.cls-43{fill:#181818;}.cls-44{fill:#424040;}.cls-45{fill:#949393;}.cls-46{fill:#464646;}.cls-47{fill:#3f3e3e;}.cls-48{fill:#a0a0a0;}.cls-49{fill:#606060;}.cls-50{fill:#b3b2b2;}.cls-51{fill:#848383;}.cls-52{fill:#464443;}.cls-53{fill:#cdcdcc;}.cls-54{fill:#5f5b5b;}.cls-55{fill:#3d3d3c;}.cls-56{fill:#595857;}.cls-57{fill:#161616;}.cls-58{fill:#626060;}.cls-59{fill:#656362;}.cls-60{fill:#3c3a39;}.cls-61{fill:#1e1e1e;}.cls-62{fill:#eeeded;}.cls-63{fill:#6c6b6b;}.cls-64{fill:#9d9c9c;}.cls-65{fill:#898887;}.cls-66{fill:#3b3b3b;}.cls-67{fill:#d0d0cf;}.cls-68{fill:#797879;}.cls-69{fill:#545454;}.cls-70{fill:#949494;}.cls-71{fill:#4e4e4e;}.cls-72{fill:#aaa;}.cls-73{fill:#858585;}.cls-74{fill:#8c8c8c;}.cls-75{fill:#727272;}.cls-76{fill:#c8c8c8;}.cls-77{fill:#323232;}.cls-78{fill:#676767;}.cls-79{fill:#8b8b8b;}.cls-80{fill:#e9e8e9;}.cls-81{fill:#444;}.cls-82{fill:#cccccb;}.cls-83{fill:#797979;}.cls-84{fill:#c6c6c6;}.cls-85{fill:#4d4d4d;}.cls-86{fill:#1b1b1b;}.cls-87{fill:#a5a4a5;}.cls-88{fill:#5d5e5e;}.cls-89{fill:#6a6a6a;}.cls-90{fill:#747474;}.cls-91{fill:#8f8f8f;}.cls-92{fill:#454545;}.cls-93{fill:#c2c2c1;}.cls-94{fill:#999898;}.cls-95{fill:#4a4a4a;}.cls-96{fill:#9e9e9e;}.cls-97{fill:#636363;}.cls-98{fill:#878787;}.cls-99{fill:#717272;}.cls-100{fill:#474647;}.cls-101{fill:#e2e2e2;}.cls-102{fill:#484848;}.cls-103{fill:#222121;}.cls-104{fill:#1c1d1d;}.cls-105{fill:#848484;}.cls-106{fill:#9d9d9d;}.cls-107{fill:#ababac;}.cls-108{fill:#ececec;}.cls-109{fill:#6f6f6f;}.cls-110{fill:#8f8e8e;}.cls-111{fill:#212121;}.cls-112{fill:#404040;}.cls-113{fill:#989898;}.cls-114{fill:#afafaf;}.cls-115{fill:#b7b7b7;}.cls-116{fill:#424241;}.cls-117{fill:#a1a1a1;}.cls-118{fill:#a3a2a2;}.cls-119{fill:#242424;}.cls-120{fill:#3f3f3f;}.cls-121{fill:#828282;}.cls-122{fill:#777676;}.cls-123{fill:#585857;}.cls-124{fill:#e1e1e1;}.cls-125{fill:#8c8b8b;}.cls-126{fill:#787878;}.cls-127{fill:#202020;}.cls-128{fill:#393938;}.cls-129{fill:#8b8a8b;}.cls-130{fill:#686969;}.cls-131{fill:#cbcaca;}.cls-132{fill:#242423;}.cls-133{fill:#c5c5c5;}.cls-134{fill:#141414;}.cls-135{fill:#e4e4e4;}.cls-136{fill:#c9c8c8;}.cls-137{fill:#222;}.cls-138{fill:#6b6c6c;}.cls-139{fill:#424242;}.cls-140{fill:#333232;}.cls-141{fill:#9f9f9f;}.cls-142{fill:#8e8e8e;}.cls-143{fill:#8a8a8a;}.cls-144{fill:#818080;}.cls-145{fill:#818081;}.cls-146{fill:#7d7d7d;}.cls-147{fill:#a8a8a8;}.cls-148{fill:#9a9999;}.cls-149{fill:#919090;}.cls-150{fill:#636362;}.cls-151{fill:#c7c6c6;}.cls-152{fill:#868585;}.cls-153{fill:#888787;}.cls-154{fill:#565757;}.cls-155{fill:#9b9b9b;}.cls-156{fill:#c3c3c2;}.cls-157{fill:#2d2d2d;}.cls-158{fill:#b5b4b4;}.cls-159{fill:#9a9a9a;}.cls-160{fill:#7b7b7b;}.cls-161{fill:#898989;}.cls-162{fill:#cacac9;}.cls-163{fill:#868686;}.cls-164{fill:#c7c7c7;}.cls-165{fill:#acabab;}.cls-166{fill:#393939;}.cls-167{fill:#707070;}.cls-168{fill:#939393;}.cls-169{fill:#5f605f;}.cls-170{fill:#a9a9a9;}.cls-171{fill:#3d3d3d;}.cls-172{fill:#c4c4c3;}.cls-173{fill:#ebebea;}.cls-174{fill:#b9b8b8;}.cls-175{fill:#343433;}.cls-176{fill:#c7c7c6;}.cls-177{fill:#696969;}.cls-178{fill:#565656;}.cls-179{fill:#333;}.cls-180{fill:#dbdbdb;}.cls-181{fill:#c4c3c3;}.cls-182{fill:#5a5a5a;}.cls-183{fill:#d3d3d3;}.cls-184{fill:#dedddd;}.cls-185{fill:#6e6e6e;}.cls-186{fill:#ededec;}.cls-187{fill:#e9e8e8;}.cls-188{fill:#dcdcdc;}.cls-189{fill:#b7b6b6;}.cls-190{fill:#605f5f;}.cls-191{fill:#c1c0c0;}.cls-192{fill:#6d6c6c;}.cls-193{fill:#2a2a2a;}.cls-194{fill:#bab9b9;}.cls-195{fill:#464645;}.cls-196{fill:#5b5a5a;}.cls-197{fill:#c0bebe;}.cls-198{fill:#dededd;}.cls-199{fill:#a6a6a6;}.cls-200{fill:#cbcbcb;}.cls-201{fill:#6c6c6c;}.cls-202{fill:#5b5b5b;}.cls-203{fill:#807f80;}.cls-204{fill:#828181;}.cls-205{fill:#585858;}.cls-206{fill:#f1f1f2;}.cls-207{fill:#f3f3f3;}.cls-208{fill:#6b6b6c;}.cls-209{fill:#797878;}.cls-210{fill:#646464;}.cls-211{fill:#d9d9d8;}.cls-212{fill:#7a7a7a;}.cls-213{fill:#989797;}.cls-214{fill:#e5e5e4;}.cls-215{fill:#c8c7c7;}.cls-216{fill:#a7a7a7;}.cls-217{fill:#d3d2d2;}.cls-218{fill:#b3b3b3;}.cls-219{fill:#bababa;}.cls-220{fill:#acacac;}.cls-221{fill:#7c7c7c;}.cls-222{fill:#6e6f6f;}.cls-223{fill:#e7e7e6;}.cls-224{fill:#a1a0a1;}.cls-225{fill:#989798;}.cls-226{fill:#626262;}.cls-227{fill:#717171;}.cls-228{fill:#d7d6d6;}.cls-229{fill:#e5e5e5;}.cls-230{fill:#7e7d7d;}.cls-231{fill:#aaa9a9;}.cls-232{fill:#3a3a3a;}.cls-233{fill:#a2a2a2;}.cls-234{fill:#888;}.cls-235{fill:#eaeaea;}.cls-236{fill:#757474;}.cls-237{fill:#9c9c9c;}.cls-238{fill:#7e7e7e;}.cls-239{fill:#a4a4a4;}.cls-240{fill:#979797;}.cls-241{fill:#595959;}.cls-242{fill:#4f4f50;}.cls-243{fill:#4f4f4f;}.cls-244{fill:#aeaeae;}.cls-245{fill:#bbb;}.cls-246{fill:#969696;}.cls-247{fill:#b8b8b7;}.cls-248{fill:#404141;}.cls-249{fill:#b6b6b6;}.cls-250{fill:#5a5a5b;}.cls-251{fill:#bfbebe;}.cls-252{fill:#e0e0df;}.cls-253{fill:#686868;}.cls-254{fill:#515151;}.cls-255{fill:#9e9d9e;}.cls-256{fill:#505050;}.cls-257{fill:#737374;}.cls-258{fill:gray;}.cls-259{fill:#7f7f80;}.cls-260{fill:#8e8e8d;}.cls-261{fill:#929292;}.cls-262{fill:#6b6b6b;}.cls-263{fill:#d1d1d1;}.cls-264{fill:#7f7f7f;}.cls-265{fill:#929191;}.cls-266{fill:#909090;}.cls-267{fill:#282828;}.cls-268{fill:#575858;}</style></defs><path class="cls-1" d="M273.36,388.16l1.27-1.75a7.07,7.07,0,0,1,3.66-.52c.82.18,1.6.49,2.4.74,1.62.56,3.34.34,5,.63,2.88.18,5.63,2.33,8.62.55a10.18,10.18,0,0,0,1.91-3.82c.76-1.64,1.47-3.38,3.8-1.94a1.61,1.61,0,0,1,1.13,2.21c.63-1.19,0-2-1.36-2.41-.68-.55-1.59-.64-2.3-1.16-.89-1.13-.77-2,.59-2.67s3-.27,4.46-.72c1.46-1.41,1.61-3.2,1.91-5.1,1.14-7.13,1.81-7.6,9-8.1-2.09.81-4.62-.37-7.21-1.23-1.59-.53-2.91-1.2-3-3.13-.11-2.31,1.61-2.85,3.29-3.31a10.81,10.81,0,0,0,3.87-1.6,3.27,3.27,0,0,1,1.9.22c24.44.62,48.83.44,73-4.45a125,125,0,0,0,14.26-4.07v5.81c-.63,1.28.38,2,.95,2.91,1.65,1.34,1,3.19,1,4.84.06,8.47-.55,17,.14,25.42,2.29,28,1.66,56.05,3.42,84.05,1.06,16.89,3.18,33.72,3.11,50.68a17.23,17.23,0,0,0,.42,3.25c1.52,8.13.17,9.1-7.34,12.09-14,5.55-28.56,7.78-43.23,9.48-9.66,1.13-19.36,2.74-29.33.82-5.32-1-11.16.31-16.7.49-14.78.48-29.64,1.45-44.43-1-7.19-1.19-14.65-.85-21.39-4.25-.27-2.83,3.07-3.62,3.43-6.09.2-.79.38-1.58.61-2.35s.56-1.42-.55-1.72a1.85,1.85,0,0,1-.93-.7,43.13,43.13,0,0,1,1.67-10,12.1,12.1,0,0,0,.42-5.9,9.56,9.56,0,0,1,.28-2.77,40.05,40.05,0,0,0,1.66-8.4,16.47,16.47,0,0,0,.59-6.44,26,26,0,0,1-.82-6.69c.88-6.95,2.22-13.84,2.75-20.84a23.22,23.22,0,0,1,.8-6.84,36,36,0,0,1,1.13-8.33,35.22,35.22,0,0,0,1.2-6.76c3.18-15.12,5.45-30.43,9.1-45.45.79-3.23.77-6.89,3.77-9.26a1.7,1.7,0,0,1,1.87,1.12c.24,4.39-1.65,8.52-1.53,12.89a22.79,22.79,0,0,0-.82,5.12,9.17,9.17,0,0,1-.28,1.46,82.67,82.67,0,0,0-1.59,12.44,23.66,23.66,0,0,0-.84,5.07,11.86,11.86,0,0,1-.37,2.21c-.65,4.17-1,8.38-1.76,12.53-.69,1.89-.56,3.9-.78,5.87a9.41,9.41,0,0,1-.28,1.48c-.51,4.5-1.5,9-1.47,13.51a11,11,0,0,1-.34,2.28,148.93,148.93,0,0,0-.56,21.85c-.12,1.66-.83,3.22-.82,4.9a8.17,8.17,0,0,0-.43,2.73,13.35,13.35,0,0,1-.53,4,10,10,0,0,0,.12,6.34c.24.59.94-.3.4,0-.19.11-.28,0-.42-.23a6.32,6.32,0,0,1-.49-3.21,13.87,13.87,0,0,1,.54-3.45c.72-1.86.06-3.91.79-5.77a11.19,11.19,0,0,1,.31-2.23c.41-7.94,1.16-15.86,1.73-23.79a28.3,28.3,0,0,1,1.17-7.39,17.57,17.57,0,0,0,1-4.77c.22-1.29.69-2.53.8-3.85,0-.43.06-.86.11-1.28a8,8,0,0,1,.18-1.29,11.51,11.51,0,0,1,.3-1.26,15.23,15.23,0,0,0,.36-4.52,10.12,10.12,0,0,1,1.1-4.67c.88-1.48.67-3.13.72-4.74.42-3.69.78-7.39,2.92-10.59,3-8.29,3.45-17.21,6.33-25.54a51.3,51.3,0,0,0,2.14-6.71c.22-1.09.86-2.32-.94-2.72-2.13-.32-4.31-.42-6.16-1.72Z" transform="translate(-228.03 -346.53)"/><path class="cls-2" d="M271.53,392.86c-4.08,12-6,24.46-8.38,36.83-1.16,6-2.51,12-3.78,17.94a.9.9,0,0,1-1.18,0c-1.24-2-.64-4.86-2.84-6.47a3.4,3.4,0,0,1-.22-1.34c.62-3.14,2.17-6.06,2.22-9.34.54-2.72,2-5.22,1.85-8.09a20.74,20.74,0,0,1,1-4,17.7,17.7,0,0,0,.83-3.22,28.57,28.57,0,0,1,1.3-5.15c.43-1.23.68-2.51,1-3.76s.62-2.49,1-3.73c.31-1,.64-2,.95-3,.42-1.2.62-2.46,1-3.68.33-1,.65-2.07,1-3.1.63-1.4.83-3.13,2.69-3.59l1.93.09A2.55,2.55,0,0,1,271.53,392.86Z" transform="translate(-228.03 -346.53)"/><path class="cls-3" d="M250.88,535.29c-.8,2.58-3.16,3.88-4.73,5.82l-1.85-.19c-2.22-.85-4.53-.25-6.8-.39-2-.12-4,0-5.19-2.16-1-3.2.71-6.3.37-9.48,0-2.06-.09-4.16.92-6.08a19.07,19.07,0,0,0,2-9,20.13,20.13,0,0,1,.35-4.24,20.47,20.47,0,0,1,.58-2c.17-.66.37-1.31.56-2,.68-2,.27-4.09.93-6.06.65-1.53,1.16-3.16,2.72-4.08,1.57.24,1.67,1.47,1.82,2.68-.23,2.25-.76,4.47-.49,6.77a18.78,18.78,0,0,1-.57,2.68c-.92,2.38-.41,5-.95,7.37-.06,3.06-1,6.12,1.76,8.83,1.53,1.5.63,3.59-1.28,4.62-1.72.92-3.22,1.83-3.13,4.08.38,1.87-3.26,5,1.7,5.42.63,0,1.26,0,1.89,0s1.24,0,1.86,0c1.18-.07,2.45,0,2.58-1.67.09-1.12,0-2.24,0-3.35.41-6.35,2.66-12.26,4.36-18.29a1.58,1.58,0,0,1,1.48-.27c1.35,5-1.55,9.45-2.12,14.21-.1.79-.52,1.43.3,2C251.36,531.93,249.64,533.92,250.88,535.29Z" transform="translate(-228.03 -346.53)"/><path class="cls-4" d="M282,356.16l-1.87,2.78c-1.46.8-3,0-4.9.43.8,2-.05,4.24,1.17,6.19a11.45,11.45,0,0,1-4.73,6.62c-1.44-2.47,1.07-4.92,0-7.39.23-.59-.67.14-.07.32.07,0,0,.16-.11.45a3.08,3.08,0,0,1-.77,1.11,1.5,1.5,0,0,1-1.63-.95,7.06,7.06,0,0,1-.36-3.38,7.71,7.71,0,0,1,.25-1.27,9.64,9.64,0,0,0,.53-4.82,1.15,1.15,0,0,1,.25-1.12l-.06.08c1.14-1.45,4.13-1.74,2.91-4.67.13-2.14,1.13-3.23,3.35-2.6,2.67.76,5.54.87,7.95,2.47-1.26,3.62-3.62.64-5.55,1.15C281.19,351.78,278.06,356.54,282,356.16Z" transform="translate(-228.03 -346.53)"/><path class="cls-5" d="M310.31,355.46c.35,3.39-2.53.82-3.54,1.9-.81.87-2.88.28-2.66,2.5.17,1.82,1.65,1.38,2.59,2,2.86,1.84,6.43.65,9.82,2.47-1.63.22-2.7.34-3.76.52-5.53.91-6.74,2.37-7.08,8.14a9.75,9.75,0,0,1-2.26,5.66,29.83,29.83,0,0,1-1.83-9.1c.53-2.07,2.63-3.55,2.19-6a8.94,8.94,0,0,0-2.41-1.21c-.93-.36-1.89-.62-2.85-.9-1.84-.58-3.91-.69-5.1-2.55.69-2,1.27-4,3.57-4.8a4.2,4.2,0,0,1,2.38.68,5.12,5.12,0,0,0,6.11.67,7,7,0,0,1,1.88-.26C308.33,355.53,309.42,354.3,310.31,355.46Z" transform="translate(-228.03 -346.53)"/><path class="cls-6" d="M261.2,388.4l0-1.3c0-1.52.7-2.94.68-4.47A1.78,1.78,0,0,1,263,382a2.34,2.34,0,0,1,2.32,1.93,4.12,4.12,0,0,1-.48,1.79c-.62,1.16-.13,2.32,0,3.48a6.11,6.11,0,0,1-.14,1.86,13.28,13.28,0,0,0-.41,2.51,18.21,18.21,0,0,1-.44,4c-.72,1.93-1,4-2.34,5.72-1,.6-1.75.05-2.38-.72-.49-1.4.1-2.7.39-4,.93-2.12.48-4.27.1-6.42A12.24,12.24,0,0,1,261.2,388.4Z" transform="translate(-228.03 -346.53)"/><path class="cls-7" d="M276.36,365.56c-.66.08-1.54.84-1.84-.36a3.51,3.51,0,0,1,.06-2.27c1-1.88-2.51-3.76-.49-4.87,1.58-.88,4,.07,6,.88C279.36,361.44,277.8,363.47,276.36,365.56Z" transform="translate(-228.03 -346.53)"/><path class="cls-8" d="M284.87,373.12a33.33,33.33,0,0,1,6.21-10.65,1.59,1.59,0,0,1,1,.7,3.38,3.38,0,0,1-.09,3.71,14,14,0,0,0-1.68,4.08c-1.39,1.65,1.47,6-3.38,5.45C285.92,375.54,286.15,373.85,284.87,373.12Z" transform="translate(-228.03 -346.53)"/><path class="cls-9" d="M270.57,366.43c.17-1.63-.27-3.52,2-4.5a17.93,17.93,0,0,1-.94,10.25l-4.7,5.81c-.15-.16-.3-.32-.46-.47-.76-1.8.12-3.43.51-5.11A2.76,2.76,0,0,1,268.1,371C269.68,369.89,269.06,367.58,270.57,366.43Z" transform="translate(-228.03 -346.53)"/><path class="cls-10" d="M238.64,486.16a4.57,4.57,0,0,1-.17-5.7c1.33.13,1.7-3.5,3.66-.94.86,2.06.58,4.2.51,6.33-.64,1.77,0,3.83-1.26,5.47a2.53,2.53,0,0,1-3.21-1.35A5.53,5.53,0,0,1,238.64,486.16Z" transform="translate(-228.03 -346.53)"/><path class="cls-11" d="M282,356.16c-1.29-.39-4.42,1.69-3-2.36.47-1.34-1.36-1.85-1.81-2.88,2.14-1.87,4.63,2,6.71-.51,1.41-.93,2.07-.53,1.29,1A43.71,43.71,0,0,1,282,356.16Z" transform="translate(-228.03 -346.53)"/><path class="cls-12" d="M239.79,472.2c.11-2.57-.76-5.5,2.6-6.82,2,1.34,2.1,3.38,2.09,5.47a9.58,9.58,0,0,1-1.11,3.58c-.81,1.17-.62,3-2.34,3.59-.71-.41-1.2-.89-.51-1.72a3.7,3.7,0,0,1-.28-.69c0-.08.18-.2.27-.3a2.65,2.65,0,0,1,0-2.55c.1-.19.56-.47.1-.69C240.48,472,240.11,472.29,239.79,472.2Z" transform="translate(-228.03 -346.53)"/><path class="cls-13" d="M246.16,449.49c-2.21-3.82,1-6.77,1.6-10.14a1.11,1.11,0,0,1,1.1-.5,3.32,3.32,0,0,1,1.58,2,2.87,2.87,0,0,1-.1,1.85,7.21,7.21,0,0,0-1.18,2.74c-.35,1.67-.53,3.42-2.38,4.24Z" transform="translate(-228.03 -346.53)"/><path class="cls-14" d="M264,391l.12-1.75c.64-.9-.23-2.15.69-3a1.79,1.79,0,0,1,1.2-.2c1.16.8,2.57,1.18,3.66,2.11.07.33.13.67.2,1-.62,1.31-1.25,2.63-1.87,3.95-.67-.42-1.34.19-2,0A4.3,4.3,0,0,1,264,391Z" transform="translate(-228.03 -346.53)"/><path class="cls-15" d="M233,538c1.55,2.17,3.87,2,6.15,2.09,1.75.08,3.67-.66,5.2.83-5-.07-10.09.55-15-.88-.53-.71-.06-1,.51-1.22C231,539.1,231.73,537.65,233,538Z" transform="translate(-228.03 -346.53)"/><path class="cls-16" d="M284.87,373.12c2.61-.44,2.17,1.13,1.76,2.68,0,1.09-.77,1.73-1.45,2.43a3.86,3.86,0,0,1-1.56.86,1.9,1.9,0,0,1-1.16-.26c-.6-.59-1.15-1.2-.57-2.11C282.18,374.93,284,374.38,284.87,373.12Z" transform="translate(-228.03 -346.53)"/><path class="cls-17" d="M260.21,391.93c1,2.19,1.77,4.37.07,6.59-1,.74-1.35-.45-2-.7l.34-5.9A1.07,1.07,0,0,1,260.21,391.93Z" transform="translate(-228.03 -346.53)"/><path class="cls-18" d="M272.59,350.54c1.12.4,2.2,1.11,1.74,2.36-.76,2.09-2.73,2.27-4.65,2.31C269.3,352.81,270.79,351.58,272.59,350.54Z" transform="translate(-228.03 -346.53)"/><path class="cls-19" d="M279.91,387.31a1.57,1.57,0,0,1-1.72-1c-.78-.46-1.58-.92-1-2-.07-.81-.09-1.59,1-1.75A1.73,1.73,0,0,1,280,382a4.4,4.4,0,0,1,1.7,1,2.53,2.53,0,0,1,.61,1.18C282,385.61,282.34,387.53,279.91,387.31Z" transform="translate(-228.03 -346.53)"/><path class="cls-20" d="M253.65,423.09a7,7,0,0,0,0-.79,1.87,1.87,0,0,1,.7-.87,3.47,3.47,0,0,1,2.2-.57,4.91,4.91,0,0,1,1.62.76,1.78,1.78,0,0,1,.6,1,5.56,5.56,0,0,1-2,4.44,2.29,2.29,0,0,1-1.27.12A4.22,4.22,0,0,1,253.3,425,2.52,2.52,0,0,1,253.65,423.09Z" transform="translate(-228.03 -346.53)"/><path class="cls-12" d="M242.22,464.72c-1.36-1.06-.58-2,.14-3,.81-.14,1.56-.64,2.44-.42a1.87,1.87,0,0,1,1,.79,5.24,5.24,0,0,1,.32,3.29,3.39,3.39,0,0,1-.58,1.21,2.27,2.27,0,0,1-1.25.43C242.81,467,243.26,465.17,242.22,464.72Z" transform="translate(-228.03 -346.53)"/><path class="cls-21" d="M307.17,356l-1.67.32c-1.82-.05-4.22,1.8-5-1.54l.49-.63c1.55-1,3.1-1.42,4.63,0C305.53,355.3,308,354.18,307.17,356Z" transform="translate(-228.03 -346.53)"/><path class="cls-22" d="M254.7,421.91l-1,.39c-2.45-1.75-2-4.95,1-6.66,1.19,1.4,0,3.12.6,4.6A2.13,2.13,0,0,1,254.7,421.91Z" transform="translate(-228.03 -346.53)"/><path class="cls-23" d="M254.7,420.45c-2-1.59,0-3.21,0-4.81v-1.93a1.71,1.71,0,0,1,1.84-.44,2.17,2.17,0,0,1,1.21,2.79C256.5,417.37,257.33,420.11,254.7,420.45Z" transform="translate(-228.03 -346.53)"/><path class="cls-24" d="M229.89,539.19l-.62.85c-1.93-2.54-1.3-5.12-.12-7.71a2.16,2.16,0,0,1,1.5,1.29C230.84,535.53,232.13,537.6,229.89,539.19Z" transform="translate(-228.03 -346.53)"/><path class="cls-25" d="M280.08,382.52l-1.86,0c.25-2.56,2-4.16,3.67-5.82l1,2.07a3.4,3.4,0,0,1-.57,1.5,15.44,15.44,0,0,1-.86,1.4A2,2,0,0,1,280.08,382.52Z" transform="translate(-228.03 -346.53)"/><path class="cls-26" d="M266,367.56c-1.56-3-1.15-5.51,1.84-7.38a1.89,1.89,0,0,1,.69,1.61c-.18,1-.24,2-.43,2.94-.4.68-.88,1.31-1.27,2A2.63,2.63,0,0,1,266,367.56Z" transform="translate(-228.03 -346.53)"/><path class="cls-27" d="M250,434.3c0-1.25-.51-2.6.66-3.64a2.13,2.13,0,0,1,1.08-.59,2.36,2.36,0,0,1,1.18.36,3,3,0,0,1,.71,1.71,5.32,5.32,0,0,1,0,1.26,4.1,4.1,0,0,1-.42,1.17,2.68,2.68,0,0,1-1.45,1.11,1.85,1.85,0,0,1-1.58-.78C250.11,434.7,250.06,434.5,250,434.3Z" transform="translate(-228.03 -346.53)"/><path class="cls-28" d="M242.54,458c.55-2.11-.62-5,2.71-5.84a2.18,2.18,0,0,1,.64,1.81c-1,1.66,1.19,4.57-2,5.39C243.09,459.25,242.87,458.59,242.54,458Z" transform="translate(-228.03 -346.53)"/><path class="cls-29" d="M258.27,397.82l2,.7c-.26,1.28-.51,2.57-.76,3.86,0,.93-.51,1.26-1.34,1.29-2.31-1.74-.91-3.32.22-4.91Z" transform="translate(-228.03 -346.53)"/><path class="cls-30" d="M249,439.12l-1.24.23c-1.8-2.83.76-3.7,2.25-5.05l-.15.2C250.83,436.28,252.21,438.13,249,439.12Z" transform="translate(-228.03 -346.53)"/><path class="cls-28" d="M298.91,355.21a2.06,2.06,0,0,1-1.92-1.09c1.35-3.13,2.66-1.89,4,0a1,1,0,0,0-.46.26C300.18,355.11,299.74,355.55,298.91,355.21Z" transform="translate(-228.03 -346.53)"/><path class="cls-31" d="M230.25,524c.12-1.62-.6-3.44,1.1-4.69a.83.83,0,0,1,1.11.16A4.34,4.34,0,0,1,233,522a4,4,0,0,1-.53,1.88,1.94,1.94,0,0,1-1.1.64A1.69,1.69,0,0,1,230.25,524Z" transform="translate(-228.03 -346.53)"/><path class="cls-32" d="M291.08,362.47a3.14,3.14,0,0,1,2.06-2.64c1.25-.49,1.78.47,2.42,1.21a2,2,0,0,1-.54,2.09,3,3,0,0,1-3.6-.34Z" transform="translate(-228.03 -346.53)"/><path class="cls-33" d="M266,367.56l.16-.93c3.12,1.11,1.59,3.28,1.19,5.19a1.52,1.52,0,0,1-2,.72.8.8,0,0,1-.35-1.25A4.8,4.8,0,0,1,266,367.56Z" transform="translate(-228.03 -346.53)"/><path class="cls-21" d="M262.83,382.4a1.72,1.72,0,0,0-.58.23,1.33,1.33,0,0,1-.73-1c1.19-1.72-.9-4.91,2.53-5.62l.42.5c.37,1.31-.17,2.55-.27,3.83C264,381.22,263.88,382.13,262.83,382.4Z" transform="translate(-228.03 -346.53)"/><path class="cls-34" d="M240.52,476.3l.84,1.73.33.3-.24.38a3.14,3.14,0,0,0-1.65,2.13c-.1.39.11,1.49-.91.89-.29-.17-.29-.83-.42-1.27C238.87,478.93,237.83,476.69,240.52,476.3Z" transform="translate(-228.03 -346.53)"/><path class="cls-35" d="M271.53,392.86c.09-1.21.19-2.42.28-3.64l1.55-1.06h.14a4.26,4.26,0,0,1,1.1,2.88c-.17,1.3-.15,2.73-1.94,3Z" transform="translate(-228.03 -346.53)"/><path class="cls-36" d="M307.17,356c.17-1.21-2.38,0-1.58-1.81,2.26.2,4.6-.25,6.75.86l-2,.41Z" transform="translate(-228.03 -346.53)"/><path class="cls-37" d="M230.06,533.42c-.3-.36-.6-.73-.91-1.09.07-1.63-.12-3.3.93-4.73a2.49,2.49,0,0,1,1.59,1.4A3.52,3.52,0,0,1,230.06,533.42Z" transform="translate(-228.03 -346.53)"/><path class="cls-38" d="M254.89,409c.81-1.88.22-4.12,1.54-5.86.7.28,1.38.63,2.1.89a1.62,1.62,0,0,1,.22,1.1,5.45,5.45,0,0,1-.56,1c-.83,1-.71,2.71-2.24,3.25A1.23,1.23,0,0,1,254.89,409Z" transform="translate(-228.03 -346.53)"/><path class="cls-39" d="M264.05,376l0-1c-.77-1.21-.37-1.94.94-2.29,2.72.82,1,3,1.4,4.55a3.62,3.62,0,0,1-.21,1.46c-2.72.67-.92-2.29-2.22-2.78Z" transform="translate(-228.03 -346.53)"/><path class="cls-40" d="M232.06,514.59a7.75,7.75,0,0,1,1-4.71.88.88,0,0,1,1.15-.08,3.4,3.4,0,0,1,.59,1.19,5.54,5.54,0,0,1,.06,2,2.32,2.32,0,0,1-1.58,2A1.45,1.45,0,0,1,232.06,514.59Z" transform="translate(-228.03 -346.53)"/><path class="cls-41" d="M262.83,382.4l.57-2.67a1,1,0,0,1,1.09-.07c.54.63,2.16.45,1.49,2l0,2.72a.72.72,0,0,1-1,0A3.58,3.58,0,0,0,262.83,382.4Z" transform="translate(-228.03 -346.53)"/><path class="cls-42" d="M265,384.38l1,0c.69,1,2.84-.3,2.83,1.82a2,2,0,0,1-3,.1l-1,.07c-.75.07-1.28,0-.79-1Z" transform="translate(-228.03 -346.53)"/><path class="cls-43" d="M232.06,514.59l1,0c1,2,2,4-1.46,4.64l-.29.09A5.52,5.52,0,0,1,232.06,514.59Z" transform="translate(-228.03 -346.53)"/><path class="cls-37" d="M258.24,404.2l-1.81-1.08c.63-1.47-1.11-4,2-4.36.44,1.52-2.25,3,0,4.55.23.24.28.45.16.64S258.34,404.2,258.24,404.2Z" transform="translate(-228.03 -346.53)"/><path class="cls-44" d="M254.89,409a2.69,2.69,0,0,0,.85,0,5.74,5.74,0,0,1,1.24,2.49,3.38,3.38,0,0,1,.11,1.14,1.45,1.45,0,0,1-.64.89l-1.79.22C253.32,412.06,254.94,410.56,254.89,409Z" transform="translate(-228.03 -346.53)"/><path class="cls-3" d="M234,509.88h-.91a8.26,8.26,0,0,1,1-4.72.9.9,0,0,1,1.29.26C236.1,507.29,236,508.89,234,509.88Z" transform="translate(-228.03 -346.53)"/><path class="cls-45" d="M242.22,464.72l2.29,1.94a3.7,3.7,0,0,1,.27,4.26,1,1,0,0,1-1.3.39q-.54-3-1.09-5.93C242.33,465.16,242.27,464.94,242.22,464.72Z" transform="translate(-228.03 -346.53)"/><path class="cls-46" d="M277.23,384.29l1,2c-1.17.63-2.35,1-3.56.07A2.86,2.86,0,0,1,277.23,384.29Z" transform="translate(-228.03 -346.53)"/><path class="cls-47" d="M265.85,386.28l3-.1a1.74,1.74,0,0,1,.83,1.95C268.21,387.93,266,389.32,265.85,386.28Z" transform="translate(-228.03 -346.53)"/><path class="cls-48" d="M245,454.25c.1-.68.2-1.37.29-2.05,0-1-.37-2.14.91-2.71h0a2.7,2.7,0,0,1,1.55,3.53,2.8,2.8,0,0,1-1.44,1.51A1.56,1.56,0,0,1,245,454.25Z" transform="translate(-228.03 -346.53)"/><path class="cls-49" d="M295.16,360.85l-2-1,.28-.91,5.56,1.83a2.57,2.57,0,0,1-2.57,1.38C295.76,361.94,295.56,361.3,295.16,360.85Z" transform="translate(-228.03 -346.53)"/><path class="cls-50" d="M267.73,361.89c0-.57,0-1.14.08-1.71.19-1.05-.76-2.35.67-3.14,1.61.41,1.61.41,1.31,3.95a3.33,3.33,0,0,1-.07.83A1.48,1.48,0,0,1,267.73,361.89Z" transform="translate(-228.03 -346.53)"/><path class="cls-51" d="M269.79,361c-1.89-.83,1.2-3.32-1.31-3.95l.48-.9a.67.67,0,0,1,1-.11C271.44,357.74,271.12,359.39,269.79,361Z" transform="translate(-228.03 -346.53)"/><path class="cls-52" d="M235.94,495.73l1.07-5.62a.71.71,0,0,1,1.15.31,4.21,4.21,0,0,1-.87,5.32A1.14,1.14,0,0,1,235.94,495.73Z" transform="translate(-228.03 -346.53)"/><path class="cls-53" d="M266,381.64c-.38-.91-2.37-.19-1.94-1.92.42-.77,1.39-.41,1.93-.94v-.94a.62.62,0,0,1,.91-.25l.05.4C266.81,379.26,267.29,380.68,266,381.64Z" transform="translate(-228.03 -346.53)"/><path class="cls-32" d="M235.94,495.73h.72a2.5,2.5,0,0,1,1,2.45,3.37,3.37,0,0,1-1.36,2.35,1.16,1.16,0,0,1-1.26-.09C234.7,498.76,235.57,497.3,235.94,495.73Z" transform="translate(-228.03 -346.53)"/><path class="cls-54" d="M260.21,391.93h-1.6c.64-1.33.83-3,2.59-3.52Z" transform="translate(-228.03 -346.53)"/><path class="cls-55" d="M239.79,472.2c.41-.71.82-1.42,1.34-2.3.91,2.14-.6,3.67-.62,5.41C238.83,474.61,239.74,473.3,239.79,472.2Z" transform="translate(-228.03 -346.53)"/><path class="cls-56" d="M261.52,381.66l.73,1a7.38,7.38,0,0,1-1,4.47C259.62,385.19,261.7,383.49,261.52,381.66Z" transform="translate(-228.03 -346.53)"/><path class="cls-16" d="M235,500.45h.82a3,3,0,0,1,.7,3.34,2.23,2.23,0,0,1-1.58,1.37H234C233.76,503.47,234.49,502,235,500.45Z" transform="translate(-228.03 -346.53)"/><path class="cls-57" d="M242.54,458l.87.94c.68.8,1.64,1.52.83,2.77-.63,0-1.28,1.19-1.88,0Z" transform="translate(-228.03 -346.53)"/><path class="cls-58" d="M237.57,490.06l-.28.05H237c.1-1.5.07-3.06,1.63-3.95,0,1.29,0,2.57,0,3.85A.59.59,0,0,1,237.57,490.06Z" transform="translate(-228.03 -346.53)"/><path class="cls-59" d="M400.5,355.25c-2.31-.32-1.76-1.58-.95-2.91Z" transform="translate(-228.03 -346.53)"/><path class="cls-60" d="M264.86,373l-.78,2c-2-1.81-.86-2.84.93-3.71,0,.28.05.57.08.85.3.29.36.51.19.67A.62.62,0,0,1,264.86,373Z" transform="translate(-228.03 -346.53)"/><path class="cls-61" d="M231.09,528.71l-1-1.11.17-3.57h.93a3.56,3.56,0,0,1,.45,4.17Z" transform="translate(-228.03 -346.53)"/><path class="cls-8" d="M251.09,428.61l-.07-3.56c.76-.37,1.12.11,1.44.68a4.4,4.4,0,0,1,.24,1.24,3,3,0,0,1-.58,1.79A.67.67,0,0,1,251.09,428.61Z" transform="translate(-228.03 -346.53)"/><path class="cls-62" d="M253.65,423.09l.16,2.06a1.22,1.22,0,0,1-.08,1.72,1.1,1.1,0,0,1-1.18,0,4.06,4.06,0,0,1-.23-1.25,1.78,1.78,0,0,1,.52-1.75Z" transform="translate(-228.03 -346.53)"/><path class="cls-63" d="M252.84,423.84l-.15,2c-.11.39-.33.5-.69.28s-.65-.7-1-1C251,423.7,252,423.83,252.84,423.84Z" transform="translate(-228.03 -346.53)"/><path class="cls-64" d="M251.09,428.61a3.72,3.72,0,0,1,.58,0,1.37,1.37,0,0,1,.18,2h-1.16C250.82,430,251,429.29,251.09,428.61Z" transform="translate(-228.03 -346.53)"/><path class="cls-65" d="M270,356l-1,.11.78-1A2.36,2.36,0,0,0,270,356Z" transform="translate(-228.03 -346.53)"/><path class="cls-66" d="M283.83,474.1l-1.79.07a16.08,16.08,0,0,1-.81-9.13,60.52,60.52,0,0,0,.92-13,8.9,8.9,0,0,1,.19-1.36c.65-4.33,1.43-8.64,2.08-13,0-1.37-.21-2.77.46-4.06,1.65-3.73-.87-7.62.43-11.36-.19-2.28.16-4.54.17-6.81a16.78,16.78,0,0,1,.38-4.12,10.4,10.4,0,0,1,1.11-2.48c1.24-1.53,1.88-3.49,3.41-4.81,2.79.28,2.37,2,1.78,3.86-.41,1-.78,2-1.19,3-.26.59-.54,1.17-.8,1.76-1.17,3.05,1.09,6,.17,9.09-.58,1.52-.2,3.1-.29,4.66-1.1,5.59-.52,11.34-1.51,16.95a17.69,17.69,0,0,1-.92,1.85c-1.05,1.84-.63,3.87-.71,5.84a12.16,12.16,0,0,1,0,1.35,14.42,14.42,0,0,1-.4,2.7,13.71,13.71,0,0,0-.48,3.31,32.47,32.47,0,0,1-.27,5.4,36.86,36.86,0,0,0-.66,5.14c-.09,1.12-.06,2.24-.25,3.35A2.72,2.72,0,0,1,283.83,474.1Z" transform="translate(-228.03 -346.53)"/><path class="cls-67" d="M273.4,425.91c-1.86,3.21-1.95,6.88-2.67,10.39-1.23,1.47,0,3.4-.92,4.92-1.4,1.27-.29,3.09-1,4.52a.93.93,0,0,1-1.35-.18c-1.77-3.83.26-7.4.76-11.07a68,68,0,0,0,.45-7.94,2.17,2.17,0,0,1-.89-.62,51,51,0,0,1,1.78-13.45c1.25,0,1.15-1.36,1.87-1.9a4.39,4.39,0,0,1,1.11-.64,3.78,3.78,0,0,1,2.69-.18,2.37,2.37,0,0,1,.83,1.21C275.47,416,274.3,420.93,273.4,425.91Z" transform="translate(-228.03 -346.53)"/><path class="cls-68" d="M262.23,491.11c-1.59-7.63-1.06-15.27-.15-22.92,1.2,1.17.4,2.56.52,3.86-.07-1.93.92-3.81.17-5.78.36-2-.27-4.24,1.78-5.67a1.51,1.51,0,0,1,1.51,1.24l-3,28.13c-.15,1.38.14,2.85-.74,4.11A2.23,2.23,0,0,1,262.23,491.11Z" transform="translate(-228.03 -346.53)"/><path class="cls-69" d="M272.53,529.7a4.87,4.87,0,0,1-1.84,5.63,2.4,2.4,0,0,0,0,3.76c-2,3.36-5.42,3.56-8.77,3.74-1.47.07-3.29.56-3.69-1.76l.34-.56c1.89-2.33,5-.3,7-1.94a12.4,12.4,0,0,0,.31-2.35,6,6,0,0,1,.46-1.81c1.46-1.76,2.16-3.65,1.08-5.87-.06-1.78.73-3.38,1.11-5.07.34-1.08.56-2.26,2-2.53a2.6,2.6,0,0,1,1.59,1.24,5,5,0,0,1,.34,3.31c-.12,1.22-1.07,2.32-.56,3.64A1,1,0,0,1,272.53,529.7Z" transform="translate(-228.03 -346.53)"/><path class="cls-39" d="M291.19,407.94c-.07-1.34,1.64-2.95-.6-4a2.29,2.29,0,0,1-.94-1.12,9.75,9.75,0,0,1,0-5.17c.84-1.9.83-4.46,3.65-4.89l1.93,2a21.82,21.82,0,0,0,.53,4c.08,1.44.13,2.88.29,4.32,0,2.29.19,4.58-1.19,6.6a1.5,1.5,0,0,1-1.88.15A4.68,4.68,0,0,1,291.19,407.94Z" transform="translate(-228.03 -346.53)"/><path class="cls-70" d="M269.72,466.48q1.32-9.92,2.65-19.83l.61.47c1.26,3.9,1.14,8,1.43,12-.26,1.36-.67,2.69-1,4a10.78,10.78,0,0,0-.64,3c0,1.4.24,2.78.32,4.17.32,1.44,1.13,2.72,1.36,4.2a8.09,8.09,0,0,1-.17,3.46c-.66,1.45-1.54,2.52-3.36,2a2.35,2.35,0,0,1-1-1.77c.05-1.73.73-3.46,0-5.19a6.58,6.58,0,0,1-.12-1.33C269.94,469.94,270.85,468.19,269.72,466.48Z" transform="translate(-228.03 -346.53)"/><path class="cls-53" d="M277.31,427.82,282,408c1.09-.85.71-2.67,2.17-3.29a2,2,0,0,1,2,.57,4.36,4.36,0,0,1,.67,2.18,35,35,0,0,0-.66,7.71c-.14,1.18.43,2.51-.75,3.45-1.58.28-1.88-.58-1.75-1.92.16-1.71.62-3.39.71-5.12a32.11,32.11,0,0,1-2,8.09,11.16,11.16,0,0,1-2,5C279.58,425.93,279.5,428,277.31,427.82Z" transform="translate(-228.03 -346.53)"/><path class="cls-71" d="M273.4,425.91c-.47-5.44,1.62-10.54,2.14-15.84,0-.22-.08-.45-.13-.67-.5-2.35.35-4.52.94-6.72,1.52-3.44.82-7.54,3.13-10.76a2.54,2.54,0,0,1,1.35-.51,1.91,1.91,0,0,1,1.31.6Z" transform="translate(-228.03 -346.53)"/><path class="cls-72" d="M251.74,514.39a3.73,3.73,0,0,0-.78.31,1.88,1.88,0,0,1-1-1.41c-.27.38,0,.83-.13,1.2-.65,1.44.29,3.4-1.46,4.48a4,4,0,0,1-2,.22,3.27,3.27,0,0,1-2.22-1.49,2.3,2.3,0,0,1,0-1.3c1.14-1.84.88-4,1.29-6a5.76,5.76,0,0,0-.21-3.53c-.15-1-.75-2.12.35-3,2.33-.1,4.24,1.14,6.3,1.94a9.1,9.1,0,0,1,.07,6.07Z" transform="translate(-228.03 -346.53)"/><path class="cls-73" d="M256.54,469.31l-2.85,20.75a.93.93,0,0,1-1.34-.26,5.92,5.92,0,0,1-.79-3c-.42-3.63.62-7.15.87-10.73,0-1.75,0-3.5,0-5.25a17.8,17.8,0,0,1,.06-2.19,13.07,13.07,0,0,1,1.47-5.51,1.53,1.53,0,0,1,1.15-.72,1.36,1.36,0,0,1,1,.9C256.26,465.3,255.6,467.36,256.54,469.31Z" transform="translate(-228.03 -346.53)"/><path class="cls-74" d="M265.16,499.53l1.89-13.2c.87-.13,1.26.43,1.58,1.1.62,2.41.23,5.07,1.73,7.28a23,23,0,0,1,.78,6c-.76,1.68-.69,3.8-2.55,4.92a2.15,2.15,0,0,1-1.83-.26c-1.14-1.21-.61-2.78-.91-4.18A7.84,7.84,0,0,0,265.16,499.53Z" transform="translate(-228.03 -346.53)"/><path class="cls-75" d="M294,410c1.68-2.35,1.22-5,1.15-7.63,2.9,1.43,1,3.79,1.11,5.75-2.19,8.72-1.1,18-4.7,26.5a2.27,2.27,0,0,1-.94-1.13,7.73,7.73,0,0,1-.17-3.67c.38-1.62.77-3.23,1.1-4.87a13.83,13.83,0,0,0,.51-4.83c0-1.66,0-3.32.07-5a9.14,9.14,0,0,1,.35-2.08A7.21,7.21,0,0,1,294,410Z" transform="translate(-228.03 -346.53)"/><path class="cls-76" d="M269.62,434.23c-1,3.77-2,7.54-1.76,11.5a.78.78,0,0,1,.26,1,1.34,1.34,0,0,1-1,.33c-1.05-.8-.94,1.39-1.94.76-.84-.67-.66-1.45-.29-2.25a70.92,70.92,0,0,1,1.88-13.21,1.65,1.65,0,0,1,.52,1.68c-.15,1,.83.52.21.57-.09,0-.14-.55-.13-.86a1.4,1.4,0,0,1,.92-1.4C269.56,432.41,269,433.71,269.62,434.23Z" transform="translate(-228.03 -346.53)"/><path class="cls-77" d="M272.53,529.7l-.84-.06c-.63-.51-.52-1.17-.38-1.84.85-1.84.95-3.86,1.43-5.79.59-2.88,1.63-5.7,1.21-8.72a4.09,4.09,0,0,1,.05-1.21c.33-.89,1.09-1.6,1.19-2.61.06-.58.12-1.17.19-1.76a6.3,6.3,0,0,1,1.12-2.89c.44-.5.92-.89,1.65-.63A79.85,79.85,0,0,1,272.53,529.7Z" transform="translate(-228.03 -346.53)"/><path class="cls-78" d="M284.83,458c.06-1-.33-2.17.92-2.78a2,2,0,0,1,2.84,0,38.43,38.43,0,0,0-.88,14.21c-1.26-.32-2.66-.13-3.79-1l.92-3.77A10.87,10.87,0,0,0,284.83,458Z" transform="translate(-228.03 -346.53)"/><path class="cls-79" d="M261.24,521.12l1-2.78c.72-.59.18-2.62,2.11-1.83a7.58,7.58,0,0,1,1.52,4.54,7,7,0,0,1-.17,1.38c-1.43,3,1,6.38-1,9.31a2.14,2.14,0,0,1-1.94-.56,8.58,8.58,0,0,1-2.2-3.53C260.26,525.43,261.48,523.35,261.24,521.12Z" transform="translate(-228.03 -346.53)"/><path class="cls-80" d="M277.31,427.82c1.33-.86,1.55-2.35,2-3.69.81-.26,1.1.27,1.35.88.73.62-1.38,2.37.95,2.38a1.68,1.68,0,0,1,.83.83,3.82,3.82,0,0,1,.07,1.9c-.58,1.56,0,3.65-2.08,4.53-1.14-1.43-1.7.6-2.64.46a2.06,2.06,0,0,1-1.82-.84,4.36,4.36,0,0,1,.23-2.87A3.93,3.93,0,0,1,277.31,427.82Z" transform="translate(-228.03 -346.53)"/><path class="cls-81" d="M282.91,451.4c.87,2.55.34,5.11.12,7.69-.42,5-.67,10.05-1,15.08,0,.9,0,1.8,0,2.7a1.39,1.39,0,0,1-1.47-.58c-1.51-5-.7-10-.52-15,1.32-3-.05-6.52,1.49-9.54A1,1,0,0,1,282.91,451.4Z" transform="translate(-228.03 -346.53)"/><path class="cls-81" d="M287.6,443.75c.73-5.93-.57-12.06,1.78-17.83a2.68,2.68,0,0,1,1.11,1.87c0,1.88-.07,3.77-.06,5.66,0,1.64-.64,3.41.95,4.73-.15,2.23.81,4.62-.95,6.61C290.19,442.53,288.5,444.21,287.6,443.75Z" transform="translate(-228.03 -346.53)"/><path class="cls-49" d="M302.58,369.27c.68,3.09,1.6,6.15.85,9.37l-5.45.13a.88.88,0,0,1-.25-.74c0-.26.1-.39.16-.39.41-.73,1.87-.29,1.76-1.59a3.47,3.47,0,0,1-1.37-2.92C298.54,370.52,299,368.16,302.58,369.27Z" transform="translate(-228.03 -346.53)"/><path class="cls-82" d="M272.66,394c.35-1,.7-1.92,1-2.87a.93.93,0,0,1,1.27,0c1.12,5.75-.3,11-3.22,15.92a1,1,0,0,1-1.28-.17A46.69,46.69,0,0,1,272.66,394Z" transform="translate(-228.03 -346.53)"/><path class="cls-81" d="M297.93,378c0,.26,0,.51.05.77-1,.62-.11,1.27,0,1.91-1,2.61-3.26,2.31-5.36,2.46-2-.32-2.32-1.95-2.83-3.47a3.62,3.62,0,0,1,.16-2.11c1.56-1.94,3.62-.65,5.45-.87A3.12,3.12,0,0,1,297.93,378Z" transform="translate(-228.03 -346.53)"/><path class="cls-73" d="M287.6,443.75l2.43-2.3.4,3.34q-.87,4.31-1.76,8.61a3.36,3.36,0,0,1-2.81-1l-.13-1q.45-.42.93-.81c2.51-1.24-1.11-1-.44-1.77.16-1.34-.38-2.75.45-4Z" transform="translate(-228.03 -346.53)"/><path class="cls-70" d="M251.91,511.89c.1-1.94-.92-3.86-.08-5.8-1.93-1.91-4-3.72-4.93-6.4,1.14-1.53,2.69-.71,4.1-.75a3.11,3.11,0,0,1,1.19.4c1.39,1,.86,2.7,1.47,4A19.41,19.41,0,0,1,251.91,511.89Z" transform="translate(-228.03 -346.53)"/><path class="cls-83" d="M283.83,397.64c.73-2.32-2-6.15,2.88-6.65,3.14,1.78,4.64,3.89,1.44,7A19.48,19.48,0,0,0,283.83,397.64Z" transform="translate(-228.03 -346.53)"/><path class="cls-84" d="M276.23,431.4l.16,3c.79.7,1.67,1.33,1.63,2.56-.16,1.42-.21,2.86-.43,4.28a5.73,5.73,0,0,1-2.37,2.9c-1.4-.1-1.66-1.18-2-2.25Z" transform="translate(-228.03 -346.53)"/><path class="cls-3" d="M335.58,380.4v21.82H335V380.35Z" transform="translate(-228.03 -346.53)"/><path class="cls-85" d="M287.58,397.63c2.44-2.57.85-4.61-.87-6.64l4.61,1.73c.31,1.8-.59,3.41-.78,5.12,0,1.82-.05,3.64-.08,5.46-1.86.42-1.73-1.4-2.49-2.22a5.64,5.64,0,0,1-.9-2.33A1.69,1.69,0,0,1,287.58,397.63Z" transform="translate(-228.03 -346.53)"/><path class="cls-86" d="M319.58,437.89c2.12,4.64-.85,8.94-.33,13.48C318.75,446.85,318.32,442.34,319.58,437.89Z" transform="translate(-228.03 -346.53)"/><path class="cls-87" d="M265,460.89c-1.46,1.58-1.33,3.71-1.91,5.6a.49.49,0,0,1-.84,0A54.56,54.56,0,0,1,264,452.14c1.22.82,1.19,2.22,1.59,3.42a6.28,6.28,0,0,1,.17,1.23C265.5,458.15,265.73,459.6,265,460.89Z" transform="translate(-228.03 -346.53)"/><path class="cls-88" d="M280,492.93l-.93,1.81c-.66.87.21,2.08-.65,2.9a1.46,1.46,0,0,1-1.15.22c-.25-2.3-1.86-.22-2.64-.82a1.32,1.32,0,0,1-.59-.91c.66-1.32-1-1.65-1.13-2.67a2.34,2.34,0,0,1,.38-1.76c1.79-1.72,3.49-.55,5.21.15A3.82,3.82,0,0,1,280,492.93Z" transform="translate(-228.03 -346.53)"/><path class="cls-89" d="M295.23,388.24c-1,3.13-2.92,1.51-4.74,1.07-1.59-.39-3.33-.16-4.78-1.17a.82.82,0,0,1-.26-.71c0-.25.08-.38.14-.38a3.82,3.82,0,0,1,1-.74,4.35,4.35,0,0,1,2.46-.41c1.67.33,3.42.13,5,.81A2.14,2.14,0,0,1,295.23,388.24Z" transform="translate(-228.03 -346.53)"/><path class="cls-90" d="M266,500.49c1.55,1.32.61,3.11.9,4.67,1.64,2,.1,4.06.22,6.1a5.64,5.64,0,0,1-.56,2c-.68,1-1.47.73-2.28.2a10.12,10.12,0,0,1-1.05-1.61,3.38,3.38,0,0,1,.67-3C265.36,506.2,264.85,503.13,266,500.49Z" transform="translate(-228.03 -346.53)"/><path class="cls-85" d="M296.23,408.11c-.64-1.87.66-4.11-1.11-5.75-.79-1.18-.09-2.39-.09-3.59a4.61,4.61,0,0,1,1.07-4C298.1,399.21,297.4,403.65,296.23,408.11Z" transform="translate(-228.03 -346.53)"/><path class="cls-64" d="M261.24,521.12c1.83,2.23-.24,4.53.13,6.78a2.4,2.4,0,0,1,.27,1.85c-.69,1.16-1.44,2.2-3.05,1.77A34.7,34.7,0,0,1,261.24,521.12Z" transform="translate(-228.03 -346.53)"/><path class="cls-91" d="M274.28,390.86a1.83,1.83,0,0,0-.58.28c-.06-1-.13-2-.2-3,2.5.08,4.76,1.61,7.34,1.14a1.54,1.54,0,0,1,0,2.63,4.62,4.62,0,0,0-.74.06C277.78,393.62,276.24,391.15,274.28,390.86Z" transform="translate(-228.03 -346.53)"/><path class="cls-92" d="M280,492.93l-1.8,0c-2-1.44-2.27-3.49-2-5.73.37-1.45,1-2.52,2.81-2.2a2.87,2.87,0,0,1,1,4.15C278.32,490.38,280.48,491.66,280,492.93Z" transform="translate(-228.03 -346.53)"/><path class="cls-93" d="M270.66,477.82l.08,1.92-.55.45a2.2,2.2,0,0,1-2.59-.51,3,3,0,0,1,0-2.07c.19-1.86-.09-3.83,1.24-5.44a1.14,1.14,0,0,1,1.78,0,7.23,7.23,0,0,0,0,.93C271.35,474.68,269.89,476.24,270.66,477.82Z" transform="translate(-228.03 -346.53)"/><path class="cls-94" d="M283.92,468.44c1.48-.53,3-1.17,3.79,1a4.49,4.49,0,0,1-1.94,3.77c-1.15.46-1.43-.47-1.86-1.16Z" transform="translate(-228.03 -346.53)"/><path class="cls-74" d="M258.59,531.52l2.64-1.87a3.54,3.54,0,0,1,1,2c.17,2.15,0,4.15-2.37,5.11a2,2,0,0,1-2.29-1.51Z" transform="translate(-228.03 -346.53)"/><path class="cls-95" d="M323.31,403.25l-.93,11.35c-.29.43-.59.46-.9,0-.42-3.83-.65-7.65.92-11.33C322.68,402.87,323,402.83,323.31,403.25Z" transform="translate(-228.03 -346.53)"/><path class="cls-96" d="M283.84,405.12c0,1.35.18,2.82-1.82,2.91.33-2.94.07-6,1.72-8.69a2.29,2.29,0,0,1,1.61,1.32C286,402.54,285.22,403.93,283.84,405.12Z" transform="translate(-228.03 -346.53)"/><path class="cls-97" d="M293.06,382.59c1.27-1.59,3.76,0,4.9-1.91l2.08.84a.68.68,0,0,1-.18,1c-2.42-1.7-1.44,1.6-2.6,1.76a2.83,2.83,0,0,1-2.65.93,2.38,2.38,0,0,1-1.72-1.25A1.76,1.76,0,0,1,293.06,382.59Z" transform="translate(-228.03 -346.53)"/><path class="cls-98" d="M267.65,477.61l.34,2c2.05,2.31,2.44,5.06,2.13,8-.87,1.2-1.56.65-2.21-.24l-.86-1C267.08,483.41,266.37,480.44,267.65,477.61Z" transform="translate(-228.03 -346.53)"/><path class="cls-9" d="M258.43,454.22c-1.36,2.71,0,5.73-1,8.49a1.17,1.17,0,0,1-1.8,0l-.08.05c-1.28-1.52-.45-3.17-.31-4.77a13.87,13.87,0,0,1,.64-4.14,1.79,1.79,0,0,1,1-.87C257.8,452.94,258,453.72,258.43,454.22Z" transform="translate(-228.03 -346.53)"/><path class="cls-99" d="M252.91,490.13a6.85,6.85,0,0,1,.78-.07c.28,2.18.55,4.36.83,6.54-.5,1.1-.37,2.85-2.42,2.34-1.48-1.13-.73-2.75-.93-4.17a16.49,16.49,0,0,1,.49-2.5A3,3,0,0,1,252.91,490.13Z" transform="translate(-228.03 -346.53)"/><path class="cls-100" d="M278.15,504.19l-1,1c-3.68.55-3.46-1.89-3.29-4.29,1.43-1.52,3-1.21,4.62-.38a2.51,2.51,0,0,1-.23,2.72C278.25,503.59,278.21,503.89,278.15,504.19Z" transform="translate(-228.03 -346.53)"/><path class="cls-101" d="M273.27,441.85l2.11,2a2.48,2.48,0,0,1,.87,1.76,3.43,3.43,0,0,1-.46,1.93,2,2,0,0,1-1.8.63,1.63,1.63,0,0,1-1.14-1.46l-.23-.14-.25.09C272.84,445.08,271.89,443.24,273.27,441.85Z" transform="translate(-228.03 -346.53)"/><path class="cls-102" d="M251.88,498.6c1.39,0,1.81-1.28,2.64-2,.2,2.3.49,4.62-.86,6.73-1.88-.63-.91-2.73-1.93-3.8A.61.61,0,0,1,251.88,498.6Z" transform="translate(-228.03 -346.53)"/><path class="cls-13" d="M266,500.49a21.15,21.15,0,0,1-1.3,8.45c0,.07-.28.1-.41.07a1.43,1.43,0,0,1-.39-.23c.42-3.08.83-6.17,1.25-9.25Z" transform="translate(-228.03 -346.53)"/><path class="cls-103" d="M325.86,390.61c-2.17-3-1.91-5.58-.07-8.22C324.92,385,326.8,387.55,325.86,390.61Z" transform="translate(-228.03 -346.53)"/><path class="cls-104" d="M280.07,489.12a6.1,6.1,0,0,0-1-3.81,2.58,2.58,0,0,1-.7-1.77,4.66,4.66,0,0,1,.28-1.27c.59-.83.87-2.13,2.38-1.6C280.59,483.47,282,486.49,280.07,489.12Z" transform="translate(-228.03 -346.53)"/><path class="cls-105" d="M285.65,387.34l.06.8c-2,0-4,.65-5.8-.83,1.55-.86.83-2.86,1.95-3.93l.55-.15a1.85,1.85,0,0,1,.92.6,13.22,13.22,0,0,1,.78,1.55C284.49,386.15,285.3,386.57,285.65,387.34Z" transform="translate(-228.03 -346.53)"/><path class="cls-61" d="M299.86,382.55l.18-1c3.23,1.59,3.06,2.44-1.13,5.52C297.88,385.23,302.22,384.55,299.86,382.55Z" transform="translate(-228.03 -346.53)"/><path class="cls-106" d="M265,460.89a3.2,3.2,0,0,1,0-3.85,1.27,1.27,0,0,1,1.89,0,9.06,9.06,0,0,1-.87,4.78Z" transform="translate(-228.03 -346.53)"/><path class="cls-107" d="M284.76,400.43l-1-1.09.09-1.7c1.24-2.41,2.49-3.3,3.75,0,0,.28-.06.57-.11.84a2.77,2.77,0,0,1-1.2,1.17A5.73,5.73,0,0,1,284.76,400.43Z" transform="translate(-228.03 -346.53)"/><path class="cls-108" d="M258.43,454.22l-1.05-1c-1.18-2.13-1.95-4.19.93-5.65l1.06,0C259.66,449.91,258.83,452,258.43,454.22Z" transform="translate(-228.03 -346.53)"/><path class="cls-67" d="M268.75,432.52c-1.15.62-.61,2.17-1.65,3.32-.12-1.46-.21-2.49-.29-3.52l.14-1.68c1.07-.56-.55-3.43,2.19-2.56C269.15,429.58,269.67,431.11,268.75,432.52Z" transform="translate(-228.03 -346.53)"/><path class="cls-109" d="M261.15,505.1v4.56c-2.31-2.88-2.09-5.18-1-7.58C261.34,502.79,260.33,504.25,261.15,505.1Z" transform="translate(-228.03 -346.53)"/><path class="cls-88" d="M321.41,422.23c-.11,2.83.82,5.74-.67,8.46-.32.41-.64.41-.94,0l.87-8.45C320.91,421.75,321.16,421.73,321.41,422.23Z" transform="translate(-228.03 -346.53)"/><path class="cls-110" d="M262.28,466.47l.84,0c2.24,2.3-1,4.25-.67,6.48-.12-1.59-.25-3.19-.37-4.78C262.14,467.62,262.21,467.05,262.28,466.47Z" transform="translate(-228.03 -346.53)"/><path class="cls-111" d="M329,376.66l1.2-6.21C330.85,372.71,331.4,375,329,376.66Z" transform="translate(-228.03 -346.53)"/><path class="cls-77" d="M342.17,378.75v8.36l-.85,0v-8.38C341.6,378.35,341.88,378.35,342.17,378.75Z" transform="translate(-228.03 -346.53)"/><path class="cls-46" d="M257.61,535.23l1.67,1.21c1.7,1.81.37,3.15-.72,4.52l-.37.11C255.85,539.33,258,537.16,257.61,535.23Z" transform="translate(-228.03 -346.53)"/><path class="cls-112" d="M321.41,422.23l-.37,0-.37,0a16.82,16.82,0,0,1,.81-7.61l.9,0Q321.9,418.41,321.41,422.23Z" transform="translate(-228.03 -346.53)"/><path class="cls-73" d="M291.38,438.18c-2.69-.22-2.43-1.92-1.87-3.76.48-.49.73-1.34,1.69-1l.33,1.23Z" transform="translate(-228.03 -346.53)"/><path class="cls-71" d="M257.34,527.65l-1.42,5.44c-.47-2.25-.71-4.39.52-6.32A1.65,1.65,0,0,1,257.34,527.65Z" transform="translate(-228.03 -346.53)"/><path class="cls-91" d="M266.93,457.06,265,457c0-.35-.07-.71-.11-1.06a1.92,1.92,0,0,1-.09-2c.76-1,1.6-1.71,2.87-.73A4.94,4.94,0,0,1,266.93,457.06Z" transform="translate(-228.03 -346.53)"/><path class="cls-90" d="M293.86,384.79l3.4-.48a8.62,8.62,0,0,1-2,3.93l-1-.92A2,2,0,0,1,293.86,384.79Z" transform="translate(-228.03 -346.53)"/><path class="cls-113" d="M263.24,511.82l.91.88a4.72,4.72,0,0,1,.73,1.93,2.26,2.26,0,0,1-.8,1.85l-1.82,1.86C261.55,516,263.23,514,263.24,511.82Z" transform="translate(-228.03 -346.53)"/><path class="cls-114" d="M285.86,452.41c1.11-.16,2.15-.12,2.81,1,0,.6-.06,1.2-.08,1.79l-2.84,0C285.79,454.25,285.83,453.33,285.86,452.41Z" transform="translate(-228.03 -346.53)"/><path class="cls-92" d="M342.06,361v6.37l-.49,0V361Z" transform="translate(-228.03 -346.53)"/><path class="cls-83" d="M265.81,447.53l.66-1.93.61,1.13c1.43,1.36-.06,3.18.74,4.63l-.05,1c-1.9.95-2.34-.31-2.66-1.76A4.29,4.29,0,0,1,265.81,447.53Z" transform="translate(-228.03 -346.53)"/><path class="cls-115" d="M265.81,447.53l.08,2.84a4.72,4.72,0,0,1-.86,1.34.76.76,0,0,1-.91-.31c0-2-.19-4,.81-5.87C265.22,446.2,265.52,446.86,265.81,447.53Z" transform="translate(-228.03 -346.53)"/><path class="cls-116" d="M342.17,378.75h-.85v-6.51l.85,0Z" transform="translate(-228.03 -346.53)"/><path class="cls-117" d="M270.67,472.16h-1.78q.41-2.84.83-5.69C271.45,468.14,270.39,470.26,270.67,472.16Z" transform="translate(-228.03 -346.53)"/><path class="cls-118" d="M255.64,462.7h1.8c-1.38,2.05,0,4.48-.9,6.6C254.68,467.32,255.9,464.91,255.64,462.7Z" transform="translate(-228.03 -346.53)"/><path class="cls-119" d="M336.4,365.78v5.32l-.48,0v-5.41Z" transform="translate(-228.03 -346.53)"/><path class="cls-120" d="M281.05,480.67l-1.81,1.93c-1.86-2.28-.07-3.8,1.11-5.45l.59-.37,1.06.09A5.93,5.93,0,0,1,281.05,480.67Z" transform="translate(-228.03 -346.53)"/><path class="cls-121" d="M261.15,505.1c-1.07-.76-.68-2-1-3,.12-1.46.24-2.93.35-4.39,2.31.88.94,2.62.94,4Z" transform="translate(-228.03 -346.53)"/><path class="cls-122" d="M261.42,501.72c-.38-1.33.29-2.9-.94-4a1.9,1.9,0,0,1,.68-2c.35-.43.69-.43,1,0C262.3,497.77,262.4,499.82,261.42,501.72Z" transform="translate(-228.03 -346.53)"/><path class="cls-123" d="M290.54,397.84a8.71,8.71,0,0,1,.78-5.12c.7-.85,1.37-1,2,.08C291.37,393.92,292,396.45,290.54,397.84Z" transform="translate(-228.03 -346.53)"/><path class="cls-83" d="M257.34,527.65l-.9-.88c.29-1.51-.37-3.31,1.78-5.1C257.85,524.16,257.59,525.91,257.34,527.65Z" transform="translate(-228.03 -346.53)"/><path class="cls-124" d="M271.64,410.88c-.29,1,.63,3.65-2.06,1.6a.48.48,0,0,1,.1-.69c1.27-1.07-.28-3,1.29-4C272.62,408.5,272.43,409.63,271.64,410.88Z" transform="translate(-228.03 -346.53)"/><path class="cls-125" d="M270.65,539.09c-1-.11-1.76-.44-1.77-1.63s.48-2,1.81-2.13C270.68,536.58,270.66,537.84,270.65,539.09Z" transform="translate(-228.03 -346.53)"/><path class="cls-79" d="M258.78,514.71c-.29-1.77-.48-3,1-3.88C260.65,512.3,260.14,513.32,258.78,514.71Z" transform="translate(-228.03 -346.53)"/><path class="cls-104" d="M278.21,497.62c.12-1-.25-2.19.9-2.88.73,1.59,1.79,3.17.08,4.79l-.48-.31A2.21,2.21,0,0,1,278.21,497.62Z" transform="translate(-228.03 -346.53)"/><path class="cls-126" d="M258.82,516.43c.95,1.73.29,2.62-.75,3.81C257.26,518.61,257.27,517.53,258.82,516.43Z" transform="translate(-228.03 -346.53)"/><path class="cls-127" d="M313.68,356.81l5,.4A3.85,3.85,0,0,1,313.68,356.81Z" transform="translate(-228.03 -346.53)"/><path class="cls-123" d="M296.1,394.79a6.66,6.66,0,0,1-1.07,4c-1.41-1.4-1-2.71.21-4A1.21,1.21,0,0,1,296.1,394.79Z" transform="translate(-228.03 -346.53)"/><path class="cls-104" d="M278.29,503.28l-.1-2.84a.79.79,0,0,1-.28-.66c0-.24.07-.36.13-.36a.8.8,0,0,1,1,0l.13.11C280.09,501.07,280.18,502.42,278.29,503.28Z" transform="translate(-228.03 -346.53)"/><path class="cls-128" d="M327.11,369.38c-.17,1.58.71,3.37-.88,4.68-.27.46-.55.44-.85,0a9.67,9.67,0,0,0,.88-4.71C326.54,368.91,326.83,368.93,327.11,369.38Z" transform="translate(-228.03 -346.53)"/><path class="cls-129" d="M264.94,451.43l.95-1.06c.09,1.17.59,2,1.88,2l-.06.93-2.54.92C264.26,453.35,264.49,452.4,264.94,451.43Z" transform="translate(-228.03 -346.53)"/><path class="cls-130" d="M319.8,430.68h.94c-.09,1.68-.19,3.36-.32,5.8C319.23,434.07,319.72,432.36,319.8,430.68Z" transform="translate(-228.03 -346.53)"/><path class="cls-131" d="M268.77,427.82,267,430.64a8.17,8.17,0,0,1,.85-4.71h.92A1.24,1.24,0,0,1,268.77,427.82Z" transform="translate(-228.03 -346.53)"/><path class="cls-132" d="M327.11,369.38h-.85c.11-1.3-.43-2.68.42-4C327.54,366.7,327,368.08,327.11,369.38Z" transform="translate(-228.03 -346.53)"/><path class="cls-133" d="M264.94,451.43c.08.93.15,1.85.23,2.78-.08.59-.16,1.18-.23,1.77-1.41-1-.46-2.61-1-3.83a.66.66,0,0,1,.15-.75C264.39,451.41,264.67,451.41,264.94,451.43Z" transform="translate(-228.03 -346.53)"/><path class="cls-46" d="M280.84,391.92v-2.63c1.44.43,2.63,1,1.3,2.72Z" transform="translate(-228.03 -346.53)"/><path class="cls-134" d="M331.41,365c-.62-1.45-.7-2.41,0-3.39C332.09,362.62,332,363.58,331.41,365Z" transform="translate(-228.03 -346.53)"/><path class="cls-98" d="M262.18,495.72l-1,0c.32-1.53-1-3.45,1.07-4.59l.12,3C262.29,494.62,262.24,495.17,262.18,495.72Z" transform="translate(-228.03 -346.53)"/><path class="cls-135" d="M267.82,451.36c-1.78-1.29-.66-3.06-.74-4.63l.73,0a3.93,3.93,0,0,1,.11,3.82A.76.76,0,0,1,267.82,451.36Z" transform="translate(-228.03 -346.53)"/><path class="cls-136" d="M267.92,450.59c0-1.27-.08-2.54-.11-3.82,0-.35,0-.69.05-1h1A8.83,8.83,0,0,1,267.92,450.59Z" transform="translate(-228.03 -346.53)"/><path class="cls-137" d="M294.7,443.5a3.94,3.94,0,0,1,0,3.5A3.28,3.28,0,0,1,294.7,443.5Z" transform="translate(-228.03 -346.53)"/><path class="cls-120" d="M283.91,472l1.86,1.16c-.18,1.27-.51,2.25-1.94.92C283.86,473.4,283.88,472.71,283.91,472Z" transform="translate(-228.03 -346.53)"/><path class="cls-82" d="M270.83,408.1c-.26,1.27.27,2.78-1.15,3.69a9.35,9.35,0,0,1,.79-4.89l.37.28a.58.58,0,0,1,.2.62C271,408,270.89,408.1,270.83,408.1Z" transform="translate(-228.03 -346.53)"/><path class="cls-136" d="M269.81,441.22c.08-1.68-.72-3.53.92-4.92A8.24,8.24,0,0,1,269.81,441.22Z" transform="translate(-228.03 -346.53)"/><path class="cls-138" d="M323.31,403.25a4.59,4.59,0,0,1-.91,0c.11-1.29-.42-2.67.48-3.92C323.82,400.6,323.29,402,323.31,403.25Z" transform="translate(-228.03 -346.53)"/><path class="cls-139" d="M250.88,535.29c-1.55-1.31-.65-3.12-.95-4.69l0,0c1.72-.07,1.51.85,1,1.93Z" transform="translate(-228.03 -346.53)"/><path class="cls-34" d="M325.38,374.09l.85,0c-.07,1.31-.14,2.62-.24,4.36C324.91,376.75,325.38,375.4,325.38,374.09Z" transform="translate(-228.03 -346.53)"/><path class="cls-140" d="M251,532.55a2.11,2.11,0,0,0-1-1.93c.32-.65.95-1.67,1.47-1.12C252.28,530.41,252,531.66,251,532.55Z" transform="translate(-228.03 -346.53)"/><path class="cls-141" d="M258.31,447.6c-1.44,1.7-.47,3.79-.93,5.65l-.72.08a3.38,3.38,0,0,1-1.59-1.76,13.89,13.89,0,0,0-1.84-3.07,4.5,4.5,0,0,1-.36-1.2,2.81,2.81,0,0,1,1.15-2.78c2.53-.31.5-2.88,1.86-3.78C259.91,441.88,257.89,445.18,258.31,447.6Z" transform="translate(-228.03 -346.53)"/><path class="cls-142" d="M258.46,430.67c.2,3.52-1.41,6.55-2.66,9.67a2.3,2.3,0,0,1-1-1.16,9.13,9.13,0,0,1-.43-3.07c0-2.85-.06-5.71,1.78-8.15C259.1,427,257.25,430.14,258.46,430.67Z" transform="translate(-228.03 -346.53)"/><path class="cls-113" d="M264.2,406.42c-.07,1.25.13,2.58-1.07,3.48-1.36,1-2.28.22-3.14-.79-1.25-2.46-.18-4.18,1.79-5.61A1.28,1.28,0,0,1,263,403a2.37,2.37,0,0,1,1.44,1.43A3.45,3.45,0,0,1,264.2,406.42Z" transform="translate(-228.03 -346.53)"/><path class="cls-109" d="M258.46,430.67l-1.71-3c-.31-.11-.46-.27-.44-.48s.06-.38.14-.38l1.87-4.65a1.39,1.39,0,0,1,2,0C260.88,425.26,259.22,427.86,258.46,430.67Z" transform="translate(-228.03 -346.53)"/><path class="cls-143" d="M262.08,415.51c-.26.95-.51,1.91-.77,2.87-1,1-2,.5-3.05.07a3.91,3.91,0,0,1-1-.83,1.5,1.5,0,0,1,.23-1.82.86.86,0,0,1-.05-.48c1.07-1.49.16-4.22,2.91-4.68C262.26,411.78,261.27,414,262.08,415.51Z" transform="translate(-228.03 -346.53)"/><path class="cls-144" d="M255.51,438.84c.1.5.19,1,.29,1.5l.07.4c2,4.17,2,4.23-1.18,4.26-.73-.57-1.52-1.08-1.73-2.08a4.32,4.32,0,0,1,.24-2.77A2.33,2.33,0,0,1,255.51,438.84Z" transform="translate(-228.03 -346.53)"/><path class="cls-145" d="M258.26,417.5l3.05.88c-.34,1.26-.67,2.52-1,3.79l-2,0-.76,0C256.26,420.37,256.88,418.88,258.26,417.5Z" transform="translate(-228.03 -346.53)"/><path class="cls-146" d="M262.08,415.51c-1.17-1.37-1.37-3.11-1.81-4.76a1.08,1.08,0,0,1-.25-1.43l.46-.29,2.65.87Z" transform="translate(-228.03 -346.53)"/><path class="cls-147" d="M264.08,404.23,263,403.1c-1-2-1-3.66,1.7-4.22a2.17,2.17,0,0,1,1.41.7,4.26,4.26,0,0,1-.89,3C264,402.53,264.83,403.91,264.08,404.23Z" transform="translate(-228.03 -346.53)"/><path class="cls-96" d="M266.1,399.58l-1.26-.17a2.08,2.08,0,0,1-.4-1.05,3.57,3.57,0,0,1,.25-1.12,3.48,3.48,0,0,1,1.42-1.78,1.18,1.18,0,0,1,1,.32C267,397.1,267.13,398.5,266.1,399.58Z" transform="translate(-228.03 -346.53)"/><path class="cls-147" d="M267.15,395.78H266c-.52-.71-.2-1.37.12-2a4.22,4.22,0,0,1,.78-.74c.43-.86.77-.47,1.11.08C267.86,394,268,395.06,267.15,395.78Z" transform="translate(-228.03 -346.53)"/><path class="cls-148" d="M264.08,404.23c.51-.48-1.1-2.36,1.13-1.69-.16,1.34-.11,2.73-1,3.88Z" transform="translate(-228.03 -346.53)"/><path class="cls-149" d="M250.91,499.51c-1.22,1-2.42-.46-3.63,0a1.55,1.55,0,0,1-1.36-1,2.09,2.09,0,0,1-.08-.8c-.32.41-.06.86-.07,1.31a15.65,15.65,0,0,1-.67,4.57c-.39.85-.48,1.92-1.64,2.18a2.09,2.09,0,0,1-2-.63c-1.41-2.14-.27-4.21.16-6.31,1.08-1.84-.43-3.7,0-5.54a23.6,23.6,0,0,0,1.13-4.6,1.69,1.69,0,0,1,1-.8,24,24,0,0,0,3.68.63,3.33,3.33,0,0,1,1.2.5,4.38,4.38,0,0,1,1.44,2.92,11.86,11.86,0,0,1-.14,3.26c-.43,1.4.46,2.3,1.23,3.24A.84.84,0,0,1,250.91,499.51Z" transform="translate(-228.03 -346.53)"/><path class="cls-150" d="M236.77,532.52c-.25-2.45.43-4.3,3.14-4.74a2.13,2.13,0,0,0,2.07-2.46c0-2.41-1-1.55-2.13-.91-.06,0-.78-.8-.7-.93,1.56-2.57-1.36-5.42.53-7.94,2-.16,2.42,1.66,3.36,2.82a21.89,21.89,0,0,1,1.14,3.21,12.85,12.85,0,0,1,.29,4.1,5.92,5.92,0,0,1-1.94,4.09c-.84.45-1.87.52-2.59,1.23a27.13,27.13,0,0,1-2.17,1.82A.88.88,0,0,1,236.77,532.52Z" transform="translate(-228.03 -346.53)"/><path class="cls-151" d="M248.05,518.36c2.12-2.32,0-5.51,2-8.69.38,2.09.65,3.56.92,5-.51,6.41-3.52,12.3-3.81,18.76a1,1,0,0,1-1.3.12c-2.38-2.33-.59-4.91-.44-7.39.25-.9.55-1.78.81-2.67C246.94,521.84,246.66,519.8,248.05,518.36Z" transform="translate(-228.03 -346.53)"/><path class="cls-51" d="M230.06,533.42c.38-1.56,1.3-3,1-4.71l.12.08a.66.66,0,0,1,.83-.34c.52.57,1.21.07,1.79.28q-.45,4.63-.88,9.27c-1.24-.16-1.19,3-3.06,1.19C230,537.27,230,535.34,230.06,533.42Z" transform="translate(-228.03 -346.53)"/><path class="cls-79" d="M237.57,490.06l1-.05,2.84,1a1.53,1.53,0,0,1,.45,1.77c-.44,1-.36,2.17-1.22,3l-1.89,3.79c-1.11.58-1.54-.22-2-1-.06-.94-.11-1.88-.16-2.82A7.5,7.5,0,0,0,237.57,490.06Z" transform="translate(-228.03 -346.53)"/><path class="cls-152" d="M234.06,512.73l.12-1.9a1.36,1.36,0,0,1,1.79-.2c.67.91-.1,2.23.87,3,.24,3.27-.87,6.24-2,9.2a2.41,2.41,0,0,1-2.1-2.18C233.56,518.11,234.55,515.54,234.06,512.73Z" transform="translate(-228.03 -346.53)"/><path class="cls-70" d="M242.43,518.38c-1.56-.33-1.59-2.13-2.75-2.84.38-2.83-.67-5.84,1-8.52,2.83.91,1.51,3.67,2.42,5.43C243.24,514.47,243.37,516.49,242.43,518.38Z" transform="translate(-228.03 -346.53)"/><path class="cls-153" d="M236.82,498.56l2,1c-.56,2.14.61,4.57-1.05,6.54-.55-.9-.82-1.8-.39-2.25a8.94,8.94,0,0,0,.2,4,.79.79,0,0,1-.65,1.06.92.92,0,0,1-1.36-.19c-.09-1.55-.5-3.12.29-4.61v-3.71C236.15,499.82,236.48,499.19,236.82,498.56Z" transform="translate(-228.03 -346.53)"/><path class="cls-154" d="M236.77,532.52c.26,0,.51,0,.77,0,1.11.51,1.42,1.66,2,2.58.64,1.25,1.22,2.51.09,3.8C232.43,539.61,236.9,535,236.77,532.52Z" transform="translate(-228.03 -346.53)"/><path class="cls-155" d="M233.05,521.28l1.77,1.6c-1.76,1.71-.11,4-1,5.85-.6-.17-1.34,2.93-1.82-.07a6.62,6.62,0,0,1,0-4.68l.32-1.81A1.08,1.08,0,0,1,233.05,521.28Z" transform="translate(-228.03 -346.53)"/><path class="cls-156" d="M242.44,512.7c-1.78-1.52-.07-4.11-1.72-5.68-.19-.79-.24-1.53.71-1.91l1.88.15a1.44,1.44,0,0,1,.68,1.43c0,.38,0,.76-.07,1.15,0,1.18.45,2.34.23,3.55C243.86,512.19,243.63,513.08,242.44,512.7Z" transform="translate(-228.03 -346.53)"/><path class="cls-157" d="M240.67,495.77c0-1-.14-2.15,1-2.81.22-.35.46-.37.73-.07,0,2,.19,4-.79,5.91C241.41,497.76,241.71,496.56,240.67,495.77Z" transform="translate(-228.03 -346.53)"/><path class="cls-49" d="M239.65,538.93l-1-3.51a1.9,1.9,0,0,1,1.22-.71,2.32,2.32,0,0,1,1.94.81,2.49,2.49,0,0,1-.38,3.33Z" transform="translate(-228.03 -346.53)"/><path class="cls-158" d="M246.13,533.45h1v3.78a1.45,1.45,0,0,1-1.32.39c-1.37-.63-1.5-1.78-1.28-3.07C244.83,533.84,245.23,533.29,246.13,533.45Z" transform="translate(-228.03 -346.53)"/><path class="cls-154" d="M241.44,538.85l0-3.53.58-.36c2,0,2.15,1.27,2.09,2.77a3,3,0,0,1-.64,1.19Z" transform="translate(-228.03 -346.53)"/><path class="cls-159" d="M237.54,507.9c-1.21-1.46-.84-3-.45-4.75,1,.89.41,2,.64,3Z" transform="translate(-228.03 -346.53)"/><path class="cls-106" d="M235.87,509h1c0,1.57,0,3.15,0,4.72-1.24-.63-.89-1.84-1-2.87A1.24,1.24,0,0,1,235.87,509Z" transform="translate(-228.03 -346.53)"/><path class="cls-160" d="M243.5,538.92a3.18,3.18,0,0,1,0-.62c.56-1.19,1.77-.58,2.63-.95l1.05-.11C247,540.08,244.93,538.81,243.5,538.92Z" transform="translate(-228.03 -346.53)"/><path class="cls-161" d="M267.73,361.89l2-.07c0,1.22,0,2.44-.05,3.67-.48.69-.06,1.89-1.24,2.18-1.39-.63-1.45-1.56-.59-2.69C267.67,364,266.82,363,267.73,361.89Z" transform="translate(-228.03 -346.53)"/><path class="cls-162" d="M268.73,367.37l.94-1.88c.3.31.6.63.91.94-.11,1.79.23,3.75-1.82,4.8A2.88,2.88,0,0,1,268.73,367.37Z" transform="translate(-228.03 -346.53)"/><path class="cls-163" d="M302.58,369.27c-2.65-.08-2.92,2.19-3.79,3.87a11.31,11.31,0,0,1-2.62,3.26,7,7,0,0,1-2.35.81c-3.46-1.75-.62-3.44.05-5.15.94-.81,2.82-.59,2.75-2.52a2.25,2.25,0,0,1,.8-.82c1-.48,2-.94,2.29-2.19a4.66,4.66,0,0,1,1.48-2.58c.94-1,2.44-.57,3.48-1.31,2.4.39,1,1.42.41,2.36C304.22,366.41,303.41,367.85,302.58,369.27Z" transform="translate(-228.03 -346.53)"/><path class="cls-164" d="M300.69,367.41a2.3,2.3,0,0,1-2.67,1.86c-1.5-1.95-2.58-4.11-1.21-6.44,1.12-1.9,3.06-1.86,5-1.05l2.89.86c-.55,1.37-1.84,1.44-3,1.69C299.65,364.84,299.73,366,300.69,367.41Z" transform="translate(-228.03 -346.53)"/><path class="cls-165" d="M301.78,361.78c-7.25-.53-3.35,4.57-3.76,7.49l-1,.1a6,6,0,0,1-1.72-3.19,4.23,4.23,0,0,1,.93-4.16l2.77-1.27Z" transform="translate(-228.03 -346.53)"/><path class="cls-166" d="M298.91,355.21l1.59-.8c.95,2.52,3.29,1.38,5,1.91C303,358,300.68,358.12,298.91,355.21Z" transform="translate(-228.03 -346.53)"/><path class="cls-124" d="M262.16,403.33c-.42,1.94-2.55,3.38-1.68,5.7l-.22-.11c-1.54.37-1.82-.89-2.35-1.82a2.6,2.6,0,0,1,.22-2l.11-.95.15-.89,1.12-.93,1.93.85.41-.24Z" transform="translate(-228.03 -346.53)"/><path class="cls-167" d="M262.16,403.33a4.16,4.16,0,0,0-.72-.1c-.41-2.17.7-3.85,1.78-5.55,1.07-.57,1.29.31,1.65,1a1.67,1.67,0,0,1,0,.77c-2.19.44-1.46,2.34-1.85,3.68C262.71,403.17,262.44,403.24,262.16,403.33Z" transform="translate(-228.03 -346.53)"/><path class="cls-105" d="M264.87,398.65l-1.65-1,.27-4.69c1.26-.83,1.79-.09,2.17,1-.26,1.2.13,2.52-.63,3.64Z" transform="translate(-228.03 -346.53)"/><path class="cls-168" d="M265.07,393.93a1.6,1.6,0,0,0-1.58-.94,1.44,1.44,0,0,1,.52-2c1.59-.2,1.86,1.46,2.89,2.05,0,.28,0,.56,0,.84A1.26,1.26,0,0,1,265.07,393.93Z" transform="translate(-228.03 -346.53)"/><path class="cls-41" d="M264.08,385.38l.79,1c.08,1,.32,2.12-.74,2.85C263.64,387.93,262.36,386.67,264.08,385.38Z" transform="translate(-228.03 -346.53)"/><path class="cls-169" d="M296.21,362c0,1.49,0,3-.08,4.48-.81,1.84-.37,4.1-1.92,5.68,1.42,1.56-3.18,3.14,0,4.69.91-.4,1.09.1,1.06.86l-4.91.16a3.69,3.69,0,0,1-2.12,1,6.82,6.82,0,0,1-2.38.22,1.72,1.72,0,0,1-1.13-1.31c.63-.66,1.26-1.33,1.88-2,1.07,0,2.68.63,2.06-1.61a5.1,5.1,0,0,1,.84-3.84,19,19,0,0,0,1.72-3.09c1.47-1.35,2.25-3.29,3.87-4.53,0-.62,0-1.25,0-1.88Z" transform="translate(-228.03 -346.53)"/><path class="cls-36" d="M295.12,362.73c-.2,2.41-2,3.53-3.74,4.73-.25-.21-.34-.42-.26-.63s.17-.32.26-.32c.92-1.23,0-2.48,0-3.73Z" transform="translate(-228.03 -346.53)"/><path class="cls-32" d="M291.38,366.51v.95a3.07,3.07,0,0,1-1.85,2.89A5,5,0,0,1,291.38,366.51Z" transform="translate(-228.03 -346.53)"/><path class="cls-165" d="M268.73,367.37l0,3.86c-.3.32-.61.63-.92.95a.64.64,0,0,1-1-.06c-.23-1.83.74-3.81-.7-5.49-.26-1.41.5-1.77,1.71-1.66C267.86,365.88,267.74,366.83,268.73,367.37Z" transform="translate(-228.03 -346.53)"/><path class="cls-117" d="M266.83,372.12l1,.06-1,5.41-.91.25c-.19-1.66.61-3.54-1.11-4.84a.82.82,0,0,1,.23-.86Z" transform="translate(-228.03 -346.53)"/><path class="cls-170" d="M241.5,486.31c0-2.53,0-5.06-.05-7.6h0c.78-.54.31-1.78,1.23-2.25a1.86,1.86,0,0,1,1.91.38c.74,1.38.09,2.73-.09,4.09-.54,1.78-.71,3.68-1.75,5.3A.88.88,0,0,1,241.5,486.31Z" transform="translate(-228.03 -346.53)"/><path class="cls-171" d="M241.5,486.31l.84-.06c1.78,0,1.61,1.06,1.16,2.24-.2,1.51.39,3.23-1.12,4.4a5.82,5.82,0,0,1-.73.07l-.21-1.94Z" transform="translate(-228.03 -346.53)"/><path class="cls-172" d="M244.19,476.83h-1.66c-.85-.83-.56-1.79-.29-2.74s.83-1.84,1.24-2.77a4.46,4.46,0,0,1,.73-.13,1.71,1.71,0,0,1,1.92-.3,2.4,2.4,0,0,1,.83,1.82,6.14,6.14,0,0,1-1.1,3.17A2.15,2.15,0,0,1,244.19,476.83Z" transform="translate(-228.03 -346.53)"/><path class="cls-10" d="M242.24,474.08c.09.92.19,1.83.29,2.74l-1.08,1.9a1.25,1.25,0,0,1-.09-.69C241.7,476.72,241.08,475.2,242.24,474.08Z" transform="translate(-228.03 -346.53)"/><path class="cls-173" d="M247,453.24a4.67,4.67,0,0,0-.86-3.74c1.53-1.12,1.89-2.78,2.06-4.53,2.39.46,1.64,2.43,1.91,3.92a8.54,8.54,0,0,1-.13,1.43,8.13,8.13,0,0,1-.37,1.39c-.51,1-.72,2.42-2.2,2.55C247,454.3,246.9,453.7,247,453.24Z" transform="translate(-228.03 -346.53)"/><path class="cls-174" d="M249,439.12c1.32-1.34.74-3.05.86-4.62l1.81.83c1.84,1.92.63,3.68-.27,5.46a1.06,1.06,0,0,1-1.34.3A1.92,1.92,0,0,1,249,439.12Z" transform="translate(-228.03 -346.53)"/><path class="cls-175" d="M250.07,441.09a4.43,4.43,0,0,1,.73-.11,1.2,1.2,0,0,1,1.24-.22,2.88,2.88,0,0,1,1.18,2.34c-.3,1.39,0,3.46-2,3.45-1.39,0-1.26-1.77-1.39-2.94,0-.23.05-.45.08-.67Z" transform="translate(-228.03 -346.53)"/><path class="cls-176" d="M249,449.51c-.43-1.48.61-3.22-.78-4.54-.23-1.33.38-2,1.69-2l.21-.08C249.76,445.08,252.48,447.81,249,449.51Z" transform="translate(-228.03 -346.53)"/><path class="cls-69" d="M282,379.8l.93-1a4.4,4.4,0,0,0,.81,0l.35.47a2.08,2.08,0,0,1-.39,1.07,2.44,2.44,0,0,1-1,.57C282.07,380.76,281.53,380.61,282,379.8Z" transform="translate(-228.03 -346.53)"/><path class="cls-177" d="M284.75,377.8l1,1a1.27,1.27,0,0,1-.83.5,1.1,1.1,0,0,1-.85-.43l-.36-.09Z" transform="translate(-228.03 -346.53)"/><path class="cls-178" d="M280.08,382.52l.9-1a1.24,1.24,0,0,1,.56.76,1.37,1.37,0,0,1-.27.92Z" transform="translate(-228.03 -346.53)"/><path class="cls-119" d="M281.27,383.24a2,2,0,0,1-.24-.67.68.68,0,0,1,1-.23.65.65,0,0,1-.11,1v.08Z" transform="translate(-228.03 -346.53)"/><path class="cls-115" d="M256.45,426.84a6.74,6.74,0,0,1,.3.86l-1.26,8.68c-2.07.09-1.55-2.2-2.69-3l0-1c1.13-1.76,0-4.71,2.89-5.56A5.58,5.58,0,0,0,256.45,426.84Z" transform="translate(-228.03 -346.53)"/><path class="cls-179" d="M255.74,426.85c-1.33,1.67-1.09,4.15-2.89,5.56l-.19-1.77a4.67,4.67,0,0,1,.08-3.82c1.13-.06,1-.95,1.07-1.67Z" transform="translate(-228.03 -346.53)"/><path class="cls-69" d="M257.47,415.8v1.61c-.2,1.22,0,2.57-1.09,3.51l-1.68,1v-1.46C256.19,419.24,254.73,416.27,257.47,415.8Z" transform="translate(-228.03 -346.53)"/><path class="cls-180" d="M256.38,420.92c.26-1.2-.17-2.62,1.09-3.51a1.52,1.52,0,0,0,.79.09c-.23,1.55-.47,3.1-.7,4.65Z" transform="translate(-228.03 -346.53)"/><path class="cls-181" d="M247,453.24c1.87.61.69-1.79,1.85-1.88,1.46,1.17,1.25,2.74,1.05,4.31-.67,2.4-.92,4.9-1.64,7.29-.49,1.51-1.09,2.91-3,2.88v-4.06c.36-2.47-.44-5,.72-7.43Z" transform="translate(-228.03 -346.53)"/><path class="cls-73" d="M246,454.35c-.16,2.48.86,5.08-.72,7.43l-1,0c-.2-.94-1.21-1.65-.83-2.77,2.71-.85-.24-3.58,1.55-4.73Z" transform="translate(-228.03 -346.53)"/><path class="cls-182" d="M245.27,465.84c1.55-.46,1.83-1.77,2.09-3.11a.86.86,0,0,1,1.22.35,5.3,5.3,0,0,1,.57,2.87c-.23,1.55-.52,3.05-2.65,2.81-1.09-.52-1.17-1.5-1.17-2.52Z" transform="translate(-228.03 -346.53)"/><path class="cls-183" d="M245.33,466.24c.83.44.89,1.25.95,2.06a2.12,2.12,0,0,1-.11,2.89h-2l.3-4.52A1.58,1.58,0,0,0,245.33,466.24Z" transform="translate(-228.03 -346.53)"/><path class="cls-184" d="M258.58,407.07l1.68,1.85c0,.61,0,1.22,0,1.83-1.48,1.2.13,4.32-2.85,4.57l-1-1.83c0-.26.07-.52.09-.78C257.76,411,256.62,408.48,258.58,407.07Z" transform="translate(-228.03 -346.53)"/><path class="cls-185" d="M282,382.55c-.31,0-.63,0-.94,0,0-.34,0-.68,0-1,.11-.72.17-1.46,1-1.76l.95.87c.07.15.15.3.23.44a1.81,1.81,0,0,1-.33.95A1.65,1.65,0,0,1,282,382.55Z" transform="translate(-228.03 -346.53)"/><path class="cls-186" d="M252.8,433.42c2.1-.11,1.67,2.09,2.69,3,0,.82,0,1.64,0,2.46l-1.78,1.36c-1.46-1.18-.68-2.93-1.09-4.38a1.41,1.41,0,0,1,.08-1.25Z" transform="translate(-228.03 -346.53)"/><path class="cls-139" d="M252.72,434.57a1.52,1.52,0,0,0,.22.75c.13,2,1.3,4.13-.9,5.74L250.8,441q.44-2.84.88-5.65Z" transform="translate(-228.03 -346.53)"/><path class="cls-187" d="M252.74,426.82l-.08,3.82c-.27,0-.54,0-.81,0l-.18-2,.42-1.67c.18-.39.4-.4.67-.09Z" transform="translate(-228.03 -346.53)"/><path class="cls-121" d="M233.05,521.28l-.75.89c-.22-1-.43-1.95-.66-2.92,2.17-1,1.25-3,1.46-4.64l1-1.88C236.21,515.87,233.71,518.47,233.05,521.28Z" transform="translate(-228.03 -346.53)"/><path class="cls-182" d="M232,524l0,4.68c-.27,0-.54.08-.8.13l0-4.76A7,7,0,0,0,232,524Z" transform="translate(-228.03 -346.53)"/><path class="cls-188" d="M266,378.78a2,2,0,0,1-1.93.94h-.64c.2-1.26.4-2.53.59-3.79Z" transform="translate(-228.03 -346.53)"/><path class="cls-189" d="M256.56,412c-1.46-.7-.59-2-.82-3.06,1.67-.77-.16-3.29,1.92-3.85C257.88,407.52,258.81,410,256.56,412Z" transform="translate(-228.03 -346.53)"/><path class="cls-190" d="M256.56,412a16.62,16.62,0,0,0,1.1-6.91,2.42,2.42,0,0,1,.47,0l.45,1.92c-.17,2.06.31,4.36-2,5.64A.85.85,0,0,1,256.56,412Z" transform="translate(-228.03 -346.53)"/><path class="cls-121" d="M235.87,509c0,.61-.05,1.23-.07,1.84l-1.62,0c-.08-.32-.15-.64-.22-.95a7.23,7.23,0,0,0,1-4.72c.3-.33.59-.67.88-1C235.84,505.76,235.85,507.37,235.87,509Z" transform="translate(-228.03 -346.53)"/><path class="cls-191" d="M252.76,426.84a1.28,1.28,0,0,1-.67.09,1.51,1.51,0,0,1-.09-.84,3.44,3.44,0,0,1,.69-.28C252.72,426.15,252.74,426.5,252.76,426.84Z" transform="translate(-228.03 -346.53)"/><path class="cls-192" d="M282.91,451.4a7.25,7.25,0,0,0-.78.17c-2.29-2.41-1.19-5.35-1.27-8.1a8.51,8.51,0,0,1,.29-1.42,12.64,12.64,0,0,0,.61-4.73,27.66,27.66,0,0,1,.29-4.07,7.76,7.76,0,0,1,.27-1.34c.82-2,.57-4.05.37-6.11.14-1.46,0-3.05,1.69-3.83a1.39,1.39,0,0,1,1,1c-.62,3.8,1.31,7.55.17,11.36-1,1,.42,1.83.11,2.77-2.25,4.5-1.77,9.52-2.76,14.26Z" transform="translate(-228.03 -346.53)"/><path class="cls-81" d="M285.56,434.37a34.74,34.74,0,0,1-.38-12.2c.5-.46,1-.57,1.49,0-1.09,2.37-.25,4.73-.09,7.12C286.69,431,287.49,433,285.56,434.37Z" transform="translate(-228.03 -346.53)"/><path class="cls-193" d="M288.46,400.4c.67,1,1.33,1.93,2,2.9a.83.83,0,0,1,.13.68c-.51,1.94-.94,3.93-3,5-1.47-2.21-1.17-4.65-.92-7.08C287,401.06,287.45,400.36,288.46,400.4Z" transform="translate(-228.03 -346.53)"/><path class="cls-81" d="M282.91,451.4c.22-4.89-.76-10,2.76-14.26C284.78,441.9,284.71,446.82,282.91,451.4Z" transform="translate(-228.03 -346.53)"/><path class="cls-194" d="M289.55,411.78l.68-1.08.79.29c1.55,3.26,2.77,6.5-.6,9.44C290.12,417.55,288.17,414.83,289.55,411.78Z" transform="translate(-228.03 -346.53)"/><path class="cls-195" d="M289.55,411.78c.33,2.83.67,5.67,1,8.51a1.57,1.57,0,0,1,.45,1,1.89,1.89,0,0,1-.5,1,.92.92,0,0,1-1-.29C290.37,418.63,286.87,415.18,289.55,411.78Z" transform="translate(-228.03 -346.53)"/><path class="cls-195" d="M286.67,422.16h-1.88q-3-2,.15-3.71c.27-1,.55-1.92.82-2.88.27-.43.56-.45.88-.06C286.9,417.73,285.89,420,286.67,422.16Z" transform="translate(-228.03 -346.53)"/><path class="cls-195" d="M287.58,401.36c0,2.53,0,5.05.05,7.58-.29.65-.59,1.29-.88,1.93-1-1.2-.35-2.62-.53-3.94C286.76,405.09,284,402.46,287.58,401.36Z" transform="translate(-228.03 -346.53)"/><path class="cls-170" d="M289.49,422.05a1.19,1.19,0,0,0,.85-.07c1.72,1.64,1.06,3.54.61,5.43a1,1,0,0,1-1.38.4l-.18-1.89C289.23,424.63,288,423.3,289.49,422.05Z" transform="translate(-228.03 -346.53)"/><path class="cls-196" d="M286.62,407c0,1.29.09,2.58.13,3.87,0,1.55-.07,3.1-.11,4.64a6.4,6.4,0,0,1-.88.06c0-2.83,0-5.65,0-8.47C286,406.67,286.3,406.63,286.62,407Z" transform="translate(-228.03 -346.53)"/><path class="cls-81" d="M286.67,444.8l.15,4.73a1.25,1.25,0,0,1-.32,1.87l-.38-.06-.39,0C286.09,449.19,284.88,446.78,286.67,444.8Z" transform="translate(-228.03 -346.53)"/><path class="cls-197" d="M291.19,407.94c.85.13,1.7.25,1.95,1.29-.28.64-.15,1.45-.8,1.94a1.52,1.52,0,0,1-1.55-.12,6.53,6.53,0,0,0-.56-.35C290.1,409.62,290,408.54,291.19,407.94Z" transform="translate(-228.03 -346.53)"/><path class="cls-81" d="M284.83,458a6,6,0,0,1,0,6.72Q284.83,461.31,284.83,458Z" transform="translate(-228.03 -346.53)"/><path class="cls-198" d="M270.83,408.1a2.59,2.59,0,0,1,0-.92,32,32,0,0,0,3.45-16.32c.19-.65.21-1.83,1.28-.87,1.33,1.19,3,1.39,4.53,2-1.8,3.56-.8,7.86-3,11.33-1.89,1.91-.92,4.52-1.64,6.72l0,0-1.12-.15c-3.39-1.25,1.2-3.66-.59-4.83.39,1.89-.89,3.74-1.27,5.75-.31,0-.61,0-.92,0C271.56,409.9,271.83,408.81,270.83,408.1Z" transform="translate(-228.03 -346.53)"/><path class="cls-199" d="M268.77,427.82c0-.63,0-1.27,0-1.9,2.4,2.54.31,5.58.91,8.31-.85-.28-.78-1-.88-1.71C268.76,431,268.76,429.39,268.77,427.82Z" transform="translate(-228.03 -346.53)"/><path class="cls-200" d="M272.56,410.84a10.8,10.8,0,0,1,1.28-5.74c1.85,1.43-1.35,3.44.58,4.82A1.9,1.9,0,0,1,272.56,410.84Z" transform="translate(-228.03 -346.53)"/><path class="cls-201" d="M258.56,541l.72-4.53c2.06-1,2.06-2.87,2.06-4.76a4.93,4.93,0,0,1,1.83-.95l.93.83a2.12,2.12,0,0,1,1.36,2.59,2.79,2.79,0,0,1-.8,1c-2.33,1.78-2.35,1.86-1,2.79,1.26-.17,2.47-.22,3.14,1.16-.08,1.32-.83,2.22-2.06,1.61C262.58,539.59,260.62,540.62,258.56,541Z" transform="translate(-228.03 -346.53)"/><path class="cls-202" d="M274.59,512.6c1.85,3.43-.2,6.47-1,9.63l-.43-.27c-.38-.63-.78-.75-1.22,0l-.39.25-.9-1.06a3.28,3.28,0,0,1-1-2.6,4.75,4.75,0,0,1,1.88-3.57C272.62,514.24,273.34,513.08,274.59,512.6Z" transform="translate(-228.03 -346.53)"/><path class="cls-203" d="M265,534.4c-.3-.95-.61-1.9-.91-2.85,1.36-3-1.52-6.48.84-9.45a3.14,3.14,0,0,1,1.17,2.41,9.74,9.74,0,0,0,.7,3.88,15.14,15.14,0,0,1,.89,1.86,5.42,5.42,0,0,1-.66,4.12l-.23,1.82C265.25,536.57,265.19,535.42,265,534.4Z" transform="translate(-228.03 -346.53)"/><path class="cls-204" d="M270.61,518.32c0,.94,0,1.87.05,2.81-1.17.7-.9,1.94-1.12,3a1.85,1.85,0,0,1-1.78.31,3.88,3.88,0,0,1-2.12-2.91,6.78,6.78,0,0,1,.84-2.26,6.21,6.21,0,0,1,.84-.86,4.65,4.65,0,0,1,2-1.26C270.08,517.21,270.24,517.88,270.61,518.32Z" transform="translate(-228.03 -346.53)"/><path class="cls-48" d="M267.72,523.91l1.82.22-1.5,4.64c.08.79-.29,1.1-1.05,1l-1.08-1.09c-.86-1.33.22-2.51.27-3.77A1.49,1.49,0,0,1,267.72,523.91Z" transform="translate(-228.03 -346.53)"/><path class="cls-205" d="M267,529.76l1.05-1c2.51,2.38,1.41,4.11-1,5.6C267,532.84,267,531.3,267,529.76Z" transform="translate(-228.03 -346.53)"/><path class="cls-167" d="M265,534.4l1.81,1.79,0,2.9a2.6,2.6,0,0,0-2.81,0c-1.34-1.93-1-3.49,1-4.7Z" transform="translate(-228.03 -346.53)"/><path class="cls-202" d="M273.6,522.23c-.61,1.91-1.21,3.82-1.82,5.73-.75-.57-.67-1.22-.2-1.92,0-1.28,0-2.56,0-3.85l.18-.17a1.15,1.15,0,0,1,1.52-.12Z" transform="translate(-228.03 -346.53)"/><path class="cls-109" d="M271.58,526c.07.64.14,1.28.2,1.92l-.09,1.68C269.84,528.5,270.46,527.28,271.58,526Z" transform="translate(-228.03 -346.53)"/><path class="cls-206" d="M292.31,410.81c0-.65,0-1.36.83-1.59l.83.77c.23,1,.74,2.1-.56,2.82C291.6,413,291.75,412,292.31,410.81Z" transform="translate(-228.03 -346.53)"/><path class="cls-207" d="M275.37,447.62v-1.88c.93-1.47.79-3.36,1.84-4.78a2.88,2.88,0,0,1,.08-3.67c1.06-.71-.05-2.12.92-2.87.62.55,1.28-3.17,1.88,0,2,2.48,1.23,5.19.66,7.86-.36,1.66-.25,3.34-.51,5a8.8,8.8,0,0,1-.31,1.46c-.78,2.08-.41,4.28-.64,6.41a11.93,11.93,0,0,1-1.35,4.1c-1.2,1.47-.81,3.12-.67,4.81s.64,3.77-1.83,4.52c-2.48-1.58-1.75-4.24-2.18-6.5a2.55,2.55,0,0,1,.07-2.06c-.29-4.43-1.52-8.83-.49-13.32l.66.92C274.13,447.3,274.75,450.81,275.37,447.62Z" transform="translate(-228.03 -346.53)"/><path class="cls-146" d="M273.52,461.74l2,6.6a2.59,2.59,0,0,1,.68,1.15,3.36,3.36,0,0,1-.48,2.6,1.64,1.64,0,0,1-1.24.37,3.31,3.31,0,0,1-1.62-2,5,5,0,0,0-1.2-4c0-1-.14-2.11.88-2.82C273.44,463.32,272.79,462.16,273.52,461.74Z" transform="translate(-228.03 -346.53)"/><path class="cls-208" d="M273.53,477.8v-3.73a.87.87,0,0,1,.92-.35c.86.47,1.79-.08,2.66.18a2.61,2.61,0,0,1,.81,2.82c-.42,1.26-.68,2.62-2.09,3.24C274.44,479.91,274,478.86,273.53,477.8Z" transform="translate(-228.03 -346.53)"/><path class="cls-209" d="M273.53,477.8l1.86,1.9a2.08,2.08,0,0,1,.35,2.61c-2.12,1.12-3.49-.52-5.07-1.36a.93.93,0,0,1,0-1.27l.08.06A2.92,2.92,0,0,0,273.53,477.8Z" transform="translate(-228.03 -346.53)"/><path class="cls-117" d="M270.66,477.82c-1.68-1.59-.68-3.16,0-4.73C272.44,474.69,271.34,476.25,270.66,477.82Z" transform="translate(-228.03 -346.53)"/><path class="cls-73" d="M274.4,474l-.86.11-1.89-3.78a1.22,1.22,0,0,1,1.83-.05l1,2A1.17,1.17,0,0,1,274.4,474Z" transform="translate(-228.03 -346.53)"/><path class="cls-142" d="M273.48,470.24l-1.84.05c.88-1.28,0-2.55,0-3.83C273.3,467.21,273.61,468.62,273.48,470.24Z" transform="translate(-228.03 -346.53)"/><path class="cls-210" d="M273.52,461.74c-.52.53.93,2.11-1,1.9.09-1.25-.52-2.65.82-3.62Z" transform="translate(-228.03 -346.53)"/><path class="cls-211" d="M284.94,418.45a3.31,3.31,0,0,0-.15,3.71c-1.11,1-.68,2.54-1.08,3.79-.49.63-.2,1.53-.74,2.14a.84.84,0,0,1-1-.25v0c-.89-.72-.92-1.81-1.21-2.79.36-1.88,1.66-3.71.29-5.67,1.13-2.84,2.27-5.68,3.53-8.83C284.71,413.38,284.83,415.91,284.94,418.45Z" transform="translate(-228.03 -346.53)"/><path class="cls-212" d="M286.62,407a7.35,7.35,0,0,1-.82.1c0-.61-.09-1.22-.13-1.83a9.32,9.32,0,0,1,.2-6.6l1.6-.2,1,1.93-.88,1C285.92,403,287.14,405.16,286.62,407Z" transform="translate(-228.03 -346.53)"/><path class="cls-213" d="M285.87,398.67c-.07,2.2-.13,4.4-.2,6.6l-1.83-.15c.31-1.56.62-3.12.92-4.69C284.84,399.66,285,398.94,285.87,398.67Z" transform="translate(-228.03 -346.53)"/><path class="cls-214" d="M281.05,419.36c1.89,1.88,1.54,3.75,0,5.62a.56.56,0,0,1-.93,0l-.75-.86A5.45,5.45,0,0,0,281.05,419.36Z" transform="translate(-228.03 -346.53)"/><path class="cls-67" d="M275.51,410c0-2.36-1.12-5,1.64-6.72C276.41,405.5,276.79,408,275.51,410Z" transform="translate(-228.03 -346.53)"/><path class="cls-156" d="M246.2,498.56l1.08.93c1.56,2.17,4.31,3.52,4.55,6.6-2.58.71-4.49-.88-6.55-1.94a2.13,2.13,0,0,1-.94-.89,6,6,0,0,1,1-4.68C245.62,498.19,245.9,498.18,246.2,498.56Z" transform="translate(-228.03 -346.53)"/><path class="cls-215" d="M242.44,512.7a2.05,2.05,0,0,0,1-1.93,1.63,1.63,0,0,1,1.89-.22,4.1,4.1,0,0,1,.4,2.55c-.22,1-1,1.81-1.21,2.83,0,.2-.07.39-.1.59s0,.59,0,.89a7.68,7.68,0,0,1-.24,3.05,2.14,2.14,0,0,1-.79.92c-.3-1-.59-2-.88-3C241.85,516.48,242.32,514.59,242.44,512.7Z" transform="translate(-228.03 -346.53)"/><path class="cls-106" d="M248.05,518.36c-.13,1.87.33,3.84-1,5.5-2.68-.58-1.82-2.57-1.7-4.26a3.56,3.56,0,0,1,.93-1.24Z" transform="translate(-228.03 -346.53)"/><path class="cls-216" d="M244.34,503.26c.31.3.62.6.94.89.3,1,.61,2,.91,2.94a1.89,1.89,0,0,1-2.77-.1c0-.58-.07-1.16-.11-1.74A2.12,2.12,0,0,0,244.34,503.26Z" transform="translate(-228.03 -346.53)"/><path class="cls-156" d="M245.25,513.66v-2.83a.83.83,0,0,1,.37-1.08l.63.17c-.72,2.17,1.49,5.18-1.88,6.6l-.07,0C243.84,515.27,244.54,514.46,245.25,513.66Z" transform="translate(-228.03 -346.53)"/><path class="cls-217" d="M246.3,518.36c-.05.31-.09.62-.14.93-.77.72-1.48,1.68-2.72.8,0-1-.19-2.05.9-2.68Z" transform="translate(-228.03 -346.53)"/><path class="cls-156" d="M243.42,507l2.77.1c.32.93,1.44,1.85.07,2.83l-.11-.07c-1.18-.66-3-.68-2.82-2.71Z" transform="translate(-228.03 -346.53)"/><path class="cls-218" d="M254.78,462.75c-.35,1.87-.71,3.73-1.06,5.6-2.44,1.16-2.61-1-3.32-2.3a3.81,3.81,0,0,1-.05-2,4.93,4.93,0,0,1,.57-1.15,8.39,8.39,0,0,0,1.06-5.26,10.87,10.87,0,0,1-.11-3.22,6.11,6.11,0,0,1,.37-1.33c.44-.85.86-1.72,1.95-1.9a2.19,2.19,0,0,1,1.3,1.66,45.32,45.32,0,0,1,.09,5.34A37.34,37.34,0,0,1,254.78,462.75Z" transform="translate(-228.03 -346.53)"/><path class="cls-142" d="M250.94,465.55c1.21.65.61,3.1,2.78,2.8l0,2c-1.13,1-.56,2.92-1.85,3.9a2.22,2.22,0,0,1-2.26-1,5.78,5.78,0,0,1-.68-1.83,7.7,7.7,0,0,1-.27-3.81,5.32,5.32,0,0,1,1.16-2.28A.93.93,0,0,1,250.94,465.55Z" transform="translate(-228.03 -346.53)"/><path class="cls-14" d="M253.57,475.92c-.23,3.77-1.33,7.47-.82,11.3-.86.26-1.27-.27-1.61-.92a6.68,6.68,0,0,1-.41-2.07c-.06-.94-.06-1.87-.07-2.81a21.14,21.14,0,0,1,.26-4.28,3.41,3.41,0,0,1,.66-1.3A1.5,1.5,0,0,1,253.57,475.92Z" transform="translate(-228.03 -346.53)"/><path class="cls-219" d="M253.57,475.92H252a1.26,1.26,0,0,1-.17-1.85c.19-1.47.05-3.11,1.9-3.72Z" transform="translate(-228.03 -346.53)"/><path class="cls-220" d="M251.82,486.27l.93,1c.05,1,.11,1.94.16,2.91l-.33,2.57C249.93,490.19,249.75,488.71,251.82,486.27Z" transform="translate(-228.03 -346.53)"/><path class="cls-91" d="M254.78,462.75l.1-4.86a.92.92,0,0,1,1.39,0c-.24,1.62-.48,3.25-.71,4.88h-.78Z" transform="translate(-228.03 -346.53)"/><path class="cls-221" d="M274.51,495.72l-.05.95c-.06.61.49,1,.57,1.57a2.05,2.05,0,0,1-.55,1.67c-.82,1.23-1.32,2.47-.25,3.84s.81,2.88-.45,4.15a3.49,3.49,0,0,1-2.61.29,5.65,5.65,0,0,1-2-.65c-.79-.68-1.2-1.43-.41-2.38,1.22-1-1-3.69,1.92-3.78C271.43,499.12,269.56,495.13,274.51,495.72Z" transform="translate(-228.03 -346.53)"/><path class="cls-222" d="M274.51,495.72c-3.53.36-2,4.11-3.8,5.66-1.32-2-.93-4.3-1-6.51.65-2.72,2-3,3.86-1C274.12,494.33,275.57,494.37,274.51,495.72Z" transform="translate(-228.03 -346.53)"/><path class="cls-167" d="M273.53,493.83a2.72,2.72,0,0,0-3.86,1c-3.06-1.93-1.29-5-1.76-7.52l1.86.8.44.34a4.77,4.77,0,0,0,2.43,2.17,2,2,0,0,1,1,1.39Z" transform="translate(-228.03 -346.53)"/><path class="cls-163" d="M268.79,505.16a2,2,0,0,0,.93,1.89c1,1.14.34,2.08-.36,3-1,.75-1.75,2.08-3.34,1.71.3-2.2.59-4.41.89-6.61Z" transform="translate(-228.03 -346.53)"/><path class="cls-194" d="M290.28,427.88l.06-5.9a.79.79,0,0,1,.16-.79,1.49,1.49,0,0,1,2.08.08,6.86,6.86,0,0,1-.09,3.81,7.74,7.74,0,0,1-1.11,4.62C289.66,429.91,290,428.87,290.28,427.88Z" transform="translate(-228.03 -346.53)"/><path class="cls-223" d="M292.21,421.12l-1.71.07.05-.9c1.65-3,.89-6.14.23-9.24l1.53-.24a2,2,0,0,0,1.1,2l-.12,1.81c-1.07,1.69-.24,3.56-.52,5.33A1.35,1.35,0,0,1,292.21,421.12Z" transform="translate(-228.03 -346.53)"/><path class="cls-224" d="M290.28,427.88a2.13,2.13,0,0,0,1.1,1.82l-.18,3.68-1.69,1,.06-6.61A4.27,4.27,0,0,1,290.28,427.88Z" transform="translate(-228.03 -346.53)"/><path class="cls-194" d="M292.42,420.34c.11-1.93-.87-4,.87-5.72-.05,1.86-.1,3.71-.16,5.57C293,420.64,292.75,420.71,292.42,420.34Z" transform="translate(-228.03 -346.53)"/><path class="cls-225" d="M292.42,420.34c.24,0,.48-.09.71-.15-.09,1.64.41,3.37-.64,4.89-.09-1.32-.18-2.64-.28-4Q292.33,420.73,292.42,420.34Z" transform="translate(-228.03 -346.53)"/><path class="cls-221" d="M268.74,509.91c.33-1,.66-1.91,1-2.86h1.92c.69,1.81,3.4,2.37,3,4.86a2.57,2.57,0,0,0-.05.68c-.31,1.23-.61,2.48-2.07,2.89-1.12-.64-2.47,0-3.58-.66a3.08,3.08,0,0,1-1.12-2.35A3.73,3.73,0,0,1,268.74,509.91Z" transform="translate(-228.03 -346.53)"/><path class="cls-226" d="M273.51,508c-.16-1.37,1.32-2.62-.28-4.22s.1-3,1.19-4.32a.68.68,0,0,1,.24.67c-.06.23-.13.34-.2.34,0,2.09.21,4.1,2.73,4.76-.32.93-.63,1.87-.95,2.8a1.89,1.89,0,0,1-2.28.4Z" transform="translate(-228.03 -346.53)"/><path class="cls-97" d="M274.64,511.92c-1.36-1.4-3-2.61-3-4.86l1.87.94,0,0c.7,1,2.08.94,2.8,1.88A1.77,1.77,0,0,1,274.64,511.92Z" transform="translate(-228.03 -346.53)"/><path class="cls-90" d="M276.29,509.86c-1.39.06-2.72,0-2.8-1.88l2.75,0C276.26,508.64,276.28,509.25,276.29,509.86Z" transform="translate(-228.03 -346.53)"/><path class="cls-227" d="M266.87,519.31a1.88,1.88,0,0,1-.92,1.88c-.26.44-.55.47-.85,0l-1-4.75c0-.6.08-1.19.11-1.78C266.93,515.16,266.22,517.63,266.87,519.31Z" transform="translate(-228.03 -346.53)"/><path class="cls-97" d="M265.1,521.23l.85,0,1.77,2.72c-.31.35-.63.69-1,1a1,1,0,0,1-1.67,0l-.15-2.83Z" transform="translate(-228.03 -346.53)"/><path class="cls-203" d="M263.17,530.72c0,1.59-.86,1.34-1.83.95,0-.67-.07-1.34-.11-2s.09-1.17.13-1.75C262,528.84,262.57,529.78,263.17,530.72Z" transform="translate(-228.03 -346.53)"/><path class="cls-228" d="M279.18,448.6q.45-7.08.92-14.17c1.8-1.11.06-3.62,1.87-4.72,1,.72.88,1.86,1,2.9l-.14,4.51c-1,1.48.23,3.38-.91,4.83h0c-1.09,2.11,0,4.47-.69,6.62A1.59,1.59,0,0,1,279.18,448.6Z" transform="translate(-228.03 -346.53)"/><path class="cls-228" d="M280.09,425H281c1.12.68.92,1.8,1,2.84-.81.38-2.22,1.23-2.35,1.06C278.56,427.54,280.31,426.37,280.09,425Z" transform="translate(-228.03 -346.53)"/><path class="cls-228" d="M278.22,434.42c-.34.95,1.52,2.6-.92,2.87-.3-1-.61-2-.91-2.93Z" transform="translate(-228.03 -346.53)"/><path class="cls-229" d="M283,432.61c-1.15-.69-1-1.83-1-2.9,0-.63,0-1.25,0-1.87h.93a6,6,0,0,1,.1,4.77Z" transform="translate(-228.03 -346.53)"/><path class="cls-50" d="M279.18,448.6l1.74-.09a31.4,31.4,0,0,1,.12,12.33q0,8-.1,15.94l-.05-.07a1.1,1.1,0,0,1-1.29.45,2,2,0,0,1-.91-1.92c.24-3.52,0-7.05.11-10.58,0-1.79,0-3.59,0-5.39a7.36,7.36,0,0,1,.11-1.55c.93-3-1.16-6.13.22-9.15Z" transform="translate(-228.03 -346.53)"/><path class="cls-230" d="M281,460.84l-.12-12.33c.48-2.17-.39-4.55,1-6.57q.1,4.81.19,9.63C281.53,454.63,282.77,457.91,281,460.84Z" transform="translate(-228.03 -346.53)"/><path class="cls-14" d="M295.29,377.73l-1.06-.86c.29-.83,1-1,1.73-1,1.67-1.15,3.33-.51,5,0,.56.11,1.33,0,1.33.86s-.52,1-1.2,1c-1.06.07-2.11.16-3.16.24Z" transform="translate(-228.03 -346.53)"/><path class="cls-231" d="M301,375.86h-5c.16-1.73,1.73-2,2.83-2.71C298.5,374.85,300.1,375.06,301,375.86Z" transform="translate(-228.03 -346.53)"/><path class="cls-232" d="M293.06,382.59l.19,1.49a3.47,3.47,0,0,1-4.7,2.24l-1.86.93a2.25,2.25,0,0,1-.72-1.78,4.06,4.06,0,0,1,1.13-2.27,3,3,0,0,0,1-2.68,1.94,1.94,0,0,1,.53-1.09,1.42,1.42,0,0,1,1.72.24C291.71,380.21,291.07,382.63,293.06,382.59Z" transform="translate(-228.03 -346.53)"/><path class="cls-12" d="M290.34,379.67l-1.73.2c-.88-.41-1.4-1-.94-2l2.71,0C290.37,378.48,290.36,379.08,290.34,379.67Z" transform="translate(-228.03 -346.53)"/><path class="cls-233" d="M286.5,451.4c.1-.62.21-1.25.32-1.87l1.45-2.19A2.93,2.93,0,0,1,286.5,451.4Z" transform="translate(-228.03 -346.53)"/><path class="cls-234" d="M250.91,499.51v-.92a2.77,2.77,0,0,1-.85-2.43,3.15,3.15,0,0,1,.48-1.24,1,1,0,0,1,1.19-.2c1.17,1.25,0,2.59.15,3.88a4.2,4.2,0,0,1-.15.93C251.45,499.51,251.18,499.51,250.91,499.51Z" transform="translate(-228.03 -346.53)"/><path class="cls-235" d="M277.22,441a5.28,5.28,0,0,1-1.84,4.78v-1.9A3,3,0,0,1,277.22,441Z" transform="translate(-228.03 -346.53)"/><path class="cls-236" d="M273.6,492.05l-1-1a5.91,5.91,0,0,1-1.76-3.21c-.07-2.39-1.61-4.79,0-7.18,1.92-.39,3.08,1,4.49,1.86a2.06,2.06,0,0,1,.61,1c.59,1.2.62,2.59,1.31,3.77,0,1.94-.14,3.91,1,5.65C276.66,492.78,275.41,490.88,273.6,492.05Z" transform="translate(-228.03 -346.53)"/><path class="cls-35" d="M279.06,499.42c-.26.06-.52.1-.78.14-1.47-.06-4,1.36-2.91-2.18a1.63,1.63,0,0,1,1.85.18l1,.06A1.81,1.81,0,0,1,279.06,499.42Z" transform="translate(-228.03 -346.53)"/><path class="cls-185" d="M277.22,497.56l-1.82.07c-.33.48-.64.45-.95,0-.66-.33-.63-.65,0-.95C275.32,497.15,277,495,277.22,497.56Z" transform="translate(-228.03 -346.53)"/><path class="cls-237" d="M288.55,386.32a8,8,0,0,0,4.7-2.24c.2.24.41.47.61.7l.36,2.54C292.38,386.74,290.17,388.21,288.55,386.32Z" transform="translate(-228.03 -346.53)"/><path class="cls-182" d="M286.61,385.31c0,.65.06,1.3.08,1.94l-1,.09c-1.22-.17-2.74.06-2.7-1.9C284.15,384.82,285.36,384.43,286.61,385.31Z" transform="translate(-228.03 -346.53)"/><path class="cls-238" d="M266.87,519.31c-2.36-.68-1.22-3.4-2.68-4.61,0-.67,0-1.34,0-2l1.77,1c.75-.87,1.4-2,2.83-1a2.08,2.08,0,0,0,1.05,2,1.14,1.14,0,0,1,.1,1.14,4.56,4.56,0,0,0-2,3.48Z" transform="translate(-228.03 -346.53)"/><path class="cls-110" d="M268.75,512.64l-2.83,1c0-.63.07-1.26.1-1.89.93-.6,1.27-2,2.73-1.86Z" transform="translate(-228.03 -346.53)"/><path class="cls-226" d="M277.25,487.25c-.57-1.31-3.43-1.47-1.91-3.82,1.23-.51,2.48-2.23,3.68,0,0,.62.05,1.23.07,1.85C277.86,485.36,277.34,486.11,277.25,487.25Z" transform="translate(-228.03 -346.53)"/><path class="cls-239" d="M270.84,480.65l.88,7.54a1.29,1.29,0,0,1-1.9-.06l-.05,0c-.6-2.85-1.19-5.7-1.79-8.56l2.68.09Z" transform="translate(-228.03 -346.53)"/><path class="cls-83" d="M256.27,457.87l-1.39,0c0-1.79-.1-3.59-.16-5.38.22-.46.3-1,1-1l.94,1.84Z" transform="translate(-228.03 -346.53)"/><path class="cls-240" d="M251.73,494.72l-.36,0H251a2.37,2.37,0,0,1-1-1.89c.15-2.49-1.84-4.69-1-7.28a3.34,3.34,0,0,1,.72-1.32,1.7,1.7,0,0,1,2.08.14c0,.63,0,1.25,0,1.87-.93,2.28.06,4.34.76,6.43Z" transform="translate(-228.03 -346.53)"/><path class="cls-202" d="M274.45,497.62h.95c-.26,2.47,2.63.22,2.88,1.93,0,.3,0,.59-.09.88a3,3,0,0,1-3.73,0c0-.33,0-.67,0-1Z" transform="translate(-228.03 -346.53)"/><path class="cls-235" d="M275.37,447.62v3.92l-1.86-3.92Z" transform="translate(-228.03 -346.53)"/><path class="cls-241" d="M279,483.46c-1.21-1.67-2.47,1.27-3.68,0a5.65,5.65,0,0,0,0-.92l.06-2.81c.63-.94,1.25-1.89,1.88-2.84,1-.85,1.88.9,2.85.07a1.9,1.9,0,0,1,.77-.22c.45,2.24-2.54,3.52-1.65,5.89A5.17,5.17,0,0,1,279,483.46Z" transform="translate(-228.03 -346.53)"/><path class="cls-212" d="M286.61,385.31c-1.21.16-2.42.78-3.66.13,0-.68-.07-1.36-.11-2,.11-.13.23-.26.34-.4a5.24,5.24,0,0,1,.92-.53,3.69,3.69,0,0,1,1-.3c.19,0,.37,0,.55,0a4.52,4.52,0,0,1,1.54.59,1.65,1.65,0,0,1,.65.86Z" transform="translate(-228.03 -346.53)"/><path class="cls-242" d="M282,382.55l.94-.93c.12.14.25.27.37.4a1.05,1.05,0,0,1-.45,1.4v0l-1-.1C281.9,383.05,281.94,382.8,282,382.55Z" transform="translate(-228.03 -346.53)"/><path class="cls-243" d="M249,449.51c1.47-2,.84-4.42,1.12-6.65,1.16.65.53,2,1.26,3.08l1.5-3.22a.53.53,0,0,1,.83,0l1,2.31c-1.24.46-.71,1.67-1.07,2.51a12.28,12.28,0,0,0-.6,1.63c-.59,1-.65,2.35-2.05,2.7-1,.06-1.44-.58-1.78-1.37Z" transform="translate(-228.03 -346.53)"/><path class="cls-23" d="M255.72,451.49l-1,1-.91-1.14a1.77,1.77,0,0,1,0-2.73C255.92,448.61,255.5,450.27,255.72,451.49Z" transform="translate(-228.03 -346.53)"/><path class="cls-121" d="M253.82,448.64c0,.91,0,1.82,0,2.73-.35.63-.69,1.26-1,1.88-1-1.57-.66-3.16-.06-4.75l.91-1C253.69,447.89,253.75,448.27,253.82,448.64Z" transform="translate(-228.03 -346.53)"/><path class="cls-244" d="M253.73,442.69l-.42.08-.41,0-.86-1.66c1.51-1.72.43-3.85.9-5.74,1.45,1.43.38,3.28.79,4.88Z" transform="translate(-228.03 -346.53)"/><path class="cls-245" d="M265.07,393.93l1.84-.09c-.3.64-.61,1.28-.91,1.93a2,2,0,0,1-1,1.86C265.05,396.4,265.06,395.16,265.07,393.93Z" transform="translate(-228.03 -346.53)"/><path class="cls-246" d="M248.06,489.12h-1c-1.44-1.56-1.2-3.85-2.4-5.5a3.34,3.34,0,0,1,.08-2.63c1.64,0,1.49-1.61,2.22-2.44a2,2,0,0,1,1.92-.13,2.66,2.66,0,0,1,.89,2.43,7.36,7.36,0,0,1-.24,1.31,12.89,12.89,0,0,0-.57,4.54A2.74,2.74,0,0,1,248.06,489.12Z" transform="translate(-228.03 -346.53)"/><path class="cls-247" d="M245.26,483.47c2.67,1.2,1.77,3.58,1.84,5.64-1.39.9-2.49,1-2.85-1a5.3,5.3,0,0,1-.52-3.34A2,2,0,0,1,245.26,483.47Z" transform="translate(-228.03 -346.53)"/><path class="cls-109" d="M248.06,489.12l.1-2.69c.42-.59.59-1.68,1.73-.91l1,7.38c-1,.58-1.31-.29-1.76-.86Z" transform="translate(-228.03 -346.53)"/><path class="cls-248" d="M244.32,484.4c0,1.24,0,2.47-.07,3.7a1.6,1.6,0,0,0-.75.39c-.13-.88-.25-1.77-1.16-2.24a12.32,12.32,0,0,1,1.26-5.5C245.68,481.61,244.76,483.05,244.32,484.4Z" transform="translate(-228.03 -346.53)"/><path class="cls-249" d="M246.2,498.56l-.86,0c-.36-1-2.52-1.23-1.25-2.92a1.08,1.08,0,0,1,1.59-.38A2.31,2.31,0,0,1,246.2,498.56Z" transform="translate(-228.03 -346.53)"/><path class="cls-238" d="M250.81,495.59c0,1,.07,2,.1,3-1.35-.49-3.7-.34-1.81-2.87A1.18,1.18,0,0,1,250.81,495.59Z" transform="translate(-228.03 -346.53)"/><path class="cls-250" d="M250.81,495.59l-1.72.13c0-1.23,0-2.45,0-3.68l1.77.86.12,1.85A6.45,6.45,0,0,0,250.81,495.59Z" transform="translate(-228.03 -346.53)"/><path class="cls-146" d="M246.13,533.45l-1,1c-1.08.94-2.7-.41-3.69.89h0l-2-.15a4.07,4.07,0,0,1,.59-3.44c.83-.49,1-1.47,1.52-2.16a5.68,5.68,0,0,0,1.8-3.72,1.83,1.83,0,0,1,2.66.12C246.48,528.46,244.64,531,246.13,533.45Z" transform="translate(-228.03 -346.53)"/><path class="cls-251" d="M246.08,526l-2.66-.12c0-1.49-.07-3-.11-4.47,0-.43.08-.86.13-1.29l2.72-.8c.28,1.53-.6,3.29.91,4.57A2,2,0,0,1,246.08,526Z" transform="translate(-228.03 -346.53)"/><path class="cls-48" d="M240.58,531.6a5.25,5.25,0,0,1-1.07,3.57,8.29,8.29,0,0,0-.85.25c-1.23-.62-1-1.84-1.12-2.87.13-1.13.48-2.08,1.86-2.07C240.37,530.25,240.78,530.6,240.58,531.6Z" transform="translate(-228.03 -346.53)"/><path class="cls-240" d="M240.58,531.6l-1.17-1.11c.29-1.39.82-2.2,2.21-.92.19.71.69,1.53.49,2.1C241.85,532.42,241.11,531.64,240.58,531.6Z" transform="translate(-228.03 -346.53)"/><path class="cls-188" d="M243.33,507.14c.77,1.09,2.44,1.22,2.82,2.71l-.89,1-1.85-.06C243.77,509.56,241.67,508.39,243.33,507.14Z" transform="translate(-228.03 -346.53)"/><path class="cls-49" d="M241.47,535.32c.71-2.48,2.31-1.23,3.69-.89.08,1.05,0,2.17.94,2.92-.62,1-1.73.69-2.63.95C243.37,536.93,243.45,535.43,241.47,535.32Z" transform="translate(-228.03 -346.53)"/><path class="cls-49" d="M294.21,372.18c.64-1.9-1.54-4.74,1.92-5.68.94.76.63,1.9.87,2.87C298.2,372.44,296,372.07,294.21,372.18Z" transform="translate(-228.03 -346.53)"/><path class="cls-252" d="M300.69,367.41c-3.26-.71-.91-2.78-.52-3.69.63-1.45,1.22-.29,1.48.62C300.5,365.1,300.87,366.34,300.69,367.41Z" transform="translate(-228.03 -346.53)"/><path class="cls-253" d="M286.43,383.42l-1.63-.87A2.14,2.14,0,0,1,284,381a4.22,4.22,0,0,1,.2-1.17,2.47,2.47,0,0,1,.54-1l1,0,1.9-.91.95,2c0,.23.05.45.07.68A4.84,4.84,0,0,1,286.43,383.42Z" transform="translate(-228.03 -346.53)"/><path class="cls-254" d="M244.32,484.4c-.18-1.23.37-2.6-.72-3.65.2-1.31.39-2.61.59-3.92l1.06-.78a1.85,1.85,0,0,1,1.48,1.83,5.69,5.69,0,0,1-1.37,2.79c0,.93-.07,1.86-.1,2.8Z" transform="translate(-228.03 -346.53)"/><path class="cls-94" d="M249.07,467.37l.85,3.82c-1,1.12.33,2.69-.7,3.81-1.84.68-2.39-.76-3.11-1.91l.06-1.9c0-1,.07-1.93.11-2.89,1.95.15,1.69-1.44,2-2.58C249.86,465.64,249.53,466.47,249.07,467.37Z" transform="translate(-228.03 -346.53)"/><path class="cls-255" d="M246.11,473.09,249,475a2.18,2.18,0,0,1,.76,1.16,2.42,2.42,0,0,1-.81,2.56l-1.82.08a1.46,1.46,0,0,1-.78-1l-1.11-1.76C245.54,475.06,245.82,474.07,246.11,473.09Z" transform="translate(-228.03 -346.53)"/><path class="cls-256" d="M249.19,450.47l1.67.92a2.46,2.46,0,0,1,.81,2c-.43,1.61-.39,3.55-2.67,3.88a1,1,0,0,1-.09-1.33l0-4.54C249,451.07,249.09,450.77,249.19,450.47Z" transform="translate(-228.03 -346.53)"/><path class="cls-257" d="M282.93,380.67l1-.94c.11.17.21.35.32.53-.08.2-.15.39-.23.58l-.59.21-.48-.4Z" transform="translate(-228.03 -346.53)"/><path class="cls-17" d="M284.74,378.79c0,.31.05.62.06.92-.32.43-.63.43-.95,0h0a1.47,1.47,0,0,1,.19-.89Z" transform="translate(-228.03 -346.53)"/><path class="cls-49" d="M248.91,455.9,249,457c1.13,1,1.28,2.44,1.59,3.8a2.83,2.83,0,0,1-.47,2,1.57,1.57,0,0,1-2-.14h-.81C248,460.48,247.69,458,248.91,455.9Z" transform="translate(-228.03 -346.53)"/><path class="cls-258" d="M248.17,462.74l1.8-.08a2.46,2.46,0,0,1,0,3,1.7,1.7,0,0,1-.89,1.75c-.26-.55-.52-1.1-.79-1.65C248.25,464.73,248.21,463.74,248.17,462.74Z" transform="translate(-228.03 -346.53)"/><path class="cls-202" d="M282.91,380.65h1c.22.9-.1,1.22-1,1l0,0Z" transform="translate(-228.03 -346.53)"/><path class="cls-53" d="M283,432.61c0-1.59-.07-3.18-.1-4.77l.82-1.89C283.81,428.21,284.37,430.52,283,432.61Z" transform="translate(-228.03 -346.53)"/><path class="cls-230" d="M281.93,442c.07-1.65-.22-3.37.91-4.83C282.76,438.77,283.52,440.58,281.93,442Z" transform="translate(-228.03 -346.53)"/><path class="cls-259" d="M265,534.39a8.19,8.19,0,0,0-1,4.7c-1-.28-3,.78-2.9-1C261.27,536.09,262.28,534.05,265,534.39Z" transform="translate(-228.03 -346.53)"/><path class="cls-260" d="M269.65,515.64l.15-1c1.25-.8,2.18-.6,2.72.86a3.32,3.32,0,0,0-1.91,2.83l-1-1A1.15,1.15,0,0,1,269.65,515.64Z" transform="translate(-228.03 -346.53)"/><path class="cls-261" d="M273.26,521.9l-1.52.12c.15-1.1-.55-3,.87-3C274.23,519,273.36,520.81,273.26,521.9Z" transform="translate(-228.03 -346.53)"/><path class="cls-262" d="M265.1,524.94h1.67c-.29,1.24-.57,2.49-.86,3.73C264.58,527.66,265.14,526.23,265.1,524.94Z" transform="translate(-228.03 -346.53)"/><path class="cls-202" d="M269.65,515.64v1.68c-.58.64-1.15,1.29-1.72,1.93C267,517.31,267.26,516,269.65,515.64Z" transform="translate(-228.03 -346.53)"/><path class="cls-115" d="M279.87,464.2c-.08,3.92,1.18,7.91-.68,11.72-2.07-2.05-4.47-4-2.69-7.43,1.29-3.1-1.14-6.5.76-9.54l1-3.63c2.46-.47.56,2.1,1.74,2.52v1.26A8.38,8.38,0,0,0,279.87,464.2Z" transform="translate(-228.03 -346.53)"/><path class="cls-235" d="M277.26,459c-.44,3.57,1.22,7.37-1.18,10.73a.55.55,0,0,1-.69-.38c0-.32.08-.64.11-1,1.42-1.81,1-3.76.31-5.63S275.62,459.75,277.26,459Z" transform="translate(-228.03 -346.53)"/><path class="cls-101" d="M280,457.84l-1.74-2.52c.22-2.26-.94-4.69.86-6.75C279.43,451.66,279.73,454.75,280,457.84Z" transform="translate(-228.03 -346.53)"/><path class="cls-73" d="M275.39,469.3a4.58,4.58,0,0,1,.69.37c-.06,2.63,2.7,3.85,3.11,6.25l.93,1c-1,1.63-1.9.12-2.85-.06,0-1,.18-2.14-.95-2.8-1.68.14-1.46-.77-1-1.82Z" transform="translate(-228.03 -346.53)"/><path class="cls-253" d="M275.31,472.24c.33.61.67,1.21,1,1.82-.26.49-.45,1.34-.78,1.39-1,.17-1-.81-1.14-1.49,0-.59.05-1.17.07-1.76A3.94,3.94,0,0,1,275.31,472.24Z" transform="translate(-228.03 -346.53)"/><path class="cls-263" d="M245.25,513.66c-.31.94-.63,1.87-.94,2.81C242.8,514.92,243.23,514,245.25,513.66Z" transform="translate(-228.03 -346.53)"/><path class="cls-264" d="M250,460.87c-1.44-1-.75-2.53-.95-3.83l2-3.65c.83-.4,1.24.08,1.57.74l.11,3.91c-.84,1.8.13,3.87-.86,5.65a4.15,4.15,0,0,1-.78.16c-1.14-.89-.42-2.15-.61-3.23-.1-.61-.22-.91-.06-.31C250.43,460.42,250.2,460.63,250,460.87Z" transform="translate(-228.03 -346.53)"/><path class="cls-185" d="M252.6,454.13l-1.57-.74c-.05-.67-.11-1.34-.17-2,.8-.85.34-2.5,1.85-2.89l.06,4.75C252.72,453.55,252.67,453.84,252.6,454.13Z" transform="translate(-228.03 -346.53)"/><path class="cls-262" d="M250,460.87l.13-1.8.56-.1c.14,1.63.27,3.25.41,4.88,0,.57-.08,1.13-.13,1.7l-1,.07c0-1,0-2,0-3Z" transform="translate(-228.03 -346.53)"/><path class="cls-258" d="M251.85,463.69c.29-1.89-.74-4,.86-5.65C252.88,460,253.06,462,251.85,463.69Z" transform="translate(-228.03 -346.53)"/><path class="cls-185" d="M251.79,474.07c.06.62.11,1.23.17,1.85a4.08,4.08,0,0,0-.17.9c-.36.68-.87,1.37-1.66,1s-.61-1.24-.62-2c.09-.93-.27-1.94.46-2.76Z" transform="translate(-228.03 -346.53)"/><path class="cls-265" d="M250,473.11l-.09,2.81q-.42.65-.84,0,0-.46,0-.93c.13-1.31-.38-2.77.91-3.8C249.94,471.83,250,472.47,250,473.11Z" transform="translate(-228.03 -346.53)"/><path class="cls-266" d="M249,475.92h.84c.05,1.54.8,1.6,1.91.9,0,1.58.05,3.16.08,4.74-.69.54-.32,2-1.44,2s-1.31-1-1.39-2,0-1.93-.08-2.9S249,476.85,249,475.92Z" transform="translate(-228.03 -346.53)"/><path class="cls-221" d="M249,481.61c1,1.39,1.91,1.13,2.83-.05l0,2.84-1.86.06c-2.26-.32-1.35-1.68-.94-2.87Z" transform="translate(-228.03 -346.53)"/><path class="cls-265" d="M269.82,488.13l1.9.06c1.06.72.82,1.82.84,2.85C269.53,492.07,269.79,490,269.82,488.13Z" transform="translate(-228.03 -346.53)"/><path class="cls-101" d="M279.87,464.2a4,4,0,0,1,.16-5.1C280,460.8,279.92,462.5,279.87,464.2Z" transform="translate(-228.03 -346.53)"/><path class="cls-105" d="M286.43,383.42c.22-1.37.42-2.76,2.25-2.88,1,1.38,1.59,2.63-.81,3.11Z" transform="translate(-228.03 -346.53)"/><path class="cls-149" d="M249,481.59c0,1.06-.18,2.18.94,2.87l-.09,1.05-1.73.92C248.29,484.78,247.43,483,249,481.59Z" transform="translate(-228.03 -346.53)"/><path class="cls-83" d="M282.88,381.6c.34-.31.67-.63,1-1h0a.58.58,0,0,1,.95,0v1.89l0,0a6.38,6.38,0,0,0-.78.86h-1.16C282.85,382.81,282.87,382.21,282.88,381.6Z" transform="translate(-228.03 -346.53)"/><path class="cls-267" d="M284,383.43l.78-.86Z" transform="translate(-228.03 -346.53)"/><path class="cls-168" d="M246.36,477.81l.78,1c-.14,1,.54,2.89-1.78,1.88C245.69,479.72,246,478.77,246.36,477.81Z" transform="translate(-228.03 -346.53)"/><path class="cls-268" d="M284.8,380.66h-.95v-.94h.95Z" transform="translate(-228.03 -346.53)"/></svg>